# Blender 3.6.5
# www.blender.org
mtllib buffer.mtl
o IND_BRAKE_1_TL_-1_Y_TOGGLE_LABEL_left^click
v 0.468750 0.500000 1.031250
v 0.531250 1.500000 1.031250
v 0.531250 0.500000 0.031250
v 0.531250 0.500000 1.031250
v 0.468750 0.500000 0.031250
v 0.531250 1.500000 0.031250
v 0.468750 0.500000 -0.968750
v 0.468750 0.500000 -1.031250
v 0.531250 1.500000 -0.968750
v 0.531250 0.500000 -0.968750
v 0.531250 0.500000 -1.031250
v 0.531250 1.500000 -1.031250
v -0.531250 0.500000 -0.031250
v -0.531250 1.500000 -0.031250
v -0.531250 0.500000 -1.031250
v -0.531250 1.500000 -1.031250
v -0.468750 0.500000 -1.031250
v -0.468750 0.500000 -0.031250
v -0.531250 0.500000 0.968750
v -0.531250 0.500000 1.031250
v -0.468750 0.500000 1.031250
v -0.468750 0.500000 -0.968750
v 0.468750 1.500000 -0.968750
v -0.468750 0.500000 0.968750
v 0.468750 0.500000 0.968750
v 0.468750 1.500000 1.031250
v 0.531250 2.000000 1.031250
v 0.468750 1.500000 0.031250
v 0.468750 2.000000 0.031250
v 0.468750 2.000000 -0.968750
v 0.531250 2.000000 0.031250
v 0.468750 1.500000 -1.031250
v 0.531250 2.000000 -0.968750
v 0.531250 2.000000 -1.031250
v 0.031250 1.750000 1.031250
v -0.468750 1.500000 -1.031250
v 0.468750 2.000000 -1.031250
v -0.468750 1.500000 -0.031250
v -0.531250 1.500000 0.968750
v -0.531250 1.500000 1.031250
v 0.468750 2.000000 1.031250
v 0.468750 2.000000 0.968750
v -0.468750 1.500000 -0.968750
v -0.468750 1.500000 0.968750
v -0.468750 1.500000 1.031250
v 0.468750 1.500000 0.968750
v 0.281250 2.000000 0.968750
v 0.281250 2.000000 1.031250
v 0.281250 2.000000 -0.968750
v -0.531250 1.625000 -0.031250
v 0.281250 2.000000 -1.031250
v 0.031250 1.750000 0.968750
v -0.468750 1.625000 1.031250
v -0.468750 1.625000 -1.031250
v -0.531250 1.625000 0.968750
v -0.218750 1.625000 1.031250
v -0.468750 1.625000 -0.968750
v 0.031250 1.875000 0.968750
v -0.468750 1.625000 0.968750
v 0.281250 1.875000 -0.968750
v 0.281250 1.875000 1.031250
v -0.218750 1.625000 0.968750
v -0.531250 1.625000 -1.031250
v 0.281250 1.875000 -1.031250
v 0.281250 1.875000 0.968750
v 0.031250 1.875000 -0.968750
v 0.031250 1.750000 -0.968750
v 0.031250 1.875000 1.031250
v -0.218750 1.750000 -1.031250
v 0.031250 1.750000 -1.031250
v -0.218750 1.750000 0.968750
v -0.218750 1.750000 1.031250
v -0.468750 1.625000 -0.031250
v -0.531250 1.625000 1.031250
v 0.031250 1.875000 -1.031250
v -0.218750 1.625000 -1.031250
v -0.218750 1.625000 -0.968750
v -0.218750 1.750000 -0.968750
vn -1.0000 -0.0000 -0.0000
vn 1.0000 -0.0000 -0.0000
vn -0.0000 -0.0000 1.0000
vn -0.0000 -1.0000 -0.0000
vn -0.0000 -0.0000 -1.0000
vn -0.0000 1.0000 -0.0000
vt 1.000000 0.000000
vt 0.000000 1.000000
vt 0.000000 0.000000
vt 1.000000 1.000000
vt 0.000000 0.062500
vt 0.250000 0.062500
vt 0.125000 0.000000
vt 0.125000 0.062500
vt 0.937500 0.000000
vt 0.937500 1.000000
vt 1.000000 0.062500
vt 0.000000 0.062500
vt 0.937500 0.062500
vt 0.937500 1.000000
vt 0.937500 0.000000
vt 0.937500 0.062500
vt 1.000000 1.000000
vt 1.000000 0.062500
vt 0.062500 1.000000
vt 0.000000 0.000000
vt 0.062500 0.062500
vt 0.000000 0.062500
vt 0.375000 0.062500
vt 0.250000 0.000000
vt 0.250000 0.062500
vt 0.250000 0.500000
vt 0.375000 0.250000
vt 0.062500 0.062500
vt 0.000000 0.250000
vt 0.000000 0.062500
vt 0.062500 0.500000
vt 0.000000 0.750000
vt 0.000000 0.500000
vt 0.062500 0.500000
vt 0.062500 0.000000
vt 0.000000 1.000000
vt 0.000000 0.000000
vt 0.125000 0.750000
vt 0.500000 0.062500
vt 0.375000 0.000000
vt 0.375000 0.062500
vt 0.125000 0.062500
vt 0.375000 0.250000
vt 0.125000 1.000000
vt 0.125000 0.000000
vt 0.062500 0.750000
vt 0.500000 0.000000
vt 0.062500 0.250000
vt 0.062500 0.250000
vt 0.500000 1.000000
vt 0.500000 0.062500
vt 1.000000 0.000000
vt 0.062500 0.000000
vt 0.250000 0.750000
vt 0.500000 0.250000
vt 0.375000 0.500000
vt 0.062500 1.000000
vt 0.500000 0.250000
vt 0.125000 1.000000
vt 0.125000 0.062500
vt 0.125000 0.062500
s 0
usemtl Wood
f 26/1/1 5/2/1 1/3/1
f 6/4/2 4/3/2 3/2/2
f 2/1/3 1/5/3 4/3/3
f 78/6/1 76/7/1 77/8/1
f 3/4/4 1/9/4 5/10/4
f 28/1/1 7/2/1 5/3/1
f 9/4/2 3/3/2 10/2/2
f 10/4/4 5/9/4 7/10/4
f 12/11/2 10/3/2 11/12/2
f 11/11/4 7/9/4 8/13/4
f 32/1/5 11/12/5 8/3/5
f 23/1/1 8/12/1 7/3/1
f 14/4/1 15/3/1 13/2/1
f 36/1/2 18/2/2 17/3/2
f 17/1/4 13/14/4 15/15/4
f 16/1/5 17/12/5 15/3/5
f 39/4/1 13/3/1 19/2/1
f 38/1/2 24/2/2 18/3/2
f 45/1/3 20/5/3 21/3/3
f 18/1/4 19/14/4 13/15/4
f 40/11/1 19/3/1 20/5/1
f 24/1/4 20/16/4 19/15/4
f 44/1/2 21/5/2 24/3/2
f 8/5/5 36/4/5 32/11/5
f 22/17/4 8/16/4 7/18/4
f 25/5/5 44/4/5 46/11/5
f 43/4/3 7/5/3 23/18/3
f 29/19/6 27/20/6 31/2/6
f 30/19/6 31/20/6 33/2/6
f 37/21/6 33/20/6 34/22/6
f 68/23/1 52/24/1 35/25/1
f 46/5/5 52/26/5 65/27/5
f 37/28/6 49/29/6 30/30/6
f 42/28/6 48/29/6 41/30/6
f 52/31/6 72/32/6 35/33/6
f 70/34/6 78/32/6 67/33/6
f 45/4/3 1/5/3 26/18/3
f 21/17/4 25/16/4 1/18/4
f 50/35/6 59/36/6 73/37/6
f 63/35/6 73/36/6 54/37/6
f 26/5/3 35/26/3 56/38/3
f 49/39/1 64/40/1 60/41/1
f 66/41/1 70/24/1 67/6/1
f 74/42/1 39/3/1 40/5/1
f 53/7/3 40/5/3 45/3/3
f 32/5/5 70/26/5 64/43/5
f 55/44/1 14/3/1 39/2/1
f 54/7/2 38/2/2 36/3/2
f 63/7/5 36/12/5 16/3/5
f 72/25/1 62/45/1 56/42/1
f 50/44/1 16/3/1 14/2/1
f 62/46/6 53/36/6 56/32/6
f 59/45/2 45/5/2 44/3/2
f 76/46/6 57/36/6 77/32/6
f 55/35/6 53/30/6 59/37/6
f 67/26/3 77/38/3 23/5/3
f 30/47/1 32/12/1 23/3/1
f 37/47/5 12/12/5 32/3/5
f 65/48/6 68/33/6 61/29/6
f 64/49/6 66/33/6 60/29/6
f 34/39/2 9/3/2 12/12/2
f 33/50/2 6/3/2 9/2/2
f 29/47/1 23/2/1 28/3/1
f 27/47/3 26/5/3 2/3/3
f 31/50/2 2/3/2 6/2/2
f 41/47/1 28/2/1 26/3/1
f 47/47/1 61/23/1 48/51/1
f 73/7/2 44/2/2 38/3/2
f 26/1/1 28/4/1 5/2/1
f 6/4/2 2/1/2 4/3/2
f 2/1/3 26/18/3 1/5/3
f 78/6/1 69/24/1 76/7/1
f 3/4/4 4/52/4 1/9/4
f 28/1/1 23/4/1 7/2/1
f 9/4/2 6/1/2 3/3/2
f 10/4/4 3/52/4 5/9/4
f 12/11/2 9/1/2 10/3/2
f 11/11/4 10/52/4 7/9/4
f 32/1/5 12/18/5 11/12/5
f 23/1/1 32/18/1 8/12/1
f 14/4/1 16/1/1 15/3/1
f 36/1/2 38/4/2 18/2/2
f 17/1/4 18/17/4 13/14/4
f 16/1/5 36/18/5 17/12/5
f 39/4/1 14/1/1 13/3/1
f 38/1/2 44/4/2 24/2/2
f 45/1/3 40/18/3 20/5/3
f 18/1/4 24/17/4 19/14/4
f 40/11/1 39/1/1 19/3/1
f 24/1/4 21/18/4 20/16/4
f 44/1/2 45/18/2 21/5/2
f 8/5/5 17/2/5 36/4/5
f 22/17/4 17/14/4 8/16/4
f 25/5/5 24/2/5 44/4/5
f 43/4/3 22/2/3 7/5/3
f 29/19/6 41/53/6 27/20/6
f 30/19/6 29/53/6 31/20/6
f 37/21/6 30/53/6 33/20/6
f 68/23/1 58/40/1 52/24/1
f 46/5/5 44/2/5 59/44/5
f 62/38/5 71/54/5 52/26/5
f 46/5/5 59/44/5 62/38/5
f 47/55/5 42/51/5 46/5/5
f 52/26/5 58/56/5 65/27/5
f 65/27/5 47/55/5 46/5/5
f 46/5/5 62/38/5 52/26/5
f 37/28/6 51/49/6 49/29/6
f 42/28/6 47/48/6 48/29/6
f 52/31/6 71/46/6 72/32/6
f 70/34/6 69/46/6 78/32/6
f 45/4/3 21/2/3 1/5/3
f 21/17/4 24/14/4 25/16/4
f 50/35/6 55/57/6 59/36/6
f 63/35/6 50/57/6 73/36/6
f 26/5/3 41/51/3 48/58/3
f 61/43/3 68/56/3 35/26/3
f 26/5/3 48/58/3 61/43/3
f 53/59/3 45/2/3 26/5/3
f 35/26/3 72/54/3 56/38/3
f 56/38/3 53/59/3 26/5/3
f 26/5/3 61/43/3 35/26/3
f 49/39/1 51/47/1 64/40/1
f 66/41/1 75/40/1 70/24/1
f 74/42/1 55/45/1 39/3/1
f 53/7/3 74/42/3 40/5/3
f 32/5/5 36/2/5 54/59/5
f 76/38/5 69/54/5 70/26/5
f 32/5/5 54/59/5 76/38/5
f 51/58/5 37/51/5 32/5/5
f 70/26/5 75/56/5 64/43/5
f 64/43/5 51/58/5 32/5/5
f 32/5/5 76/38/5 70/26/5
f 55/44/1 50/45/1 14/3/1
f 54/7/2 73/59/2 38/2/2
f 63/7/5 54/60/5 36/12/5
f 72/25/1 71/24/1 62/45/1
f 50/44/1 63/7/1 16/3/1
f 62/46/6 59/57/6 53/36/6
f 59/45/2 53/61/2 45/5/2
f 76/46/6 54/57/6 57/36/6
f 55/35/6 74/28/6 53/30/6
f 67/26/3 78/54/3 77/38/3
f 77/38/3 57/44/3 43/2/3
f 23/5/3 30/51/3 49/58/3
f 60/43/3 66/56/3 67/26/3
f 23/5/3 49/58/3 60/43/3
f 77/38/3 43/2/3 23/5/3
f 23/5/3 60/43/3 67/26/3
f 30/47/1 37/51/1 32/12/1
f 37/47/5 34/51/5 12/12/5
f 65/48/6 58/31/6 68/33/6
f 64/49/6 75/34/6 66/33/6
f 34/39/2 33/47/2 9/3/2
f 33/50/2 31/47/2 6/3/2
f 29/47/1 30/50/1 23/2/1
f 27/47/3 41/51/3 26/5/3
f 31/50/2 27/47/2 2/3/2
f 41/47/1 29/50/1 28/2/1
f 47/47/1 65/40/1 61/23/1
f 73/7/2 59/44/2 44/2/2
o SHELL_WOOD
v -0.281250 0.634193 -0.968750
v -0.281250 0.609375 -0.906250
v -0.281250 0.590215 -0.781250
v -0.281250 0.609375 -0.593750
v -0.281250 0.590625 -0.531250
v -0.281250 0.596875 -0.468750
v -0.281250 0.590625 -0.406250
v -0.281250 0.609375 -0.031250
v -0.281250 0.628125 0.031250
v -0.281250 0.609364 0.093750
v -0.281250 0.590625 0.218750
v -0.281250 0.609364 0.468750
v -0.281250 0.614488 0.531250
v -0.281250 0.634375 0.656250
v -0.281250 0.552203 0.843750
v -0.281250 0.608453 0.968750
v 0.468750 0.881250 0.968750
v 0.468750 0.962500 0.906250
v 0.468750 0.937500 0.843750
v 0.468750 0.925000 0.781250
v 0.468750 0.962500 0.718750
v 0.468750 0.962500 0.656250
v 0.468750 0.918750 0.593750
v 0.468750 0.881250 0.531250
v 0.468750 0.943750 0.468750
v 0.468750 0.962500 0.406250
v 0.468750 0.962500 0.343750
v 0.468750 0.937500 0.281250
v 0.468750 0.918750 0.218750
v 0.468750 0.962500 0.156250
v 0.468750 0.943750 0.093750
v 0.468750 0.956250 0.031250
v 0.468750 0.937500 -0.031250
v 0.468750 0.937500 -0.093750
v 0.468750 0.943750 -0.156250
v 0.468750 0.937500 -0.218750
v 0.468750 0.943750 -0.281250
v 0.468750 0.918750 -0.343750
v 0.468750 0.918750 -0.406250
v 0.468750 0.925000 -0.468750
v 0.468750 0.918750 -0.531250
v 0.468750 0.937500 -0.593750
v 0.468750 0.937500 -0.656250
v 0.468750 0.962500 -0.718750
v 0.468750 0.956250 -0.781250
v 0.468750 0.918750 -0.843750
v 0.468750 0.937500 -0.906250
v 0.468750 0.937500 -0.968750
v -0.218750 0.579464 -0.968750
v -0.156250 0.688844 -0.968750
v -0.093750 0.697641 -0.968750
v -0.031250 0.718750 -0.968750
v 0.031250 0.770782 -0.968750
v 0.093750 0.754483 -0.968750
v 0.156250 0.807004 -0.968750
v 0.218750 0.796024 -0.968750
v 0.281250 0.861673 -0.968750
v 0.343750 0.906729 -0.968750
v 0.406250 0.933050 -0.968750
v -0.218750 0.642956 -0.906250
v -0.156250 0.664062 -0.906250
v -0.093750 0.691406 -0.906250
v -0.031250 0.731182 -0.906250
v 0.031250 0.727168 -0.906250
v 0.093750 0.791983 -0.906250
v 0.156250 0.800781 -0.906250
v 0.218750 0.809068 -0.906250
v 0.281250 0.879743 -0.906250
v 0.343750 0.863451 -0.906250
v 0.406250 0.927702 -0.906250
v -0.218750 0.661110 -0.843750
v -0.156250 0.670094 -0.843750
v -0.093750 0.660095 -0.843750
v -0.031250 0.700000 -0.843750
v 0.031250 0.745918 -0.843750
v 0.093750 0.773233 -0.843750
v 0.156250 0.824448 -0.843750
v 0.218750 0.833829 -0.843750
v 0.281250 0.836719 -0.843750
v 0.343750 0.864062 -0.843750
v 0.406250 0.929123 -0.843750
v -0.218750 0.604674 -0.781250
v -0.156250 0.663939 -0.781250
v -0.093750 0.697595 -0.781250
v -0.031250 0.699386 -0.781250
v 0.031250 0.752266 -0.781250
v 0.093750 0.779596 -0.781250
v 0.156250 0.806922 -0.781250
v 0.218750 0.808151 -0.781250
v 0.281250 0.898493 -0.781250
v 0.343750 0.907744 -0.781250
v 0.406250 0.915865 -0.781250
v -0.218750 0.642857 -0.718750
v -0.156250 0.644643 -0.718750
v -0.093750 0.691163 -0.718750
v -0.031250 0.718477 -0.718750
v 0.031250 0.745782 -0.718750
v 0.093750 0.740352 -0.718750
v 0.156250 0.767334 -0.718750
v 0.218750 0.853125 -0.718750
v 0.281250 0.861310 -0.718750
v 0.343750 0.816025 -0.718750
v 0.406250 0.915202 -0.718750
v -0.218750 0.661520 -0.656250
v -0.156250 0.688844 -0.656250
v -0.093750 0.659777 -0.656250
v -0.031250 0.718750 -0.656250
v 0.031250 0.746094 -0.656250
v 0.093750 0.773438 -0.656250
v 0.156250 0.800781 -0.656250
v 0.218750 0.834341 -0.656250
v 0.281250 0.855469 -0.656250
v 0.343750 0.888994 -0.656250
v 0.406250 0.916270 -0.656250
v -0.218750 0.661520 -0.593750
v -0.156250 0.670299 -0.593750
v -0.093750 0.691406 -0.593750
v -0.031250 0.718750 -0.593750
v 0.031250 0.752324 -0.593750
v 0.093750 0.798073 -0.593750
v 0.156250 0.831349 -0.593750
v 0.218750 0.840488 -0.593750
v 0.281250 0.861673 -0.593750
v 0.343750 0.906729 -0.593750
v 0.406250 0.890202 -0.593750
v -0.218750 0.648908 -0.531250
v -0.156250 0.663939 -0.531250
v -0.093750 0.715663 -0.531250
v -0.031250 0.760798 -0.531250
v 0.031250 0.752032 -0.531250
v 0.093750 0.754687 -0.531250
v 0.156250 0.824448 -0.531250
v 0.218750 0.839774 -0.531250
v 0.281250 0.836719 -0.531250
v 0.343750 0.904560 -0.531250
v 0.406250 0.849362 -0.531250
v -0.218750 0.617956 -0.468750
v -0.156250 0.645299 -0.468750
v -0.093750 0.634413 -0.468750
v -0.031250 0.718682 -0.468750
v 0.031250 0.727324 -0.468750
v 0.093750 0.754665 -0.468750
v 0.156250 0.806785 -0.468750
v 0.218750 0.809341 -0.468750
v 0.281250 0.878844 -0.468750
v 0.343750 0.888451 -0.468750
v 0.406250 0.891270 -0.468750
v -0.218750 0.580022 -0.406250
v -0.156250 0.694439 -0.406250
v -0.093750 0.672656 -0.406250
v -0.031250 0.718596 -0.406250
v 0.031250 0.727344 -0.406250
v 0.093750 0.742096 -0.406250
v 0.156250 0.806594 -0.406250
v 0.218750 0.833829 -0.406250
v 0.281250 0.894781 -0.406250
v 0.343750 0.887980 -0.406250
v 0.406250 0.929123 -0.406250
v -0.218750 0.661110 -0.343750
v -0.156250 0.670094 -0.343750
v -0.093750 0.715663 -0.343750
v -0.031250 0.718596 -0.343750
v 0.031250 0.752032 -0.343750
v 0.093750 0.779323 -0.343750
v 0.156250 0.806594 -0.343750
v 0.218750 0.851463 -0.343750
v 0.281250 0.855060 -0.343750
v 0.343750 0.904560 -0.343750
v 0.406250 0.929123 -0.343750
v -0.218750 0.605022 -0.281250
v -0.156250 0.645094 -0.281250
v -0.093750 0.734610 -0.281250
v -0.031250 0.699727 -0.281250
v 0.031250 0.770918 -0.281250
v 0.093750 0.773415 -0.281250
v 0.156250 0.800754 -0.281250
v 0.218750 0.808829 -0.281250
v 0.281250 0.835993 -0.281250
v 0.343750 0.889063 -0.281250
v 0.406250 0.933952 -0.281250
v -0.218750 0.636719 -0.218750
v -0.156250 0.707143 -0.218750
v -0.093750 0.697641 -0.218750
v -0.031250 0.699846 -0.218750
v 0.031250 0.770782 -0.218750
v 0.093750 0.816075 -0.218750
v 0.156250 0.807004 -0.218750
v 0.218750 0.828125 -0.218750
v 0.281250 0.855469 -0.218750
v 0.343750 0.870040 -0.218750
v 0.406250 0.844463 -0.218750
v -0.218750 0.642969 -0.156250
v -0.156250 0.688939 -0.156250
v -0.093750 0.691391 -0.156250
v -0.031250 0.718733 -0.156250
v 0.031250 0.746074 -0.156250
v 0.093750 0.798233 -0.156250
v 0.156250 0.837599 -0.156250
v 0.218750 0.808829 -0.156250
v 0.281250 0.835993 -0.156250
v 0.343750 0.882744 -0.156250
v 0.406250 0.933952 -0.156250
v -0.218750 0.636719 -0.093750
v -0.156250 0.664062 -0.093750
v -0.093750 0.691406 -0.093750
v -0.031250 0.699846 -0.093750
v 0.031250 0.752324 -0.093750
v 0.093750 0.804119 -0.093750
v 0.156250 0.800781 -0.093750
v 0.218750 0.828125 -0.093750
v 0.281250 0.861673 -0.093750
v 0.343750 0.849879 -0.093750
v 0.406250 0.910156 -0.093750
v -0.218750 0.661520 -0.031250
v -0.156250 0.645190 -0.031250
v -0.093750 0.659777 -0.031250
v -0.031250 0.743477 -0.031250
v 0.031250 0.788889 -0.031250
v 0.093750 0.773438 -0.031250
v 0.156250 0.781785 -0.031250
v 0.218750 0.840488 -0.031250
v 0.281250 0.836310 -0.031250
v 0.343750 0.906729 -0.031250
v 0.406250 0.933050 -0.031250
v -0.218750 0.636607 0.031250
v -0.156250 0.670258 0.031250
v -0.093750 0.703891 0.031250
v -0.031250 0.743733 0.031250
v 0.031250 0.752266 0.031250
v 0.093750 0.798415 0.031250
v 0.156250 0.831922 0.031250
v 0.218750 0.808151 0.031250
v 0.281250 0.880423 0.031250
v 0.343750 0.888790 0.031250
v 0.406250 0.915865 0.031250
v -0.218750 0.642969 0.093750
v -0.156250 0.676549 0.093750
v -0.093750 0.691391 0.093750
v -0.031250 0.743596 0.093750
v 0.031250 0.770918 0.093750
v 0.093750 0.754323 0.093750
v 0.156250 0.825535 0.093750
v 0.218750 0.808829 0.093750
v 0.281250 0.897594 0.093750
v 0.343750 0.907201 0.093750
v 0.406250 0.933952 0.093750
v -0.218750 0.649169 0.156250
v -0.156250 0.689062 0.156250
v -0.093750 0.703846 0.156250
v -0.031250 0.731182 0.156250
v 0.031250 0.726389 0.156250
v 0.093750 0.785846 0.156250
v 0.156250 0.825781 0.156250
v 0.218750 0.834068 0.156250
v 0.281250 0.880469 0.156250
v 0.343750 0.860810 0.156250
v 0.406250 0.885373 0.156250
v -0.218750 0.617969 0.218750
v -0.156250 0.688393 0.218750
v -0.093750 0.691270 0.218750
v -0.031250 0.700000 0.218750
v 0.031250 0.727344 0.218750
v 0.093750 0.797325 0.218750
v 0.156250 0.806594 0.218750
v 0.218750 0.851463 0.218750
v 0.281250 0.878265 0.218750
v 0.343750 0.824155 0.218750
v 0.406250 0.929123 0.218750
v -0.218750 0.579464 0.281250
v -0.156250 0.670299 0.281250
v -0.093750 0.672520 0.281250
v -0.031250 0.718750 0.281250
v 0.031250 0.688268 0.281250
v 0.093750 0.754483 0.281250
v 0.156250 0.807004 0.281250
v 0.218750 0.809068 0.281250
v 0.281250 0.823087 0.281250
v 0.343750 0.882812 0.281250
v 0.406250 0.916270 0.281250
v -0.218750 0.661719 0.343750
v -0.156250 0.644643 0.343750
v -0.093750 0.747277 0.343750
v -0.031250 0.724846 0.343750
v 0.031250 0.745782 0.343750
v 0.093750 0.779482 0.343750
v 0.156250 0.767334 0.343750
v 0.218750 0.807713 0.343750
v 0.281250 0.834515 0.343750
v 0.343750 0.860810 0.343750
v 0.406250 0.908050 0.343750
v -0.218750 0.661719 0.406250
v -0.156250 0.670189 0.406250
v -0.093750 0.691163 0.406250
v -0.031250 0.699164 0.406250
v 0.031250 0.726389 0.406250
v 0.093750 0.753575 0.406250
v 0.156250 0.767334 0.406250
v 0.218750 0.827579 0.406250
v 0.281250 0.854743 0.406250
v 0.343750 0.937379 0.406250
v 0.406250 0.915202 0.406250
v -0.218750 0.605022 0.468750
v -0.156250 0.688939 0.468750
v -0.093750 0.697656 0.468750
v -0.031250 0.699727 0.468750
v 0.031250 0.770918 0.468750
v 0.093750 0.828236 0.468750
v 0.156250 0.781594 0.468750
v 0.218750 0.858829 0.468750
v 0.281250 0.835993 0.468750
v 0.343750 0.907201 0.468750
v 0.406250 0.889300 0.468750
v -0.218750 0.635714 0.531250
v -0.156250 0.668949 0.531250
v -0.093750 0.696142 0.531250
v -0.031250 0.723298 0.531250
v 0.031250 0.768977 0.531250
v 0.093750 0.771602 0.531250
v 0.156250 0.804324 0.531250
v 0.218750 0.849461 0.531250
v 0.281250 0.857281 0.531250
v 0.343750 0.877530 0.531250
v 0.406250 0.905080 0.531250
v -0.218750 0.642770 0.593750
v -0.156250 0.676221 0.593750
v -0.093750 0.697413 0.593750
v -0.031250 0.742914 0.593750
v 0.031250 0.799918 0.593750
v 0.093750 0.797325 0.593750
v 0.156250 0.782031 0.593750
v 0.218750 0.833829 0.593750
v 0.281250 0.836719 0.593750
v 0.343750 0.864062 0.593750
v 0.406250 0.914300 0.593750
v -0.218750 0.578783 0.656250
v -0.156250 0.644643 0.656250
v -0.093750 0.671913 0.656250
v -0.031250 0.724846 0.656250
v 0.031250 0.745782 0.656250
v 0.093750 0.753575 0.656250
v 0.156250 0.806785 0.656250
v 0.218750 0.840488 0.656250
v 0.281250 0.834515 0.656250
v 0.343750 0.846280 0.656250
v 0.406250 0.915202 0.656250
v -0.218750 0.661719 0.718750
v -0.156250 0.644643 0.718750
v -0.093750 0.697520 0.718750
v -0.031250 0.718477 0.718750
v 0.031250 0.771094 0.718750
v 0.093750 0.773073 0.718750
v 0.156250 0.806785 0.718750
v 0.218750 0.840488 0.718750
v 0.281250 0.854743 0.718750
v 0.343750 0.907812 0.718750
v 0.406250 0.935156 0.718750
v -0.218750 0.661272 0.781250
v -0.156250 0.645299 0.781250
v -0.093750 0.715860 0.781250
v -0.031250 0.661664 0.781250
v 0.031250 0.770392 0.781250
v 0.093750 0.785573 0.781250
v 0.156250 0.812844 0.781250
v 0.218750 0.809341 0.781250
v 0.281250 0.878844 0.781250
v 0.343750 0.863994 0.781250
v 0.406250 0.891270 0.781250
v -0.218750 0.661520 0.843750
v -0.156250 0.707143 0.843750
v -0.093750 0.697641 0.843750
v -0.031250 0.724983 0.843750
v 0.031250 0.752324 0.843750
v 0.093750 0.754483 0.843750
v 0.156250 0.781785 0.843750
v 0.218750 0.828125 0.843750
v 0.281250 0.836310 0.843750
v 0.343750 0.863451 0.843750
v 0.406250 0.933050 0.843750
v -0.218750 0.636520 0.906250
v -0.156250 0.670189 0.906250
v -0.093750 0.697520 0.906250
v -0.031250 0.699164 0.906250
v 0.031250 0.752168 0.906250
v 0.093750 0.785846 0.906250
v 0.156250 0.780698 0.906250
v 0.218750 0.827579 0.906250
v 0.281250 0.898810 0.906250
v 0.343750 0.860810 0.906250
v 0.406250 0.915202 0.906250
v -0.218750 0.641728 0.968750
v -0.156250 0.687699 0.968750
v -0.093750 0.702331 0.968750
v -0.031250 0.742048 0.968750
v 0.031250 0.750400 0.968750
v 0.093750 0.796174 0.968750
v 0.156250 0.804324 0.968750
v 0.218750 0.808151 0.968750
v 0.281250 0.857281 0.968750
v 0.343750 0.861655 0.968750
v 0.406250 0.900713 0.968750
v -0.281250 0.634375 0.906250
v -0.281250 0.609329 0.781250
v -0.281250 0.609193 0.718750
v -0.281250 0.609272 0.593750
v -0.281250 0.590067 0.406250
v -0.281250 0.634375 0.343750
v -0.281250 0.609375 0.281250
v -0.281250 0.590067 0.156250
v -0.281250 0.609375 -0.093750
v -0.281250 0.590443 -0.156250
v -0.281250 0.609375 -0.218750
v -0.281250 0.615625 -0.281250
v -0.281250 0.590625 -0.343750
v -0.281250 0.609375 -0.656250
v -0.281250 0.609193 -0.718750
v -0.281250 0.590625 -0.843750
v -0.468750 0.533585 -0.968750
v -0.406250 0.579531 -0.968750
v -0.343750 0.606863 -0.968750
v -0.468750 0.552198 -0.906250
v -0.406250 0.535850 -0.906250
v -0.343750 0.600687 -0.906250
v -0.468750 0.508594 -0.843750
v -0.406250 0.535937 -0.843750
v -0.343750 0.606516 -0.843750
v -0.468750 0.570948 -0.781250
v -0.406250 0.579678 -0.781250
v -0.343750 0.588239 -0.781250
v -0.468750 0.533512 -0.718750
v -0.406250 0.496791 -0.718750
v -0.343750 0.588187 -0.718750
v -0.468750 0.527344 -0.656250
v -0.406250 0.560928 -0.656250
v -0.343750 0.588271 -0.656250
v -0.468750 0.533585 -0.593750
v -0.406250 0.579531 -0.593750
v -0.343750 0.563187 -0.593750
v -0.468750 0.508594 -0.531250
v -0.406250 0.579209 -0.531250
v -0.343750 0.525403 -0.531250
v -0.468750 0.552016 -0.468750
v -0.406250 0.560850 -0.468750
v -0.343750 0.563271 -0.468750
v -0.468750 0.570183 -0.406250
v -0.406250 0.560781 -0.406250
v -0.343750 0.606516 -0.406250
v -0.468750 0.527262 -0.343750
v -0.406250 0.579209 -0.343750
v -0.343750 0.606516 -0.343750
v -0.468750 0.508448 -0.281250
v -0.406250 0.560938 -0.281250
v -0.343750 0.606937 -0.281250
v -0.468750 0.527344 -0.218750
v -0.406250 0.542148 -0.218750
v -0.343750 0.524930 -0.218750
v -0.468750 0.508448 -0.156250
v -0.406250 0.554678 -0.156250
v -0.343750 0.606937 -0.156250
v -0.468750 0.533585 -0.093750
v -0.406250 0.523193 -0.093750
v -0.343750 0.582031 -0.093750
v -0.468750 0.508512 -0.031250
v -0.406250 0.579531 -0.031250
v -0.343750 0.606863 -0.031250
v -0.468750 0.552335 0.031250
v -0.406250 0.560898 0.031250
v -0.343750 0.588239 0.031250
v -0.468750 0.570766 0.093750
v -0.406250 0.579600 0.093750
v -0.343750 0.606937 0.093750
v -0.468750 0.552344 0.156250
v -0.406250 0.535459 0.156250
v -0.343750 0.562766 0.156250
v -0.468750 0.551897 0.218750
v -0.406250 0.498086 0.218750
v -0.343750 0.606516 0.218750
v -0.468750 0.495866 0.281250
v -0.406250 0.554688 0.281250
v -0.343750 0.588271 0.281250
v -0.468750 0.508147 0.343750
v -0.406250 0.535459 0.343750
v -0.343750 0.581863 0.343750
v -0.468750 0.527198 0.406250
v -0.406250 0.610693 0.406250
v -0.343750 0.588187 0.406250
v -0.468750 0.508448 0.468750
v -0.406250 0.579600 0.468750
v -0.343750 0.563113 0.468750
v -0.468750 0.532683 0.531250
v -0.406250 0.553897 0.531250
v -0.343750 0.587231 0.531250
v -0.468750 0.508594 0.593750
v -0.406250 0.535937 0.593750
v -0.343750 0.588113 0.593750
v -0.468750 0.508147 0.656250
v -0.406250 0.522647 0.656250
v -0.343750 0.588187 0.656250
v -0.468750 0.527198 0.718750
v -0.406250 0.579687 0.718750
v -0.343750 0.607031 0.718750
v -0.468750 0.552016 0.781250
v -0.406250 0.535928 0.781250
v -0.343750 0.563271 0.781250
v -0.468750 0.508512 0.843750
v -0.406250 0.535850 0.843750
v -0.343750 0.606863 0.843750
v -0.468750 0.571012 0.906250
v -0.406250 0.535459 0.906250
v -0.343750 0.588187 0.906250
v -0.468750 0.532683 0.968750
v -0.406250 0.535586 0.968750
v -0.343750 0.581180 0.968750
vn -0.0710 0.9975 -0.0000
vn -0.1485 0.9472 0.2842
vn 0.1603 0.9656 0.2048
vn -0.5408 0.8370 -0.0837
vn -0.6034 0.7973 -0.0136
vn -0.2991 0.8807 0.3673
vn -0.5352 0.7072 0.4621
vn -0.7414 0.6678 -0.0668
vn -0.4191 0.7766 -0.4703
vn 0.1637 0.9865 -0.0000
vn 0.1633 0.9837 -0.0760
vn -0.0894 0.5703 0.8166
vn -0.8288 0.5568 -0.0557
vn -0.1541 0.9831 0.0983
vn -0.3800 0.8686 -0.3182
vn -0.0685 0.9620 0.2645
vn -0.5274 0.8161 -0.2362
vn -0.1228 0.7836 0.6090
vn -0.7110 0.5761 -0.4033
vn 0.1605 0.9668 0.1988
vn -0.3008 0.8855 -0.3542
vn -0.6569 0.7540 -0.0000
vn -0.5730 0.7571 0.3138
vn -0.5245 0.6020 0.6020
vn 0.3529 0.9256 -0.1365
vn -0.0710 0.9974 -0.0144
vn -0.6034 0.7974 -0.0000
vn -0.3371 0.7705 0.5410
vn -0.4094 0.7585 -0.5070
vn -0.0683 0.9593 0.2739
vn -0.4190 0.5536 0.7197
vn -0.6434 0.7655 -0.0017
vn -0.4605 0.8548 -0.2395
vn -0.3881 0.8875 -0.2486
vn -0.0262 0.9967 -0.0767
vn -0.6466 0.7625 0.0216
vn -0.4694 0.8712 -0.1440
vn 0.0810 0.9834 -0.1625
vn -0.5744 0.7657 -0.2895
vn -0.7364 0.6461 0.2008
vn 0.5195 0.8544 -0.0116
vn -0.6565 0.7543 -0.0102
vn -0.8681 0.4963 -0.0020
vn -0.5610 0.7686 0.3074
vn 0.1503 0.9886 0.0019
vn -0.3748 0.8569 0.3540
vn -0.0345 0.9994 0.0025
vn -0.3637 0.8326 -0.4178
vn -0.5955 0.8032 0.0140
vn -0.0922 0.7041 -0.7041
vn -0.2935 0.6760 -0.6760
vn -0.7437 0.6679 0.0282
vn 0.2476 0.9689 -0.0038
vn -0.7350 0.6510 0.1898
vn 0.6398 0.7378 0.2151
vn -0.8581 0.4933 0.1426
vn -0.2125 0.8749 0.4352
vn -0.3639 0.8340 0.4149
vn 0.0536 0.9563 -0.2874
vn -0.7290 0.6555 -0.1970
vn 0.2312 0.9729 0.0085
vn -0.3411 0.7815 -0.5224
vn 0.6364 0.7155 0.2883
vn 0.2635 0.9646 0.0069
vn -0.6303 0.7450 -0.2186
vn -0.2408 0.7182 0.6528
vn -0.5288 0.6281 0.5709
vn -0.0317 0.9994 0.0112
vn -0.4730 0.8769 -0.0850
vn -0.4347 0.8060 0.4017
vn -0.2000 0.8769 0.4370
vn -0.5709 0.6723 0.4713
vn -0.3372 0.7708 0.5404
vn -0.3507 0.6544 0.6699
vn -0.5356 0.5082 -0.6744
vn -0.3744 0.8581 -0.3515
vn -0.6443 0.7608 0.0775
vn -0.2965 0.8852 -0.3585
vn -0.1148 0.9207 -0.3729
vn -0.6483 0.7614 -0.0000
vn -0.4746 0.8802 -0.0000
vn 0.0951 0.9955 -0.0000
vn -0.1330 0.7063 -0.6953
vn -0.7243 0.6568 -0.2097
vn -0.4711 0.8790 0.0733
vn -0.3503 0.6545 0.6700
vn -0.2995 0.8834 0.3604
vn -0.5589 0.7678 0.3133
vn -0.6590 0.7226 0.2089
vn 0.0340 0.8188 0.5731
vn 0.2218 0.9066 -0.3591
vn -0.6360 0.7674 -0.0818
vn -0.0459 0.9933 -0.1058
vn -0.3879 0.8865 0.2522
vn -0.6116 0.7609 0.2165
vn -0.3361 0.7683 0.5447
vn -0.4670 0.8783 -0.1022
vn -0.3967 0.9118 -0.1061
vn -0.3830 0.8814 -0.2766
vn -0.5479 0.7497 -0.3711
vn -0.0376 0.8956 -0.4434
vn -0.4358 0.8323 -0.3426
vn -0.5624 0.7788 0.2778
vn -0.1180 0.9433 0.3103
vn -0.3019 0.9319 0.2008
vn -0.3957 0.8978 0.1935
vn 0.0514 0.7397 0.6710
vn -0.7878 0.5867 0.1877
vn -0.1381 0.9901 0.0240
vn -0.0331 0.9992 0.0242
vn -0.7513 0.6596 0.0205
vn -0.6757 0.7368 0.0229
vn 0.5742 0.7694 -0.2798
vn -0.7739 0.6263 0.0939
vn 0.3398 0.9301 0.1394
vn -0.7333 0.6436 -0.2192
vn 0.2505 0.8746 0.4152
vn -0.0999 0.7369 0.6685
vn -0.3060 0.9119 -0.2736
vn -0.1263 0.9867 -0.1025
vn -0.3343 0.7676 -0.5469
vn -0.2689 0.6182 -0.7385
vn -0.1399 0.6356 -0.7592
vn -0.6530 0.6774 -0.3387
vn -0.3623 0.8337 -0.4168
vn -0.7848 0.5936 0.1781
vn 0.3115 0.8778 0.3638
vn 0.4061 0.8485 -0.3394
vn 0.2635 0.9646 -0.0000
vn -0.8354 0.5087 -0.2079
vn 0.3150 0.8779 0.3607
vn -0.3047 0.9097 0.2822
vn -0.4578 0.8491 0.2635
vn 0.1908 0.9816 -0.0000
vn -0.5243 0.8115 -0.2580
vn -0.3783 0.8822 -0.2804
vn -0.2571 0.6111 -0.7487
vn -0.4312 0.5705 -0.6990
vn -0.4570 0.8499 0.2624
vn -0.8024 0.5521 0.2266
vn -0.0228 0.6412 -0.7670
vn -0.4286 0.5795 -0.6931
vn 0.4367 0.8954 -0.0873
vn -0.7013 0.6619 -0.2648
vn -0.5786 0.6886 0.4371
vn -0.0330 0.9992 0.0217
vn -0.2188 0.9755 0.0211
vn -0.6849 0.7167 -0.1311
vn -0.4507 0.8420 0.2964
vn -0.3645 0.8332 0.4159
vn -0.6923 0.6144 0.3785
vn -0.0440 0.9569 0.2871
vn -0.1326 0.9494 0.2848
vn -0.3478 0.7950 0.4970
vn -0.6885 0.6149 0.3845
vn -0.1214 0.8187 0.5612
vn -0.5108 0.7115 0.4826
vn -0.3061 0.7137 0.6301
vn 0.5444 0.6288 0.5552
vn -0.8545 0.5088 0.1046
vn -0.4959 0.7769 0.3879
vn -0.2259 0.9550 0.1922
vn -0.3645 0.8333 0.4157
vn 0.0764 0.9970 -0.0152
vn -0.6832 0.7182 -0.1319
vn -0.5213 0.8158 0.2504
vn -0.1257 0.9484 0.2911
vn -0.5959 0.8026 0.0283
vn 0.2619 0.8325 0.4882
vn -0.3065 0.7798 -0.5459
vn -0.3862 0.8828 -0.2674
vn -0.4661 0.8675 -0.1737
vn -0.2268 0.9550 -0.1912
vn -0.6337 0.7587 -0.1512
vn -0.3354 0.7673 0.5466
vn 0.2307 0.8688 -0.4382
vn -0.7516 0.6596 -0.0026
vn 0.2582 0.9661 -0.0038
vn -0.8077 0.5687 0.1558
vn -0.1225 0.7969 0.5915
vn -0.3250 0.7594 0.5637
vn -0.6243 0.7483 -0.2245
vn -0.4722 0.8771 -0.0883
vn -0.4667 0.8672 0.1734
vn -0.5301 0.8315 0.1663
vn -0.1353 0.9908 0.0022
vn -0.5166 0.6996 0.4936
vn -0.4013 0.7485 0.5280
vn 0.3555 0.9346 -0.0101
vn -0.7445 0.6438 -0.1769
vn -0.1280 0.9563 -0.2627
vn -0.3837 0.8858 -0.2609
vn -0.3767 0.8610 -0.3417
vn 0.2359 0.9027 0.3598
vn -0.2117 0.9071 -0.3638
vn -0.8013 0.5983 -0.0025
vn -0.5878 0.8090 -0.0033
vn 0.2238 0.9050 -0.3617
vn -0.1231 0.9215 -0.3683
vn -0.5910 0.6292 -0.5048
vn 0.0545 0.8158 -0.5758
vn -0.7347 0.6521 0.1872
vn -0.3752 0.8910 0.2557
vn -0.3636 0.8312 0.4206
vn -0.1101 0.8150 -0.5689
vn -0.5868 0.6989 -0.4089
vn -0.5818 0.7020 -0.4107
vn 0.0510 0.9555 0.2904
vn -0.3861 0.8826 0.2682
vn -0.4453 0.8297 0.3367
vn 0.1383 0.7326 -0.6664
vn -0.6713 0.6960 -0.2549
vn -0.3862 0.8828 0.2674
vn -0.5906 0.8030 0.0803
vn -0.0392 0.9992 -0.0002
vn -0.3863 0.8830 0.2668
vn -0.6391 0.7658 -0.0721
vn -0.4770 0.7573 0.4461
vn 0.4026 0.8746 -0.2700
vn -0.3730 0.8582 -0.3526
vn -0.5520 0.7380 0.3881
vn -0.5871 0.7165 0.3768
vn 0.1665 0.9812 0.0981
vn -0.7463 0.6623 -0.0662
vn 0.1496 0.9838 0.0984
vn -0.0351 0.9944 0.0994
vn -0.7358 0.6483 -0.1959
vn -0.5589 0.7712 0.3049
vn 0.1382 0.9524 0.2719
vn -0.2904 0.8594 -0.4207
vn -0.3857 0.8816 0.2722
vn -0.2173 0.9319 0.2904
vn 0.3722 0.9095 -0.1849
vn -0.7232 0.6413 -0.2565
vn -0.4141 0.6459 -0.6413
vn -0.7766 0.5422 0.3207
vn 0.4874 0.8732 -0.0017
vn -0.7515 0.6597 -0.0013
vn -0.0399 0.9992 0.0022
vn -0.3398 0.7768 -0.5302
vn -0.1275 0.9869 -0.0987
vn -0.3835 0.8824 -0.2724
vn -0.6297 0.7416 -0.2311
vn -0.3803 0.5296 0.7582
vn -0.7482 0.6635 -0.0000
vn -0.1323 0.9203 0.3681
vn -0.5606 0.7689 0.3075
vn -0.0449 0.9560 -0.2898
vn -0.4558 0.8521 0.2573
vn -0.3857 0.8832 -0.2669
vn -0.3984 0.9131 0.0863
vn -0.5815 0.8100 0.0757
vn -0.0550 0.9550 0.2914
vn -0.6038 0.7624 0.2326
vn -0.3564 0.9069 0.2249
vn -0.4586 0.8515 -0.2543
vn -0.8627 0.4712 0.1836
vn 0.3089 0.8862 0.3452
vn -0.5180 0.7047 -0.4849
vn -0.1386 0.9903 -0.0000
vn -0.2144 0.9084 -0.3588
vn -0.7181 0.6959 -0.0000
vn -0.3868 0.8875 -0.2504
vn -0.6844 0.7017 -0.1980
vn 0.1046 0.9613 -0.2550
vn -0.5498 0.8353 -0.0000
vn -0.6802 0.7294 -0.0729
vn -0.3252 0.7434 -0.5845
vn 0.1357 0.7789 -0.6124
vn -0.8032 0.5957 0.0008
vn -0.1370 0.9906 0.0014
vn -0.3941 0.9010 0.1812
vn -0.6330 0.7590 0.1526
vn -0.0409 0.9992 0.0031
vn -0.7330 0.6591 -0.1681
vn -0.1473 0.9584 -0.2444
vn -0.0451 0.9990 0.0075
vn -0.6243 0.7483 0.2245
vn -0.2246 0.9338 0.2785
vn -0.4505 0.5443 0.7076
vn -0.4030 0.5580 0.7254
vn 0.1293 0.9222 0.3645
vn -0.0425 0.9991 0.0004
vn -0.7448 0.6673 0.0002
vn -0.2153 0.8780 0.4275
vn 0.0405 0.8285 -0.5584
vn -0.7245 0.6675 0.1720
vn 0.6499 0.7359 0.1897
vn -0.6406 0.7678 -0.0000
vn -0.1384 0.9853 0.1003
vn -0.3003 0.8892 -0.3451
vn -0.3412 0.7799 -0.5247
vn -0.4071 0.7578 -0.5098
vn -0.5153 0.7040 0.4887
vn -0.4007 0.7526 0.5225
vn -0.1447 0.9894 0.0113
vn -0.3003 0.8859 0.3537
vn -0.5563 0.7717 0.3081
vn 0.2161 0.8173 0.5341
vn -0.3865 0.8842 0.2624
vn 0.4072 0.8756 0.2598
vn -0.6863 0.7273 -0.0000
vn -0.3992 0.9124 -0.0910
vn -0.3770 0.8617 -0.3397
vn -0.3658 0.8361 -0.4089
vn -0.4345 0.8091 -0.3957
vn -0.3189 0.9432 -0.0928
vn -0.4586 0.8549 -0.2426
vn -0.3736 0.8561 0.3571
vn -0.2161 0.9342 -0.2837
vn -0.0274 0.9578 -0.2860
vn -0.5193 0.6977 -0.4934
vn -0.3638 0.8324 0.4180
vn -0.4003 0.9164 -0.0040
vn 0.0865 0.9962 -0.0050
vn -0.3565 0.8257 -0.4371
vn -0.7959 0.5798 0.1743
vn -0.1293 0.9873 0.0923
vn 0.5851 0.8075 0.0755
vn -0.8460 0.5331 -0.0091
vn -0.6714 0.7081 0.2186
vn -0.4575 0.8496 0.2623
vn -0.0285 0.9943 0.1023
vn -0.6439 0.7610 0.0790
vn -0.3473 0.7942 0.4987
vn -0.3472 0.7942 0.4987
vn -0.0160 0.8116 -0.5840
vn -0.7790 0.5389 0.3206
vn -0.0831 0.5612 0.8235
vn -0.0730 0.5616 0.8242
vn -0.1061 0.7380 0.6664
vn 0.1572 0.9828 0.0968
vn -0.4802 0.7521 -0.4513
vn -0.5901 0.8032 -0.0816
vn -0.3987 0.9124 -0.0927
vn -0.6319 0.7711 -0.0785
vn -0.1375 0.9162 0.3764
vn -0.0329 0.7108 -0.7026
vn -0.2971 0.6791 -0.6712
vn -0.7135 0.6854 0.1454
vn 0.6312 0.7209 0.2862
vn -0.3085 0.9135 -0.2653
vn -0.3643 0.8326 0.4171
vn -0.4945 0.7771 0.3893
vn 0.0614 0.9560 -0.2868
vn -0.7047 0.6796 -0.2039
vn -0.1305 0.9272 -0.3511
vn -0.1231 0.9281 -0.3514
vn -0.7246 0.6408 -0.2539
vn 0.2522 0.9676 -0.0095
vn -0.7167 0.6972 -0.0158
vn 0.2454 0.9652 -0.0900
vn -0.8519 0.4868 0.1930
vn -0.1387 0.9854 0.0983
vn -0.3145 0.9310 -0.1852
vn -0.5638 0.6773 0.4726
vn 0.2182 0.8368 -0.5021
vn -0.6415 0.7634 0.0760
vn 0.1722 0.9802 0.0976
vn -0.7103 0.6762 -0.1955
vn -0.5099 0.7072 0.4897
vn -0.3272 0.7769 0.5380
vn -0.1543 0.9844 0.0842
vn 0.1637 0.9863 -0.0224
vn -0.4847 0.7501 -0.4500
vn -0.6034 0.7974 0.0085
vn -0.3008 0.8855 0.3542
vn -0.7285 0.6562 0.1969
vn -0.4090 0.7579 -0.5082
vn 0.1629 0.9817 0.0982
vn -0.1440 0.9188 -0.3675
vn -0.8288 0.5568 0.0557
vn -0.0894 0.5703 -0.8166
vn -0.3785 0.8650 0.3294
vn -0.5263 0.8145 -0.2443
vn -0.1519 0.9692 0.1938
vn -0.7634 0.6186 -0.1856
vn 0.1347 0.8118 0.5682
vn -0.3094 0.9108 -0.2732
vn -0.6537 0.7503 0.0987
vn -0.6009 0.7941 -0.0909
vn -0.6407 0.7354 0.2206
vn 0.3467 0.9094 -0.2296
vn -0.0609 0.8559 -0.5135
vn -0.5269 0.6963 -0.4874
vn -0.3847 0.8793 -0.2807
vn -0.4200 0.7782 0.4669
vn -0.0696 0.9782 -0.1956
vn -0.5749 0.7597 -0.3039
vn 0.2903 0.9322 0.2161
vn -0.5912 0.8038 -0.0670
vn -0.2273 0.9709 -0.0748
vn -0.4641 0.7304 -0.5011
vn -0.1095 0.8196 -0.5624
vn -0.5907 0.8066 0.0228
vn -0.1211 0.9285 -0.3510
vn -0.0584 0.9533 0.2963
vn -0.5478 0.6968 0.4630
vn -0.0582 0.8315 0.5525
vn -0.5200 0.8321 0.1929
vn -0.4207 0.7809 0.4617
vn -0.3523 0.8056 0.4763
vn -0.0263 0.9997 0.0019
vn -0.6468 0.7627 0.0019
vn -0.4339 0.8053 -0.4041
vn 0.0821 0.9965 0.0173
vn -0.6000 0.7999 0.0070
vn -0.7517 0.6595 0.0058
vn 0.5192 0.8539 0.0361
vn -0.6418 0.7374 0.2106
vn 0.0691 0.9943 -0.0815
vn -0.4606 0.6309 -0.6243
vn 0.1074 0.7067 -0.6993
vn -0.2938 0.6715 -0.6803
vn -0.0332 0.9601 0.2776
vn -0.3643 0.8340 0.4144
vn -0.5531 0.7460 0.3707
vn -0.1076 0.8219 0.5594
vn -0.3379 0.7781 0.5295
vn -0.7440 0.6681 0.0058
vn 0.2476 0.9688 -0.0102
vn -0.7486 0.6630 -0.0070
vn 0.6396 0.7376 -0.2164
vn -0.8670 0.4984 0.0056
vn -0.2317 0.9539 -0.1908
vn -0.3934 0.9015 -0.1803
vn 0.0557 0.9938 -0.0963
vn -0.7200 0.6475 -0.2497
vn 0.2164 0.9109 -0.3513
vn -0.3363 0.7707 0.5412
vn -0.6459 0.7634 -0.0000
vn -0.2963 0.8838 -0.3621
vn -0.6421 0.7627 0.0777
vn -0.0302 0.9542 -0.2977
vn -0.4578 0.8487 -0.2648
vn -0.2121 0.9298 -0.3009
vn -0.6284 0.7401 -0.2395
vn -0.2976 0.6803 -0.6698
vn -0.6851 0.6502 0.3285
vn -0.3629 0.8317 0.4202
vn -0.6311 0.7452 0.2154
vn -0.2454 0.7327 0.6347
vn -0.0938 0.7525 0.6518
vn -0.5721 0.6719 0.4704
vn -0.4482 0.8311 -0.3292
vn 0.0951 0.9949 0.0351
vn -0.1849 0.9822 0.0346
vn -0.7407 0.6717 -0.0097
vn -0.4696 0.8773 -0.0991
vn -0.3211 0.9469 -0.0193
vn -0.5885 0.8083 -0.0164
vn -0.6565 0.7197 -0.2259
vn 0.0383 0.9241 -0.3803
vn 0.2246 0.9178 0.3274
vn -0.6266 0.7561 0.1891
vn -0.0448 0.9691 0.2424
vn -0.3838 0.8772 0.2886
vn -0.6224 0.7743 -0.1142
vn -0.4308 0.8101 -0.3978
vn -0.3828 0.8799 0.2814
vn -0.3766 0.8668 -0.3269
vn -0.5645 0.7723 -0.2913
vn -0.0311 0.7407 0.6711
vn -0.3617 0.6909 0.6260
vn -0.5616 0.7776 -0.2828
vn -0.1176 0.9400 -0.3202
vn -0.2809 0.8670 0.4116
vn -0.3930 0.8916 -0.2251
vn -0.3491 0.7978 0.4915
vn -0.7894 0.5880 -0.1764
vn -0.1374 0.9852 -0.1024
vn -0.0331 0.9994 -0.0090
vn -0.7515 0.6597 -0.0059
vn -0.5984 0.6525 -0.4649
vn 0.5883 0.7884 -0.1799
vn -0.7695 0.6227 -0.1421
vn 0.3303 0.9041 0.2712
vn -0.7161 0.6285 0.3035
vn 0.2497 0.8720 0.4210
vn -0.1245 0.9185 -0.3754
vn -0.2423 0.7219 0.6482
vn -0.0948 0.7407 0.6651
vn -0.3737 0.8579 0.3525
vn -0.3728 0.8572 0.3553
vn -0.1993 0.9052 0.3752
vn -0.6940 0.7200 -0.0000
vn -0.3821 0.8792 -0.2845
vn -0.7828 0.5920 -0.1916
vn 0.3325 0.9370 -0.1072
vn 0.1631 0.5969 -0.7856
vn -0.8353 0.5087 0.2088
vn 0.3364 0.9373 -0.0914
vn -0.2393 0.7145 -0.6575
vn -0.3688 0.6840 -0.6294
vn 0.1776 0.9137 -0.3655
vn -0.4789 0.7412 0.4705
vn -0.3887 0.9063 -0.1657
vn -0.3689 0.8767 0.3087
vn -0.5997 0.7934 0.1043
vn -0.8130 0.5594 0.1619
vn -0.0341 0.9600 0.2779
vn -0.5781 0.7816 -0.2345
vn 0.4232 0.8678 -0.2603
vn -0.6580 0.6211 0.4257
vn -0.6433 0.7656 -0.0050
vn -0.0330 0.9994 -0.0065
vn -0.1825 0.8137 0.5519
vn -0.5717 0.5983 -0.5615
vn -0.3636 0.6793 -0.6375
vn -0.1338 0.9859 -0.1004
vn -0.7479 0.6638 0.0071
vn -0.0460 0.9989 0.0107
vn -0.1357 0.9713 0.1954
vn -0.3645 0.8332 0.4157
vn -0.7458 0.6661 -0.0102
vn -0.1443 0.9732 -0.1787
vn -0.5688 0.7923 -0.2205
vn -0.3818 0.8904 -0.2478
vn 0.6543 0.7558 0.0266
vn -0.8230 0.4900 0.2874
vn -0.5362 0.8400 -0.0833
vn -0.2260 0.9554 -0.1904
vn -0.3942 0.9014 0.1790
vn 0.0750 0.9781 0.1943
vn -0.6125 0.6438 0.4587
vn -0.4955 0.7755 -0.3912
vn -0.1220 0.9203 -0.3716
vn -0.5670 0.7638 -0.3084
vn 0.2903 0.9229 0.2529
vn -0.2964 0.7541 0.5861
vn -0.4714 0.8774 -0.0893
vn -0.2299 0.9683 -0.0975
vn -0.6411 0.7675 0.0017
vn -0.3864 0.8838 -0.2638
vn 0.2466 0.9287 -0.2771
vn -0.7499 0.6581 0.0673
vn 0.2570 0.9614 0.0982
vn -0.8176 0.5757 -0.0062
vn -0.1459 0.9490 -0.2795
vn -0.3803 0.8884 -0.2571
vn -0.4470 0.8302 -0.3330
vn -0.4025 0.7479 -0.5279
vn -0.4619 0.7246 -0.5114
vn -0.1170 0.8569 0.5021
vn -0.5373 0.7277 0.4264
vn -0.3858 0.7196 -0.5773
vn 0.3200 0.8415 0.4354
vn -0.7165 0.6196 0.3206
vn -0.1087 0.8121 -0.5732
vn -0.3854 0.8897 0.2446
vn -0.2771 0.8214 0.4985
vn 0.2427 0.9287 0.2804
vn -0.2181 0.9343 0.2821
vn -0.7669 0.5726 0.2898
vn -0.5118 0.7044 -0.4917
vn 0.2167 0.8763 0.4302
vn -0.1190 0.8913 0.4375
vn -0.6776 0.7214 -0.1427
vn 0.0654 0.9789 -0.1936
vn -0.7222 0.6409 0.2601
vn -0.2974 0.7063 -0.6424
vn -0.3766 0.8607 0.3426
vn -0.1338 0.9910 -0.0002
vn -0.6412 0.7636 -0.0764
vn -0.6362 0.7677 -0.0768
vn 0.0531 0.9942 -0.0936
vn -0.3527 0.8062 0.4749
vn -0.4564 0.8502 -0.2625
vn 0.1719 0.9112 -0.3744
vn -0.6695 0.6942 0.2643
vn -0.5768 0.7843 0.2284
vn -0.0376 0.9594 0.2794
vn -0.3863 0.8830 -0.2668
vn -0.3768 0.8614 0.3405
vn -0.6259 0.7500 0.2141
vn -0.4924 0.7817 -0.3827
vn 0.4026 0.8746 0.2700
vn -0.3833 0.8818 0.2748
vn -0.5912 0.7904 -0.1607
vn -0.4247 0.5184 -0.7422
vn -0.7088 0.6291 -0.3190
vn 0.1073 0.7056 -0.7005
vn -0.0304 0.8603 0.5089
vn -0.7503 0.6611 0.0014
vn -0.5136 0.7087 -0.4837
vn 0.1429 0.9848 -0.0985
vn -0.3073 0.9093 -0.2807
vn -0.3854 0.8810 -0.2745
vn -0.2177 0.9337 0.2842
vn 0.3646 0.8908 0.2711
vn -0.4307 0.6717 0.6028
vn -0.8079 0.5640 -0.1710
vn 0.4713 0.8444 0.2549
vn -0.7370 0.6470 -0.1955
vn -0.0397 0.9948 0.0940
vn -0.3993 0.9128 0.0853
vn -0.1061 0.8214 0.5603
vn -0.3379 0.7775 0.5304
vn -0.6360 0.7490 0.1857
vn -0.5822 0.8106 -0.0626
vn -0.0874 0.6081 -0.7890
vn -0.5149 0.7062 -0.4859
vn -0.0469 0.9989 -0.0000
vn -0.4455 0.8327 -0.3289
vn -0.3513 0.8044 -0.4791
vn -0.3510 0.8045 -0.4792
vn -0.5832 0.8123 -0.0000
vn -0.0485 0.8430 0.5358
vn -0.5557 0.7017 0.4459
vn -0.3551 0.9036 -0.2397
vn -0.8427 0.4603 0.2794
vn 0.2850 0.8176 -0.5003
vn -0.5312 0.7227 -0.4422
vn -0.1386 0.9903 -0.0003
vn -0.2297 0.9733 -0.0003
vn -0.7181 0.6959 0.0021
vn -0.3760 0.8628 -0.3380
vn -0.6722 0.6893 -0.2701
vn 0.1082 0.9941 0.0075
vn -0.4906 0.7453 -0.4514
vn -0.3650 0.8343 0.4132
vn 0.1646 0.9452 0.2819
vn -0.7454 0.5528 0.3725
vn -0.1139 0.8239 0.5552
vn -0.6259 0.7505 0.2121
vn -0.0393 0.9616 0.2717
vn -0.7070 0.6358 0.3096
vn -0.1264 0.8226 -0.5544
vn -0.0374 0.8300 -0.5565
vn -0.2295 0.9541 0.1925
vn -0.6356 0.7680 0.0781
vn -0.5585 0.7733 -0.3001
vn 0.1389 0.9903 0.0046
vn -0.0425 0.9991 0.0047
vn -0.7428 0.6655 0.0735
vn -0.2368 0.9657 0.1066
vn 0.0488 0.9987 0.0114
vn -0.7353 0.6774 0.0235
vn 0.6617 0.7493 0.0260
vn -0.1692 0.7315 0.6605
vn -0.1391 0.9903 -0.0000
vn -0.2885 0.8543 -0.4323
vn -0.3636 0.8312 -0.4206
vn -0.4732 0.8809 -0.0000
vn -0.5888 0.8043 -0.0802
vn -0.4439 0.8337 -0.3286
vn -0.1440 0.9848 -0.0969
vn -0.3196 0.9429 -0.0936
vn -0.5829 0.8086 -0.0803
vn 0.2465 0.9323 -0.2646
vn -0.3362 0.7689 -0.5438
vn 0.3838 0.8252 0.4144
vn -0.6863 0.7273 -0.0032
vn -0.4008 0.9161 -0.0046
vn -0.3606 0.8243 -0.4364
vn -0.3599 0.8226 -0.4402
vn -0.4279 0.7969 -0.4265
vn -0.3080 0.9111 0.2738
vn -0.3295 0.6142 -0.7171
vn -0.2731 0.6258 -0.7306
vn -0.0244 0.8531 -0.5212
vn -0.5951 0.7995 0.0823
vn -0.3856 0.8824 -0.2695
vn -0.3855 0.8824 -0.2696
vn 0.0861 0.9910 0.1028
vn -0.3426 0.7937 0.5027
vn -0.7573 0.5517 0.3495
vn -0.1057 0.8071 -0.5808
vn 0.5286 0.7295 0.4340
vn -0.8460 0.5331 0.0057
vn -0.4576 0.8517 0.2555
vn -0.6863 0.7238 0.0713
vn -0.4192 0.7785 -0.4671
vn -0.0286 0.9995 0.0098
vn -0.6459 0.7634 0.0075
vn -0.3989 0.9123 -0.0929
vn -0.3880 0.8874 0.2488
vn -0.0189 0.9627 0.2700
vn -0.8008 0.5540 0.2276
vn -0.1204 0.8137 -0.5687
vn -0.1059 0.8150 -0.5696
vn -0.1416 0.9853 -0.0951
vn 0.1573 0.9830 -0.0949
vn -0.4961 0.7770 0.3876
vn -0.5493 0.7477 0.3730
vn -0.3861 0.8835 0.2651
vn -0.6174 0.7535 0.2260
vn -0.1382 0.9208 -0.3648
vn -0.0381 0.8231 0.5666
vn -0.3390 0.7749 0.5334
vn -0.7211 0.6928 -0.0068
vn -0.2305 0.6826 -0.6935
vn -0.3767 0.8611 0.3414
vn -0.5350 0.8407 0.0839
vn 0.0629 0.9788 -0.1947
vn -0.6478 0.6247 0.4359
vn -0.1198 0.8513 -0.5108
vn -0.1287 0.9708 -0.2026
vn -0.7420 0.6562 -0.1370
vn 0.2429 0.9319 -0.2694
vn -0.7155 0.6960 0.0596
vn -0.5345 0.7233 0.4372
vn -0.3062 0.9109 -0.2766
vn -0.2990 0.8856 0.3554
vn 0.2464 0.9691 -0.0065
vn -0.7203 0.6902 -0.0690
vn -0.4044 0.7521 -0.5204
vn 0.2464 0.9692 -0.0000
vn -0.5218 0.8176 0.2436
vn -0.0840 0.6040 0.7925
vn -0.7910 0.5855 0.1774
vn 0.2449 0.9279 -0.2811
vn -0.3766 0.8609 -0.3420
vn -0.3369 0.7713 -0.5399
vn -0.0372 0.9574 -0.2864
vn -0.3360 0.7692 0.5436
vn -0.3083 0.9132 0.2666
vn -0.2992 0.8860 -0.3544
vn -0.5936 0.8021 -0.0658
vn -0.6414 0.7633 -0.0772
vn -0.5661 0.7650 0.3069
vn -0.5943 0.8042 -0.0009
vn -0.3206 0.9471 -0.0134
vn 0.6423 0.7344 0.2195
vn -0.0331 0.9569 -0.2885
vn 0.5829 0.6665 -0.4648
vn -0.0342 0.9960 -0.0830
vn -0.5919 0.8010 0.0898
vn 0.4944 0.8692 -0.0018
vn -0.6448 0.7643 -0.0016
vn -0.2955 0.6755 -0.6755
vn -0.7507 0.6607 0.0041
vn 0.2493 0.9684 0.0012
vn -0.3377 0.7720 -0.5385
vn -0.5668 0.6749 0.4725
vn -0.3374 0.7711 0.5399
vn -0.1689 0.7280 -0.6644
vn -0.7085 0.6757 -0.2037
vn -0.3934 0.8993 0.1912
vn -0.6325 0.7576 0.1611
vn -0.3101 0.9137 0.2626
vn -0.4562 0.8553 0.2458
vn -0.7279 0.6393 -0.2479
vn 0.2370 0.8985 0.3695
vn -0.7879 0.5898 0.1769
vn 0.3170 0.8802 0.3531
vn -0.2690 0.6155 -0.7409
vn -0.4286 0.5773 -0.6950
vn -0.6784 0.7209 -0.1417
vn -0.4568 0.8502 0.2616
vn 0.5397 0.6268 0.5620
vn -0.8573 0.4942 0.1443
vn 0.2259 0.8361 0.5000
vn -0.3370 0.7713 -0.5399
vn -0.1147 0.8114 0.5731
vn -0.3364 0.7692 0.5433
vn -0.1303 0.9510 -0.2804
vn -0.3865 0.8836 -0.2644
vn -0.7365 0.6482 0.1932
vn -0.3865 0.8838 0.2635
vn 0.1226 0.7372 -0.6645
vn -0.6585 0.6994 -0.2779
vn -0.5512 0.7452 0.3754
vn -0.5983 0.7156 0.3605
vn -0.2211 0.9335 0.2822
vn 0.2608 0.9466 -0.1898
vn -0.6265 0.7460 -0.2256
vn -0.4074 0.5536 0.7263
vn -0.6227 0.7492 0.2255
vn -0.3867 0.8851 0.2588
vn 0.1428 0.9493 -0.2799
vn -0.5905 0.8070 -0.0000
vn -0.1345 0.9515 -0.2766
vn -0.0387 0.9992 0.0011
vn -0.7350 0.6506 0.1911
vn 0.6368 0.7397 0.2173
vn -0.5638 0.7669 0.3066
vn 0.2184 0.8351 0.5049
vn -0.4579 0.8521 -0.2536
vn -0.3762 0.8599 0.3451
vn 0.5047 0.8591 0.0848
vn -0.8255 0.5645 -0.0008
vn -0.0838 0.5999 0.7956
vn -0.0822 0.6000 0.7957
vn -0.2959 0.6762 -0.6747
vn -0.7350 0.6508 0.1903
vn 0.2531 0.9674 -0.0014
vn -0.7185 0.6926 -0.0646
vn -0.5161 0.7021 0.4907
vn -0.3374 0.7716 0.5393
vn -0.0303 0.9594 0.2805
vn -0.3199 0.9474 -0.0013
vn -0.5168 0.7013 0.4910
vn -0.0396 0.8518 0.5224
vn -0.5870 0.8046 0.0902
vn 0.4944 0.8692 0.0054
vn -0.6286 0.7451 0.2227
vn -0.3379 0.7725 0.5377
vn -0.7507 0.6607 0.0008
vn 0.2327 0.9039 -0.3589
vn -0.6263 0.7457 -0.2273
vn -0.3075 0.7028 -0.6414
vn -0.2260 0.9741 0.0070
vn -0.7237 0.6901 -0.0008
vn -0.3779 0.8639 0.3330
vn -0.6408 0.7676 -0.0108
vn -0.2995 0.8824 0.3629
vn -0.4455 0.8353 -0.3223
vn -0.7138 0.6270 0.3119
vn 0.2298 0.8713 0.4335
vn -0.7875 0.5895 -0.1797
vn 0.3373 0.9366 -0.0948
vn -0.3854 0.8820 0.2713
vn -0.5941 0.8002 0.0820
vn -0.5721 0.6079 -0.5505
vn -0.3700 0.6886 -0.6236
vn 0.6525 0.7578 0.0054
vn -0.8302 0.4785 0.2861
vn 0.2508 0.9285 0.2737
vn -0.3361 0.7692 0.5436
vn -0.1342 0.9494 -0.2841
vn -0.3865 0.8836 -0.2643
vn -0.1115 0.8137 -0.5705
vn -0.3866 0.8838 0.2634
vn -0.7256 0.6386 0.2562
vn -0.3089 0.7064 -0.6368
vn 0.1524 0.9169 -0.3688
vn -0.6583 0.6993 0.2787
vn -0.5871 0.7937 -0.1591
vn -0.4521 0.5407 -0.7094
vn -0.2212 0.9339 0.2808
vn 0.2551 0.9260 0.2784
vn -0.6276 0.7473 0.2185
vn -0.5927 0.8054 -0.0054
vn -0.5652 0.6800 0.4670
vn -0.3865 0.8846 -0.2608
vn 0.1488 0.9889 0.0011
vn -0.5156 0.7046 -0.4875
vn -0.1153 0.8158 -0.5668
vn -0.0331 0.8548 -0.5179
vn -0.7488 0.6628 0.0034
vn 0.6524 0.7578 0.0039
vn -0.5904 0.8031 -0.0802
vn 0.2431 0.9297 -0.2767
vn -0.3511 0.6535 -0.6706
vn -0.2920 0.6675 -0.6850
vn 0.4501 0.7661 0.4589
vn -0.8255 0.5645 0.0005
vn -0.1137 0.8140 -0.5697
vn -0.1115 0.8142 -0.5698
vn -0.3377 0.7719 0.5386
vn -0.7487 0.6630 -0.0009
vn 0.2432 0.9296 -0.2769
vn -0.7183 0.6924 0.0684
vn -0.8515 0.4868 0.1947
vn -0.6391 0.7691 0.0055
vn -0.5229 0.6292 0.5751
vn -0.4513 0.5370 -0.7126
vn 0.6366 0.7157 -0.2874
vn -0.3198 0.9415 -0.1063
vn -0.7536 0.6573 -0.0000
vn -0.7385 0.6442 -0.1989
vn -0.2559 0.5849 -0.7697
vn -0.6853 0.7247 -0.0719
vn -0.6871 0.7266 -0.0065
vn -0.6415 0.7633 0.0763
vn -0.1251 0.9216 0.3674
vn -0.6415 0.7633 -0.0763
vn -0.3635 0.8309 -0.4214
vn 0.1253 0.7384 0.6626
vn 0.1030 0.6072 -0.7878
vn -0.6406 0.7678 -0.0022
vn -0.2893 0.8578 0.4248
vn -0.6747 0.7235 0.1460
vn -0.4176 0.7754 -0.4737
vn -0.3527 0.6564 -0.6669
vn -0.1320 0.9494 0.2848
vn -0.2916 0.8586 -0.4216
vn 0.4167 0.8707 -0.2612
vn -0.4578 0.8515 0.2556
vn -0.7482 0.6634 0.0044
vn -0.7347 0.6515 -0.1892
vn -0.7069 0.6774 0.2032
vn -0.0316 0.9995 0.0008
vn -0.5943 0.8042 -0.0000
vn -0.1280 0.9208 -0.3683
vn -0.4178 0.7770 -0.4708
vn 0.2453 0.9646 0.0965
vn -0.0385 0.9571 -0.2871
vn -0.8024 0.5939 0.0594
vn 0.1580 0.5986 -0.7854
vn -0.3765 0.8606 0.3429
vn -0.0402 0.9992 -0.0000
vn 0.2464 0.9691 -0.0086
vn -0.5215 0.8172 0.2453
vn -0.0371 0.9548 0.2948
vn 0.2366 0.9306 -0.2792
vn -0.6413 0.7633 0.0783
vn -0.3769 0.8642 -0.3335
vn -0.0245 0.8156 0.5782
vn -0.0287 0.9551 -0.2949
vn -0.2997 0.8853 -0.3556
vn -0.3986 0.9140 0.0763
vn -0.4084 0.5526 -0.7265
vn -0.5654 0.7651 0.3083
vn -0.4778 0.6484 0.5927
vn -0.4413 0.8289 0.3438
vn -0.3738 0.8567 0.3553
vn 0.2464 0.9691 0.0064
vn -0.3186 0.9479 -0.0028
vn -0.0346 0.9994 -0.0022
vn -0.0208 0.6053 -0.7958
vn -0.3990 0.9125 0.0902
vn -0.1281 0.9217 0.3660
vt -0.000000 0.937500
vt 0.062500 1.000000
vt -0.000000 1.000000
vt 0.062500 0.937500
vt 0.125000 1.000000
vt 0.187500 0.937500
vt 0.125000 0.937500
vt 0.250000 1.000000
vt 0.187500 1.000000
vt 0.312500 0.937500
vt 0.250000 0.937500
vt 0.375000 0.937500
vt 0.312500 1.000000
vt 0.437500 0.937500
vt 0.375000 1.000000
vt 0.500000 1.000000
vt 0.437500 1.000000
vt 0.562500 0.937500
vt 0.500000 0.937500
vt 0.625000 0.937500
vt 0.562500 1.000000
vt 0.687500 0.937500
vt 0.625000 1.000000
vt 0.750000 0.937500
vt 0.687500 1.000000
vt 0.812500 1.000000
vt 0.750000 1.000000
vt 0.812500 0.937500
vt 0.875000 1.000000
vt 0.937500 0.937500
vt 0.875000 0.937500
vt 1.000000 0.937500
vt 0.937500 1.000000
vt 0.062500 0.937500
vt 0.000000 1.000000
vt 0.000000 0.937500
vt 0.125000 0.937500
vt 0.062500 1.000000
vt 0.125000 1.000000
vt 0.437500 0.937500
vt 0.500000 1.000000
vt 0.437500 1.000000
vt 0.562500 0.937500
vt 0.500000 0.937500
vt 0.625000 0.937500
vt 0.562500 1.000000
vt 0.687500 1.000000
vt 0.625000 1.000000
vt 0.687500 0.937500
vt 0.750000 0.250000
vt 0.687500 0.312500
vt 0.687500 0.250000
vt 0.875000 0.312500
vt 0.937500 0.375000
vt 0.875000 0.375000
vt 0.875000 0.437500
vt 0.937500 0.437500
vt 0.875000 0.500000
vt 0.937500 0.562500
vt 0.875000 0.562500
vt 0.937500 0.625000
vt 0.875000 0.625000
vt 0.875000 0.687500
vt 0.937500 0.687500
vt 0.875000 0.750000
vt 0.937500 0.750000
vt 0.875000 0.812500
vt 0.937500 0.875000
vt 0.875000 0.875000
vt 0.750000 0.312500
vt 0.812500 0.250000
vt 0.812500 0.312500
vt 0.812500 0.375000
vt 0.812500 0.437500
vt 0.812500 0.500000
vt 0.812500 0.562500
vt 0.812500 0.625000
vt 0.812500 0.687500
vt 0.812500 0.750000
vt 0.812500 0.812500
vt 0.812500 0.875000
vt 0.750000 0.375000
vt 0.750000 0.437500
vt 0.750000 0.500000
vt 0.750000 0.562500
vt 0.750000 0.625000
vt 0.750000 0.687500
vt 0.750000 0.750000
vt 0.750000 0.812500
vt 0.750000 0.875000
vt 0.625000 0.312500
vt 0.625000 0.250000
vt 0.687500 0.375000
vt 0.687500 0.437500
vt 0.687500 0.500000
vt 0.687500 0.562500
vt 0.687500 0.625000
vt 0.687500 0.687500
vt 0.687500 0.750000
vt 0.687500 0.812500
vt 0.687500 0.875000
vt 0.562500 0.250000
vt 0.562500 0.312500
vt 0.625000 0.375000
vt 0.625000 0.437500
vt 0.625000 0.500000
vt 0.625000 0.562500
vt 0.625000 0.625000
vt 0.625000 0.687500
vt 0.625000 0.750000
vt 0.625000 0.812500
vt 0.625000 0.875000
vt 0.500000 0.250000
vt 0.562500 0.375000
vt 0.562500 0.437500
vt 0.562500 0.500000
vt 0.562500 0.562500
vt 0.562500 0.625000
vt 0.562500 0.687500
vt 0.562500 0.750000
vt 0.562500 0.812500
vt 0.562500 0.875000
vt 0.375000 0.250000
vt 0.312500 0.312500
vt 0.312500 0.250000
vt 0.500000 0.312500
vt 0.500000 0.375000
vt 0.500000 0.437500
vt 0.500000 0.500000
vt 0.500000 0.562500
vt 0.500000 0.625000
vt 0.500000 0.687500
vt 0.500000 0.750000
vt 0.500000 0.812500
vt 0.500000 0.875000
vt 0.375000 0.312500
vt 0.437500 0.250000
vt 0.437500 0.312500
vt 0.437500 0.375000
vt 0.437500 0.437500
vt 0.437500 0.500000
vt 0.437500 0.562500
vt 0.437500 0.625000
vt 0.437500 0.687500
vt 0.437500 0.750000
vt 0.437500 0.812500
vt 0.437500 0.875000
vt 0.375000 0.375000
vt 0.375000 0.437500
vt 0.375000 0.500000
vt 0.375000 0.562500
vt 0.375000 0.625000
vt 0.375000 0.687500
vt 0.375000 0.750000
vt 0.375000 0.812500
vt 0.375000 0.875000
vt 0.250000 0.312500
vt 0.250000 0.250000
vt 0.312500 0.375000
vt 0.312500 0.437500
vt 0.312500 0.500000
vt 0.312500 0.562500
vt 0.312500 0.625000
vt 0.312500 0.687500
vt 0.312500 0.750000
vt 0.312500 0.812500
vt 0.312500 0.875000
vt 0.125000 0.250000
vt 0.062500 0.312500
vt 0.062500 0.250000
vt 0.250000 0.375000
vt 0.250000 0.437500
vt 0.250000 0.500000
vt 0.250000 0.562500
vt 0.250000 0.625000
vt 0.250000 0.687500
vt 0.250000 0.750000
vt 0.250000 0.812500
vt 0.250000 0.875000
vt 0.125000 0.312500
vt 0.187500 0.250000
vt 0.187500 0.312500
vt 0.187500 0.375000
vt 0.187500 0.437500
vt 0.187500 0.500000
vt 0.187500 0.562500
vt 0.187500 0.625000
vt 0.187500 0.687500
vt 0.187500 0.750000
vt 0.187500 0.812500
vt 0.187500 0.875000
vt 0.125000 0.375000
vt 0.125000 0.437500
vt 0.125000 0.500000
vt 0.125000 0.562500
vt 0.125000 0.625000
vt 0.125000 0.687500
vt 0.125000 0.750000
vt 0.125000 0.812500
vt 0.125000 0.875000
vt 0.875000 0.250000
vt 0.062500 0.375000
vt 0.062500 0.437500
vt 0.062500 0.500000
vt 0.062500 0.562500
vt 0.062500 0.625000
vt 0.062500 0.687500
vt 0.062500 0.750000
vt 0.062500 0.812500
vt 0.062500 0.875000
vt 1.000000 0.250000
vt 0.937500 0.312500
vt 0.937500 0.250000
vt 0.000000 0.312500
vt 0.000000 0.375000
vt -0.000000 0.437500
vt -0.000000 0.500000
vt -0.000000 0.562500
vt -0.000000 0.625000
vt -0.000000 0.687500
vt -0.000000 0.750000
vt -0.000000 0.812500
vt -0.000000 0.875000
vt 1.000000 0.312500
vt 1.000000 0.375000
vt 1.000000 0.500000
vt 0.937500 0.500000
vt 1.000000 0.625000
vt 1.000000 0.687500
vt 1.000000 0.812500
vt 0.937500 0.812500
vt 1.000000 0.875000
vt 0.750000 0.312500
vt 0.812500 0.375000
vt 0.812500 0.312500
vt 0.812500 0.437500
vt 0.812500 0.625000
vt 0.812500 0.687500
vt 0.812500 0.750000
vt 0.812500 0.812500
vt 0.687500 0.312500
vt 0.687500 0.250000
vt 0.750000 0.375000
vt 0.750000 0.437500
vt 0.750000 0.500000
vt 0.750000 0.562500
vt 0.750000 0.625000
vt 0.750000 0.687500
vt 0.750000 0.750000
vt 0.750000 0.812500
vt 0.625000 0.312500
vt 0.625000 0.250000
vt 0.687500 0.375000
vt 0.687500 0.437500
vt 0.687500 0.500000
vt 0.687500 0.562500
vt 0.687500 0.750000
vt 0.687500 0.812500
vt 0.687500 0.875000
vt 0.562500 0.250000
vt 0.625000 0.375000
vt 0.625000 0.437500
vt 0.625000 0.500000
vt 0.625000 0.562500
vt 0.625000 0.625000
vt 0.625000 0.687500
vt 0.625000 0.750000
vt 0.625000 0.812500
vt 0.625000 0.875000
vt 0.312500 0.312500
vt 0.250000 0.312500
vt 0.562500 0.312500
vt 0.562500 0.375000
vt 0.562500 0.437500
vt 0.562500 0.500000
vt 0.562500 0.562500
vt 0.562500 0.625000
vt 0.562500 0.687500
vt 0.562500 0.750000
vt 0.562500 0.812500
vt 0.562500 0.875000
vt 0.500000 0.250000
vt 0.437500 0.312500
vt 0.500000 0.312500
vt 0.500000 0.375000
vt 0.500000 0.437500
vt 0.500000 0.500000
vt 0.500000 0.750000
vt 0.500000 0.812500
vt 0.500000 0.875000
vt 0.375000 0.312500
vt 0.375000 0.250000
vt 0.437500 0.375000
vt 0.437500 0.437500
vt 0.437500 0.500000
vt 0.437500 0.562500
vt 0.437500 0.625000
vt 0.437500 0.687500
vt 0.437500 0.750000
vt 0.437500 0.812500
vt 0.437500 0.875000
vt 0.312500 0.250000
vt 0.375000 0.437500
vt 0.375000 0.500000
vt 0.375000 0.562500
vt 0.375000 0.625000
vt 0.375000 0.687500
vt 0.312500 0.375000
vt 0.312500 0.437500
vt 0.312500 0.500000
vt 0.312500 0.562500
vt 0.312500 0.625000
vt 0.312500 0.687500
vt 0.312500 0.750000
vt 0.312500 0.812500
vt 0.250000 0.375000
vt 0.250000 0.437500
vt 0.250000 0.500000
vt 0.250000 0.562500
vt 0.250000 0.625000
vt 0.250000 0.687500
vt 0.187500 0.750000
vt 0.187500 0.812500
vt 0.125000 0.437500
vt 0.125000 0.500000
vt 0.125000 0.875000
vt 0.000000 0.250000
vt 0.062500 0.375000
vt 0.062500 0.312500
vt 0.062500 0.437500
vt 0.062500 0.500000
vt 0.062500 0.562500
vt 0.062500 0.625000
vt 0.062500 0.687500
vt 0.062500 0.875000
vt 0.062500 0.187500
vt 0.125000 0.187500
vt -0.000000 0.375000
vt -0.000000 0.437500
vt -0.000000 0.500000
vt -0.000000 0.562500
vt -0.000000 0.625000
vt -0.000000 0.687500
vt -0.000000 0.750000
vt -0.000000 0.812500
vt -0.000000 0.875000
vt 1.000000 1.000000
vt 1.000000 0.437500
vt 1.000000 0.562500
vt 1.000000 0.750000
vt 0.437500 0.187500
vt 0.375000 0.250000
vt 0.375000 0.187500
vt 0.187500 0.250000
vt 0.250000 0.187500
vt 0.250000 0.250000
vt 0.312500 0.250000
vt 0.312500 0.187500
vt 0.687500 0.187500
vt 0.625000 0.250000
vt 0.625000 0.187500
vt 0.500000 0.250000
vt 0.437500 0.250000
vt 0.562500 0.187500
vt 0.500000 0.187500
vt 0.937500 0.187500
vt 1.000000 0.187500
vt 0.750000 0.187500
vt 0.812500 0.187500
vt 0.875000 0.187500
vt 0.187500 0.187500
vt 0.125000 0.250000
vt 0.125000 0.187500
vt 0.062500 0.250000
vt 0.000000 0.187500
vt 0.062500 0.187500
vt 0.437500 0.187500
vt 0.500000 0.250000
vt 0.625000 0.250000
vt 0.562500 0.187500
vt 0.625000 0.187500
vt 0.562500 0.250000
vt 0.500000 0.187500
vt 0.687500 0.250000
vt 0.687500 0.187500
vt 0.875000 0.062500
vt 0.937500 0.125000
vt 0.875000 0.125000
vt 0.812500 0.125000
vt 0.812500 0.062500
vt 0.750000 0.062500
vt 0.750000 0.125000
vt 0.687500 0.062500
vt 0.687500 0.125000
vt 0.625000 0.062500
vt 0.625000 0.125000
vt 0.562500 0.062500
vt 0.562500 0.125000
vt 0.500000 0.062500
vt 0.500000 0.125000
vt 0.437500 0.125000
vt 0.437500 0.062500
vt 0.375000 0.125000
vt 0.375000 0.062500
vt 0.312500 0.062500
vt 0.312500 0.125000
vt 0.250000 0.125000
vt 0.250000 0.062500
vt 0.187500 0.125000
vt 0.187500 0.062500
vt 0.125000 0.062500
vt 0.125000 0.125000
vt 0.062500 0.062500
vt 0.062500 0.125000
vt -0.000000 0.125000
vt -0.000000 0.062500
vt 0.937500 0.062500
vt 1.000000 0.125000
vt 0.812500 0.062500
vt 0.750000 0.062500
vt 0.687500 0.125000
vt 0.687500 0.062500
vt 0.625000 0.125000
vt 0.625000 0.062500
vt 0.562500 0.062500
vt 0.562500 0.125000
vt 0.500000 0.125000
vt 0.500000 0.062500
vt 0.437500 0.062500
vt 0.437500 0.125000
vt 0.312500 0.062500
vt 0.187500 0.062500
vt 0.125000 0.125000
vt 0.062500 0.125000
vt -0.000000 0.062500
vt -0.000000 0.125000
vt -0.000000 0.187500
vt 1.000000 0.062500
vt 0.562500 0.250000
vt -0.000000 0.250000
s 0
usemtl Gravel
f 137/62/7 125/63/7 126/64/7
f 148/65/8 124/66/8 125/63/8
f 170/67/9 124/66/9 159/68/9
f 170/67/10 122/69/10 123/70/10
f 192/71/11 122/69/11 181/72/11
f 203/73/12 121/74/12 192/71/12
f 214/75/13 120/76/13 203/73/13
f 214/75/14 118/77/14 119/78/14
f 236/79/15 118/77/15 225/80/15
f 247/81/16 117/82/16 236/79/16
f 258/83/17 116/84/17 247/81/17
f 269/85/18 115/86/18 258/83/18
f 269/85/19 113/87/19 114/88/19
f 280/89/20 112/90/20 113/87/20
f 302/91/21 112/90/21 291/92/21
f 313/93/22 111/94/22 302/91/22
f 324/95/23 110/96/23 313/97/23
f 335/98/24 109/99/24 324/95/24
f 346/67/25 108/100/25 335/98/25
f 357/72/26 107/70/26 346/67/26
f 357/72/27 105/74/27 106/69/27
f 368/71/28 104/76/28 105/74/28
f 390/101/29 104/76/29 379/73/29
f 390/101/30 102/102/30 103/103/30
f 412/104/31 102/102/31 401/105/31
f 423/106/32 101/107/32 412/104/32
f 423/106/33 99/108/33 100/109/33
f 445/85/34 99/108/34 434/110/34
f 456/89/35 98/88/35 445/85/35
f 467/92/36 97/87/36 456/89/36
f 467/92/37 95/94/37 96/90/37
f 480/111/38 424/112/38 481/113/38
f 457/114/39 469/115/39 458/116/39
f 469/115/40 459/117/40 458/116/40
f 470/118/41 460/119/41 459/117/41
f 460/119/42 472/120/42 461/121/42
f 461/121/43 473/122/43 462/123/43
f 473/122/44 463/124/44 462/123/44
f 474/125/45 464/126/45 463/124/45
f 475/127/46 465/128/46 464/126/46
f 465/128/47 477/129/47 466/130/47
f 477/129/48 467/92/48 466/130/48
f 435/131/49 93/132/49 446/133/49
f 457/114/50 447/134/50 446/133/50
f 447/134/51 459/117/51 448/135/51
f 448/135/52 460/119/52 449/136/52
f 460/119/52 450/137/52 449/136/52
f 461/121/53 451/138/53 450/137/53
f 462/123/54 452/139/54 451/138/54
f 463/124/55 453/140/55 452/139/55
f 453/140/56 465/128/56 454/141/56
f 465/128/57 455/142/57 454/141/57
f 466/130/58 456/89/58 455/142/58
f 446/133/59 436/143/59 435/131/59
f 436/143/60 448/135/60 437/144/60
f 448/135/61 438/145/61 437/144/61
f 438/145/62 450/137/62 439/146/62
f 439/146/63 451/138/63 440/147/63
f 451/138/64 441/148/64 440/147/64
f 441/148/65 453/140/65 442/149/65
f 453/140/66 443/150/66 442/149/66
f 443/150/67 455/142/67 444/151/67
f 444/151/68 456/89/68 445/85/68
f 481/113/69 413/152/69 92/153/69
f 435/131/70 425/154/70 424/112/70
f 425/154/71 437/144/71 426/155/71
f 426/155/72 438/145/72 427/156/72
f 438/145/73 428/157/73 427/156/73
f 439/146/74 429/158/74 428/157/74
f 429/158/75 441/148/75 430/159/75
f 430/159/76 442/149/76 431/160/76
f 442/149/77 432/161/77 431/160/77
f 432/161/78 444/151/78 433/162/78
f 444/151/79 434/110/79 433/162/79
f 482/163/80 413/152/80 402/164/80
f 424/112/81 414/165/81 413/152/81
f 414/165/82 426/155/82 415/166/82
f 415/166/83 427/156/83 416/167/83
f 416/167/84 428/157/84 417/168/84
f 428/157/85 418/169/85 417/168/85
f 418/169/86 430/159/86 419/170/86
f 430/159/87 420/171/87 419/170/87
f 431/160/88 421/172/88 420/171/88
f 421/172/89 433/162/89 422/173/89
f 422/173/90 434/110/90 423/106/90
f 402/164/91 91/174/91 482/163/91
f 413/152/92 403/175/92 402/164/92
f 403/175/93 415/166/93 404/176/93
f 415/166/94 405/177/94 404/176/94
f 416/167/95 406/178/95 405/177/95
f 406/178/96 418/169/96 407/179/96
f 407/179/97 419/170/97 408/180/97
f 408/180/98 420/171/98 409/181/98
f 420/171/99 410/182/99 409/181/99
f 410/182/100 422/173/100 411/183/100
f 422/173/101 412/104/101 411/183/101
f 483/184/102 358/185/102 484/186/102
f 391/187/103 403/175/103 392/188/103
f 403/175/104 393/189/104 392/188/104
f 393/189/105 405/177/105 394/190/105
f 394/190/106 406/178/106 395/191/106
f 406/178/107 396/192/107 395/191/107
f 407/179/108 397/193/108 396/192/108
f 408/180/109 398/194/109 397/193/109
f 398/194/110 410/182/110 399/195/110
f 399/195/111 411/183/111 400/196/111
f 411/183/112 401/105/112 400/196/112
f 369/197/113 90/198/113 380/199/113
f 380/199/114 392/188/114 381/200/114
f 381/200/115 393/189/115 382/201/115
f 393/189/116 383/202/116 382/201/116
f 383/202/117 395/191/117 384/203/117
f 395/191/118 385/204/118 384/203/118
f 385/204/119 397/193/119 386/205/119
f 386/205/120 398/194/120 387/206/120
f 398/194/121 388/207/121 387/206/121
f 399/195/122 389/208/122 388/207/122
f 400/196/123 390/101/123 389/208/123
f 380/199/124 370/209/124 369/197/124
f 381/200/125 371/210/125 370/209/125
f 382/201/126 372/211/126 371/210/126
f 372/211/127 384/203/127 373/212/127
f 373/212/128 385/204/128 374/213/128
f 385/204/129 375/214/129 374/213/129
f 375/214/130 387/206/130 376/215/130
f 387/206/131 377/216/131 376/215/131
f 388/207/132 378/217/132 377/216/132
f 378/217/133 390/101/133 379/73/133
f 484/186/134 347/218/134 485/219/134
f 369/197/135 359/220/135 358/185/135
f 370/209/136 360/221/136 359/220/136
f 360/221/137 372/211/137 361/222/137
f 361/222/138 373/212/138 362/223/138
f 373/212/139 363/224/139 362/223/139
f 363/224/140 375/214/140 364/225/140
f 364/225/141 376/215/141 365/226/141
f 376/215/142 366/227/142 365/226/142
f 366/227/143 378/217/143 367/228/143
f 378/217/144 368/71/144 367/228/144
f 486/229/145 314/230/145 88/231/145
f 347/218/146 359/220/146 348/232/146
f 348/232/147 360/221/147 349/233/147
f 360/221/148 350/234/148 349/233/148
f 361/222/149 351/235/149 350/234/149
f 351/235/150 363/224/150 352/236/150
f 352/236/151 364/225/151 353/237/151
f 353/237/152 365/226/152 354/238/152
f 365/226/153 355/239/153 354/238/153
f 366/227/154 356/240/154 355/239/154
f 367/228/155 357/72/155 356/240/155
f 325/241/156 89/242/156 336/243/156
f 347/218/157 337/244/157 336/243/157
f 337/244/158 349/233/158 338/245/158
f 349/233/159 339/246/159 338/245/159
f 339/246/160 351/235/160 340/247/160
f 351/235/161 341/248/161 340/247/161
f 352/236/162 342/249/162 341/248/162
f 342/249/163 354/238/163 343/250/163
f 343/250/164 355/239/164 344/251/164
f 355/239/165 345/252/165 344/251/165
f 345/252/166 357/72/166 346/67/166
f 336/243/167 326/253/167 325/241/167
f 326/253/168 338/245/168 327/254/168
f 327/254/169 339/246/169 328/255/169
f 328/255/170 340/247/170 329/256/170
f 329/256/171 341/248/171 330/257/171
f 330/257/172 342/249/172 331/258/172
f 342/249/173 332/259/173 331/258/173
f 332/259/174 344/251/174 333/260/174
f 333/260/175 345/252/175 334/261/175
f 334/261/176 346/67/176 335/98/176
f 281/114/177 488/132/177 487/262/177
f 314/230/178 326/253/178 315/263/178
f 326/253/179 316/264/179 315/263/179
f 327/254/180 317/265/180 316/264/180
f 317/265/181 329/256/181 318/266/181
f 318/266/182 330/257/182 319/267/182
f 319/267/183 331/258/183 320/268/183
f 331/258/184 321/269/184 320/268/184
f 321/269/185 333/260/185 322/270/185
f 322/270/186 334/261/186 323/271/186
f 334/261/187 324/95/187 323/271/187
f 87/272/188 292/273/188 86/274/188
f 303/275/189 315/263/189 304/276/189
f 304/276/190 316/264/190 305/277/190
f 316/264/191 306/278/191 305/277/191
f 317/265/192 307/279/192 306/278/192
f 307/279/193 319/267/193 308/280/193
f 319/267/194 309/281/194 308/280/194
f 309/281/195 321/269/195 310/282/195
f 310/282/196 322/270/196 311/283/196
f 322/270/197 312/284/197 311/283/197
f 323/271/198 313/97/198 312/284/198
f 487/262/199 292/273/199 281/114/199
f 303/285/200 293/115/200 292/273/200
f 304/286/201 294/118/201 293/115/201
f 294/118/202 306/287/202 295/288/202
f 306/287/203 296/120/203 295/288/203
f 296/120/204 308/289/204 297/122/204
f 308/289/205 298/125/205 297/122/205
f 309/290/206 299/127/206 298/125/206
f 299/127/207 311/291/207 300/292/207
f 300/292/208 312/293/208 301/129/208
f 312/293/209 302/91/209 301/129/209
f 292/273/199 282/116/199 281/114/199
f 282/116/210 294/118/210 283/117/210
f 283/117/211 295/288/211 284/119/211
f 284/119/212 296/120/212 285/121/212
f 296/120/213 286/123/213 285/121/213
f 286/123/214 298/125/214 287/124/214
f 298/125/215 288/126/215 287/124/215
f 288/126/216 300/292/216 289/128/216
f 289/128/217 301/129/217 290/130/217
f 290/130/218 302/91/218 291/92/218
f 488/132/219 259/294/219 489/111/219
f 281/114/220 271/295/220 270/296/220
f 271/295/221 283/117/221 272/297/221
f 272/297/222 284/119/222 273/136/222
f 284/119/222 274/137/222 273/136/222
f 274/137/223 286/123/223 275/298/223
f 275/298/224 287/124/224 276/299/224
f 276/299/225 288/126/225 277/300/225
f 277/300/226 289/128/226 278/301/226
f 278/301/227 290/130/227 279/142/227
f 290/130/228 280/89/228 279/142/228
f 489/111/229 248/302/229 490/303/229
f 270/296/230 260/304/230 259/294/230
f 260/304/231 272/297/231 261/305/231
f 272/297/232 262/306/232 261/305/232
f 273/136/233 263/307/233 262/306/233
f 274/137/234 264/308/234 263/307/234
f 275/298/235 265/309/235 264/308/235
f 276/299/236 266/310/236 265/309/236
f 277/300/237 267/311/237 266/310/237
f 278/301/238 268/151/238 267/311/238
f 279/142/239 269/85/239 268/151/239
f 490/303/240 237/312/240 491/313/240
f 248/302/241 260/304/241 249/314/241
f 249/314/242 261/305/242 250/315/242
f 250/315/243 262/306/243 251/316/243
f 262/306/244 252/317/244 251/316/244
f 263/307/245 253/158/245 252/317/245
f 264/308/246 254/159/246 253/158/246
f 265/309/247 255/318/247 254/159/247
f 266/310/248 256/319/248 255/318/248
f 267/311/249 257/320/249 256/319/249
f 257/320/250 269/85/250 258/83/250
f 237/312/251 85/321/251 491/313/251
f 237/312/252 249/314/252 238/322/252
f 249/314/253 239/323/253 238/322/253
f 250/315/254 240/324/254 239/323/254
f 251/316/255 241/325/255 240/324/255
f 252/317/256 242/326/256 241/325/256
f 253/158/257 243/327/257 242/326/257
f 254/159/258 244/328/258 243/327/258
f 244/328/259 256/319/259 245/329/259
f 256/319/260 246/330/260 245/329/260
f 257/320/261 247/81/261 246/330/261
f 493/219/262 182/331/262 171/332/262
f 226/333/263 238/322/263 227/334/263
f 238/322/264 228/335/264 227/334/264
f 239/323/265 229/336/265 228/335/265
f 240/324/266 230/337/266 229/336/266
f 241/325/267 231/338/267 230/337/267
f 231/338/268 243/327/268 232/339/268
f 232/339/269 244/328/269 233/340/269
f 244/328/270 234/341/270 233/340/270
f 234/341/271 246/330/271 235/342/271
f 235/342/272 247/81/272 236/79/272
f 84/343/273 204/344/273 83/198/273
f 215/345/274 227/334/274 216/346/274
f 227/334/275 217/347/275 216/346/275
f 217/347/276 229/336/276 218/348/276
f 229/336/277 219/191/277 218/348/277
f 219/191/278 231/338/278 220/192/278
f 231/338/279 221/193/279 220/192/279
f 232/339/280 222/349/280 221/193/280
f 222/349/281 234/341/281 223/350/281
f 234/341/282 224/351/282 223/350/282
f 235/342/283 225/80/283 224/351/283
f 83/198/284 193/352/284 82/353/284
f 204/344/285 216/346/285 205/354/285
f 205/354/286 217/347/286 206/355/286
f 217/347/287 207/356/287 206/355/287
f 207/356/288 219/191/288 208/357/288
f 208/357/289 220/192/289 209/358/289
f 220/192/290 210/359/290 209/358/290
f 210/359/291 222/349/291 211/360/291
f 211/360/292 223/350/292 212/361/292
f 212/361/293 224/351/293 213/362/293
f 224/351/294 214/75/294 213/362/294
f 492/363/295 193/352/295 182/331/295
f 193/352/296 205/354/296 194/209/296
f 194/209/297 206/355/297 195/364/297
f 195/364/298 207/356/298 196/365/298
f 207/356/299 197/366/299 196/365/299
f 197/366/300 209/358/300 198/367/300
f 209/358/301 199/368/301 198/367/301
f 199/368/302 211/360/302 200/215/302
f 200/215/303 212/361/303 201/216/303
f 212/361/304 202/217/304 201/216/304
f 202/217/305 214/75/305 203/73/305
f 182/331/306 194/209/306 183/369/306
f 194/209/307 184/370/307 183/369/307
f 184/370/308 196/365/308 185/371/308
f 185/371/309 197/366/309 186/372/309
f 186/372/310 198/367/310 187/373/310
f 187/373/311 199/368/311 188/374/311
f 199/368/312 189/375/312 188/374/312
f 200/215/313 190/376/313 189/375/313
f 190/376/314 202/217/314 191/228/314
f 191/228/315 203/73/315 192/71/315
f 493/219/316 160/243/316 81/242/316
f 182/331/317 172/377/317 171/332/317
f 183/369/318 173/378/318 172/377/318
f 184/370/319 174/379/319 173/378/319
f 185/371/320 175/380/320 174/379/320
f 186/372/321 176/381/321 175/380/321
f 187/373/322 177/382/322 176/381/322
f 177/382/323 189/375/323 178/238/323
f 178/238/324 190/376/324 179/239/324
f 190/376/325 180/240/325 179/239/325
f 180/240/326 192/71/326 181/72/326
f 160/243/327 172/377/327 161/244/327
f 172/377/328 162/245/328 161/244/328
f 173/378/329 163/246/329 162/245/329
f 163/246/330 175/380/330 164/247/330
f 164/247/331 176/381/331 165/248/331
f 176/381/332 166/249/332 165/248/332
f 166/249/333 178/238/333 167/383/333
f 167/383/334 179/239/334 168/384/334
f 168/384/335 180/240/335 169/252/335
f 180/240/336 170/67/336 169/252/336
f 160/243/337 150/253/337 149/241/337
f 161/244/338 151/385/338 150/253/338
f 162/245/339 152/386/339 151/385/339
f 152/386/340 164/247/340 153/256/340
f 164/247/341 154/257/341 153/256/341
f 165/248/342 155/258/342 154/257/342
f 155/258/343 167/383/343 156/259/343
f 156/259/344 168/384/344 157/260/344
f 168/384/345 158/387/345 157/260/345
f 158/387/346 170/67/346 159/68/346
f 80/231/347 127/275/347 79/388/347
f 149/241/348 139/389/348 138/390/348
f 139/389/349 151/385/349 140/391/349
f 151/385/350 141/392/350 140/391/350
f 141/392/351 153/256/351 142/393/351
f 153/256/352 143/394/352 142/393/352
f 143/394/353 155/258/353 144/395/353
f 155/258/354 145/269/354 144/395/354
f 156/259/355 146/270/355 145/269/355
f 146/270/356 158/387/356 147/396/356
f 147/396/357 159/68/357 148/65/357
f 494/229/358 500/397/358 503/398/358
f 127/275/359 139/389/359 128/399/359
f 128/399/360 140/391/360 129/400/360
f 129/400/361 141/392/361 130/401/361
f 130/401/362 142/393/362 131/402/362
f 131/402/363 143/394/363 132/403/363
f 132/403/364 144/395/364 133/404/364
f 144/395/365 134/405/365 133/404/365
f 134/405/366 146/270/366 135/406/366
f 135/406/367 147/396/367 136/407/367
f 147/396/368 137/62/368 136/407/368
f 137/62/369 148/65/369 125/63/369
f 148/65/370 159/68/370 124/66/370
f 170/67/371 123/70/371 124/66/371
f 170/67/372 181/72/372 122/69/372
f 192/71/373 121/74/373 122/69/373
f 203/73/33 120/76/33 121/74/33
f 214/75/374 119/78/374 120/76/374
f 214/75/375 225/80/375 118/77/375
f 236/79/376 117/82/376 118/77/376
f 247/81/16 116/84/16 117/82/16
f 258/83/377 115/86/377 116/84/377
f 269/85/378 114/88/378 115/86/378
f 269/85/379 280/89/379 113/87/379
f 280/89/380 291/92/380 112/90/380
f 302/91/7 111/94/7 112/90/7
f 313/93/381 110/408/381 111/94/381
f 324/95/382 109/99/382 110/96/382
f 335/98/383 108/100/383 109/99/383
f 346/67/384 107/70/384 108/100/384
f 357/72/385 106/69/385 107/70/385
f 357/72/386 368/71/386 105/74/386
f 368/71/387 379/73/387 104/76/387
f 390/101/388 103/103/388 104/76/388
f 390/101/389 401/105/389 102/102/389
f 412/104/390 101/107/390 102/102/390
f 423/106/391 100/109/391 101/107/391
f 423/106/392 434/110/392 99/108/392
f 445/85/393 98/88/393 99/108/393
f 456/89/394 97/87/394 98/88/394
f 467/92/395 96/90/395 97/87/395
f 467/92/396 478/91/396 95/94/396
f 457/114/397 468/273/397 469/115/397
f 469/115/398 470/118/398 459/117/398
f 470/118/399 471/288/399 460/119/399
f 460/119/400 471/288/400 472/120/400
f 461/121/401 472/120/401 473/122/401
f 473/122/402 474/125/402 463/124/402
f 474/125/403 475/127/403 464/126/403
f 475/127/404 476/292/404 465/128/404
f 465/128/405 476/292/405 477/129/405
f 477/129/406 478/91/406 467/92/406
f 457/114/407 458/116/407 447/134/407
f 447/134/408 458/116/408 459/117/408
f 448/135/409 459/117/409 460/119/409
f 460/119/410 461/121/410 450/137/410
f 461/121/411 462/123/411 451/138/411
f 462/123/412 463/124/412 452/139/412
f 463/124/413 464/126/413 453/140/413
f 453/140/414 464/126/414 465/128/414
f 465/128/415 466/130/415 455/142/415
f 466/130/416 467/92/416 456/89/416
f 91/174/417 380/199/417 90/198/417
f 446/133/418 447/134/418 436/143/418
f 436/143/419 447/134/419 448/135/419
f 448/135/420 449/136/420 438/145/420
f 438/145/420 449/136/420 450/137/420
f 439/146/421 450/137/421 451/138/421
f 451/138/422 452/139/422 441/148/422
f 441/148/423 452/139/423 453/140/423
f 453/140/424 454/141/424 443/150/424
f 443/150/425 454/141/425 455/142/425
f 444/151/426 455/142/426 456/89/426
f 435/131/427 436/143/427 425/154/427
f 425/154/428 436/143/428 437/144/428
f 426/155/429 437/144/429 438/145/429
f 438/145/430 439/146/430 428/157/430
f 439/146/431 440/147/431 429/158/431
f 429/158/432 440/147/432 441/148/432
f 430/159/433 441/148/433 442/149/433
f 442/149/434 443/150/434 432/161/434
f 432/161/435 443/150/435 444/151/435
f 444/151/436 445/85/436 434/110/436
f 424/112/135 425/154/135 414/165/135
f 414/165/437 425/154/437 426/155/437
f 415/166/438 426/155/438 427/156/438
f 416/167/439 427/156/439 428/157/439
f 428/157/440 429/158/440 418/169/440
f 418/169/441 429/158/441 430/159/441
f 430/159/87 431/160/87 420/171/87
f 431/160/442 432/161/442 421/172/442
f 421/172/443 432/161/443 433/162/443
f 422/173/444 433/162/444 434/110/444
f 413/152/445 414/165/445 403/175/445
f 403/175/446 414/165/446 415/166/446
f 415/166/447 416/167/447 405/177/447
f 416/167/448 417/168/448 406/178/448
f 406/178/449 417/168/449 418/169/449
f 407/179/450 418/169/450 419/170/450
f 408/180/451 419/170/451 420/171/451
f 420/171/452 421/172/452 410/182/452
f 410/182/453 421/172/453 422/173/453
f 422/173/454 423/106/454 412/104/454
f 391/187/455 402/164/455 403/175/455
f 403/175/456 404/176/456 393/189/456
f 393/189/457 404/176/457 405/177/457
f 394/190/458 405/177/458 406/178/458
f 406/178/459 407/179/459 396/192/459
f 407/179/460 408/180/460 397/193/460
f 408/180/461 409/181/461 398/194/461
f 398/194/462 409/181/462 410/182/462
f 399/195/463 410/182/463 411/183/463
f 411/183/464 412/104/464 401/105/464
f 380/199/465 391/187/465 392/188/465
f 381/200/466 392/188/466 393/189/466
f 393/189/467 394/190/467 383/202/467
f 383/202/468 394/190/468 395/191/468
f 395/191/469 396/192/469 385/204/469
f 385/204/470 396/192/470 397/193/470
f 386/205/471 397/193/471 398/194/471
f 398/194/472 399/195/472 388/207/472
f 399/195/473 400/196/473 389/208/473
f 400/196/474 401/105/474 390/101/474
f 89/242/475 347/218/475 336/243/475
f 380/199/476 381/200/476 370/209/476
f 381/200/477 382/201/477 371/210/477
f 382/201/478 383/202/478 372/211/478
f 372/211/479 383/202/479 384/203/479
f 373/212/480 384/203/480 385/204/480
f 385/204/481 386/205/481 375/214/481
f 375/214/482 386/205/482 387/206/482
f 387/206/483 388/207/483 377/216/483
f 388/207/484 389/208/484 378/217/484
f 378/217/485 389/208/485 390/101/485
f 369/197/486 370/209/486 359/220/486
f 370/209/487 371/210/487 360/221/487
f 360/221/488 371/210/488 372/211/488
f 361/222/489 372/211/489 373/212/489
f 373/212/490 374/213/490 363/224/490
f 363/224/491 374/213/491 375/214/491
f 364/225/492 375/214/492 376/215/492
f 376/215/493 377/216/493 366/227/493
f 366/227/494 377/216/494 378/217/494
f 378/217/495 379/73/495 368/71/495
f 347/218/496 358/185/496 359/220/496
f 348/232/497 359/220/497 360/221/497
f 360/221/498 361/222/498 350/234/498
f 361/222/499 362/223/499 351/235/499
f 351/235/500 362/223/500 363/224/500
f 352/236/501 363/224/501 364/225/501
f 353/237/502 364/225/502 365/226/502
f 365/226/503 366/227/503 355/239/503
f 366/227/504 367/228/504 356/240/504
f 367/228/505 368/71/505 357/72/505
f 347/218/506 348/232/506 337/244/506
f 337/244/507 348/232/507 349/233/507
f 349/233/508 350/234/508 339/246/508
f 339/246/509 350/234/509 351/235/509
f 351/235/510 352/236/510 341/248/510
f 352/236/511 353/237/511 342/249/511
f 342/249/512 353/237/512 354/238/512
f 343/250/513 354/238/513 355/239/513
f 355/239/514 356/240/514 345/252/514
f 345/252/515 356/240/515 357/72/515
f 87/388/516 314/230/516 303/275/516
f 336/243/517 337/244/517 326/253/517
f 326/253/518 337/244/518 338/245/518
f 327/254/519 338/245/519 339/246/519
f 328/255/520 339/246/520 340/247/520
f 329/256/521 340/247/521 341/248/521
f 330/257/522 341/248/522 342/249/522
f 342/249/523 343/250/523 332/259/523
f 332/259/524 343/250/524 344/251/524
f 333/260/525 344/251/525 345/252/525
f 334/261/526 345/252/526 346/67/526
f 314/230/527 325/241/527 326/253/527
f 326/253/528 327/254/528 316/264/528
f 327/254/529 328/255/529 317/265/529
f 317/265/530 328/255/530 329/256/530
f 318/266/531 329/256/531 330/257/531
f 319/267/532 330/257/532 331/258/532
f 331/258/533 332/259/533 321/269/533
f 321/269/534 332/259/534 333/260/534
f 322/270/535 333/260/535 334/261/535
f 334/261/536 335/98/536 324/95/536
f 303/275/537 314/230/537 315/263/537
f 304/276/538 315/263/538 316/264/538
f 316/264/539 317/265/539 306/278/539
f 317/265/540 318/266/540 307/279/540
f 307/279/541 318/266/541 319/267/541
f 319/267/542 320/268/542 309/281/542
f 309/281/543 320/268/543 321/269/543
f 310/282/544 321/269/544 322/270/544
f 322/270/545 323/271/545 312/284/545
f 323/271/546 324/95/546 313/97/546
f 303/285/547 304/286/547 293/115/547
f 304/286/548 305/409/548 294/118/548
f 294/118/549 305/409/549 306/287/549
f 306/287/550 307/410/550 296/120/550
f 296/120/551 307/410/551 308/289/551
f 308/289/552 309/290/552 298/125/552
f 309/290/553 310/411/553 299/127/553
f 299/127/554 310/411/554 311/291/554
f 300/292/555 311/291/555 312/293/555
f 312/293/556 313/93/556 302/91/556
f 84/343/557 226/333/557 215/345/557
f 292/273/558 293/115/558 282/116/558
f 282/116/559 293/115/559 294/118/559
f 283/117/560 294/118/560 295/288/560
f 284/119/561 295/288/561 296/120/561
f 296/120/562 297/122/562 286/123/562
f 286/123/563 297/122/563 298/125/563
f 298/125/564 299/127/564 288/126/564
f 288/126/565 299/127/565 300/292/565
f 289/128/566 300/292/566 301/129/566
f 290/130/567 301/129/567 302/91/567
f 281/114/568 282/116/568 271/295/568
f 271/295/568 282/116/568 283/117/568
f 272/297/569 283/117/569 284/119/569
f 284/119/570 285/121/570 274/137/570
f 274/137/571 285/121/571 286/123/571
f 275/298/572 286/123/572 287/124/572
f 276/299/573 287/124/573 288/126/573
f 277/300/574 288/126/574 289/128/574
f 278/301/575 289/128/575 290/130/575
f 290/130/576 291/92/576 280/89/576
f 270/296/577 271/295/577 260/304/577
f 260/304/578 271/295/578 272/297/578
f 272/297/579 273/136/579 262/306/579
f 273/136/580 274/137/580 263/307/580
f 274/137/581 275/298/581 264/308/581
f 275/298/582 276/299/582 265/309/582
f 276/299/583 277/300/583 266/310/583
f 277/300/584 278/301/584 267/311/584
f 278/301/585 279/142/585 268/151/585
f 279/142/586 280/89/586 269/85/586
f 248/302/587 259/294/587 260/304/587
f 249/314/588 260/304/588 261/305/588
f 250/315/589 261/305/589 262/306/589
f 262/306/590 263/307/590 252/317/590
f 263/307/591 264/308/591 253/158/591
f 264/308/592 265/309/592 254/159/592
f 265/309/593 266/310/593 255/318/593
f 266/310/594 267/311/594 256/319/594
f 267/311/595 268/151/595 257/320/595
f 257/320/596 268/151/596 269/85/596
f 237/312/597 248/302/597 249/314/597
f 249/314/598 250/315/598 239/323/598
f 250/315/599 251/316/599 240/324/599
f 251/316/600 252/317/600 241/325/600
f 252/317/601 253/158/601 242/326/601
f 253/158/602 254/159/602 243/327/602
f 254/159/603 255/318/603 244/328/603
f 244/328/604 255/318/604 256/319/604
f 256/319/605 257/320/605 246/330/605
f 257/320/606 258/83/606 247/81/606
f 226/333/607 237/312/607 238/322/607
f 238/322/608 239/323/608 228/335/608
f 239/323/609 240/324/609 229/336/609
f 240/324/610 241/325/610 230/337/610
f 241/325/611 242/326/611 231/338/611
f 231/338/612 242/326/612 243/327/612
f 232/339/613 243/327/613 244/328/613
f 244/328/614 245/329/614 234/341/614
f 234/341/615 245/329/615 246/330/615
f 235/342/616 246/330/616 247/81/616
f 215/345/617 226/333/617 227/334/617
f 227/334/618 228/335/618 217/347/618
f 217/347/619 228/335/619 229/336/619
f 229/336/620 230/337/620 219/191/620
f 219/191/621 230/337/621 231/338/621
f 231/338/622 232/339/622 221/193/622
f 232/339/623 233/340/623 222/349/623
f 222/349/624 233/340/624 234/341/624
f 234/341/625 235/342/625 224/351/625
f 235/342/626 236/79/626 225/80/626
f 204/344/627 215/345/627 216/346/627
f 205/354/628 216/346/628 217/347/628
f 217/347/629 218/348/629 207/356/629
f 207/356/630 218/348/630 219/191/630
f 208/357/580 219/191/580 220/192/580
f 220/192/631 221/193/631 210/359/631
f 210/359/632 221/193/632 222/349/632
f 211/360/633 222/349/633 223/350/633
f 212/361/634 223/350/634 224/351/634
f 224/351/635 225/80/635 214/75/635
f 193/352/636 204/344/636 205/354/636
f 194/209/637 205/354/637 206/355/637
f 195/364/638 206/355/638 207/356/638
f 207/356/639 208/357/639 197/366/639
f 197/366/640 208/357/640 209/358/640
f 209/358/641 210/359/641 199/368/641
f 199/368/642 210/359/642 211/360/642
f 200/215/643 211/360/643 212/361/643
f 212/361/644 213/362/644 202/217/644
f 202/217/645 213/362/645 214/75/645
f 149/241/646 81/242/646 160/243/646
f 182/331/647 193/352/647 194/209/647
f 194/209/648 195/364/648 184/370/648
f 184/370/649 195/364/649 196/365/649
f 185/371/650 196/365/650 197/366/650
f 186/372/651 197/366/651 198/367/651
f 187/373/652 198/367/652 199/368/652
f 199/368/653 200/215/653 189/375/653
f 200/215/654 201/216/654 190/376/654
f 190/376/655 201/216/655 202/217/655
f 191/228/656 202/217/656 203/73/656
f 182/331/657 183/369/657 172/377/657
f 183/369/658 184/370/658 173/378/658
f 184/370/659 185/371/659 174/379/659
f 185/371/660 186/372/660 175/380/660
f 186/372/661 187/373/661 176/381/661
f 187/373/662 188/374/662 177/382/662
f 177/382/663 188/374/663 189/375/663
f 178/238/664 189/375/664 190/376/664
f 190/376/665 191/228/665 180/240/665
f 180/240/666 191/228/666 192/71/666
f 160/243/667 171/332/667 172/377/667
f 172/377/668 173/378/668 162/245/668
f 173/378/669 174/379/669 163/246/669
f 163/246/670 174/379/670 175/380/670
f 164/247/671 175/380/671 176/381/671
f 176/381/672 177/382/672 166/249/672
f 166/249/673 177/382/673 178/238/673
f 167/383/674 178/238/674 179/239/674
f 168/384/675 179/239/675 180/240/675
f 180/240/676 181/72/676 170/67/676
f 494/229/677 138/390/677 80/231/677
f 160/243/678 161/244/678 150/253/678
f 161/244/679 162/245/679 151/385/679
f 162/245/680 163/246/680 152/386/680
f 152/386/681 163/246/681 164/247/681
f 164/247/682 165/248/682 154/257/682
f 165/248/683 166/249/683 155/258/683
f 155/258/684 166/249/684 167/383/684
f 156/259/685 167/383/685 168/384/685
f 168/384/686 169/252/686 158/387/686
f 158/387/687 169/252/687 170/67/687
f 149/241/688 150/253/688 139/389/688
f 139/389/689 150/253/689 151/385/689
f 151/385/690 152/386/690 141/392/690
f 141/392/691 152/386/691 153/256/691
f 153/256/692 154/257/692 143/394/692
f 143/394/693 154/257/693 155/258/693
f 155/258/694 156/259/694 145/269/694
f 156/259/695 157/260/695 146/270/695
f 146/270/696 157/260/696 158/387/696
f 147/396/697 158/387/697 159/68/697
f 127/275/698 138/390/698 139/389/698
f 128/399/699 139/389/699 140/391/699
f 129/400/700 140/391/700 141/392/700
f 130/401/701 141/392/701 142/393/701
f 131/402/702 142/393/702 143/394/702
f 132/403/703 143/394/703 144/395/703
f 144/395/704 145/269/704 134/405/704
f 134/405/705 145/269/705 146/270/705
f 135/406/706 146/270/706 147/396/706
f 147/396/707 148/65/707 137/62/707
f 518/412/708 82/413/708 515/414/708
f 81/415/709 509/416/709 493/417/709
f 515/414/710 492/418/710 512/419/710
f 530/420/711 491/421/711 527/422/711
f 518/412/712 84/423/712 83/424/712
f 524/425/713 84/423/713 521/426/713
f 491/421/714 524/425/714 527/422/714
f 87/272/715 542/427/715 545/428/715
f 533/429/716 490/113/716 530/420/716
f 533/429/717 488/132/717 489/111/717
f 536/430/718 487/262/718 488/132/718
f 542/427/719 487/262/719 539/431/719
f 554/432/720 486/433/720 551/434/720
f 88/435/721 545/436/721 548/437/721
f 486/433/722 548/437/722 551/434/722
f 485/417/723 554/432/723 557/416/723
f 557/416/724 484/418/724 485/417/724
f 566/438/725 91/439/725 90/198/725
f 563/414/726 484/418/726 560/419/726
f 90/198/727 563/414/727 566/438/727
f 92/440/728 572/441/728 575/442/728
f 482/443/729 569/444/729 572/441/729
f 587/431/730 93/132/730 584/430/730
f 481/445/731 575/442/731 578/446/731
f 93/132/732 581/429/732 584/430/732
f 479/262/733 468/273/733 457/114/733
f 590/427/734 479/262/734 587/431/734
f 585/447/735 589/448/735 586/449/735
f 589/448/736 587/431/736 586/449/736
f 585/447/737 583/450/737 582/451/737
f 586/449/738 584/430/738 583/450/738
f 579/452/739 583/450/739 580/453/739
f 580/453/740 584/430/740 581/429/740
f 576/454/741 580/453/741 577/455/741
f 580/453/742 578/446/742 577/455/742
f 573/456/743 577/455/743 574/457/743
f 574/457/744 578/446/744 575/442/744
f 570/458/745 574/457/745 571/459/745
f 574/457/746 572/441/746 571/459/746
f 567/460/747 571/459/747 568/461/747
f 571/459/748 569/444/748 568/461/748
f 567/460/749 565/462/749 564/463/749
f 568/461/750 566/438/750 565/462/750
f 564/463/751 562/464/751 561/465/751
f 562/464/752 566/438/752 563/414/752
f 558/466/753 562/464/753 559/467/753
f 562/464/754 560/419/754 559/467/754
f 558/466/755 556/468/755 555/469/755
f 559/467/756 557/416/756 556/468/756
f 555/469/757 553/470/757 552/471/757
f 553/470/758 557/416/758 554/432/758
f 549/472/759 553/470/759 550/473/759
f 550/473/760 554/432/760 551/434/760
f 546/474/761 550/473/761 547/475/761
f 550/473/762 548/437/762 547/475/762
f 546/474/763 544/476/763 543/477/763
f 547/475/764 545/436/764 544/476/764
f 540/478/765 544/479/765 541/448/765
f 544/479/766 542/427/766 541/448/766
f 537/447/767 541/448/767 538/449/767
f 538/449/768 542/427/768 539/431/768
f 534/480/769 538/449/769 535/450/769
f 538/449/770 536/430/770 535/450/770
f 534/480/771 532/453/771 531/481/771
f 535/450/772 533/429/772 532/453/772
f 531/481/773 529/482/773 528/483/773
f 529/482/774 533/429/774 530/420/774
f 528/483/775 526/484/775 525/485/775
f 529/482/776 527/422/776 526/484/776
f 522/486/777 526/484/777 523/487/777
f 523/487/778 527/422/778 524/425/778
f 522/486/779 520/488/779 519/489/779
f 523/487/780 521/426/780 520/488/780
f 516/490/781 520/488/781 517/491/781
f 520/488/782 518/412/782 517/491/782
f 516/490/783 514/464/783 513/465/783
f 514/464/784 518/412/784 515/414/784
f 510/492/785 514/464/785 511/467/785
f 511/467/786 515/414/786 512/419/786
f 510/492/787 508/468/787 507/469/787
f 508/468/788 512/419/788 509/416/788
f 504/493/789 508/468/789 505/470/789
f 508/468/790 506/432/790 505/470/790
f 504/493/791 502/494/791 501/472/791
f 502/494/792 506/432/792 503/398/792
f 498/474/793 502/494/793 499/495/793
f 499/495/794 503/398/794 500/397/794
f 495/496/795 499/495/795 496/497/795
f 499/495/796 497/498/796 496/497/796
f 81/415/797 503/398/797 506/432/797
f 492/418/798 509/416/798 512/419/798
f 480/111/799 578/446/799 581/429/799
f 585/447/800 588/478/800 589/448/800
f 589/448/801 590/427/801 587/431/801
f 585/447/802 586/449/802 583/450/802
f 586/449/803 587/431/803 584/430/803
f 579/452/804 582/451/804 583/450/804
f 580/453/805 583/450/805 584/430/805
f 576/454/806 579/452/806 580/453/806
f 580/453/742 581/429/742 578/446/742
f 573/456/807 576/454/807 577/455/807
f 574/457/808 577/455/808 578/446/808
f 570/458/809 573/456/809 574/457/809
f 574/457/810 575/442/810 572/441/810
f 567/460/811 570/458/811 571/459/811
f 571/459/812 572/441/812 569/444/812
f 567/460/813 568/461/813 565/462/813
f 568/461/814 569/444/814 566/438/814
f 564/463/815 565/462/815 562/464/815
f 562/464/816 565/462/816 566/438/816
f 558/466/817 561/465/817 562/464/817
f 562/464/818 563/414/818 560/419/818
f 558/466/819 559/467/819 556/468/819
f 559/467/820 560/419/820 557/416/820
f 555/469/821 556/468/821 553/470/821
f 553/470/822 556/468/822 557/416/822
f 549/472/823 552/471/823 553/470/823
f 550/473/824 553/470/824 554/432/824
f 546/474/825 549/472/825 550/473/825
f 550/473/826 551/434/826 548/437/826
f 546/474/827 547/475/827 544/476/827
f 547/475/828 548/437/828 545/436/828
f 540/478/829 543/499/829 544/479/829
f 544/479/830 545/428/830 542/427/830
f 537/447/831 540/478/831 541/448/831
f 538/449/832 541/448/832 542/427/832
f 534/480/833 537/447/833 538/449/833
f 538/449/834 539/431/834 536/430/834
f 534/480/835 535/450/835 532/453/835
f 535/450/836 536/430/836 533/429/836
f 531/481/837 532/453/837 529/482/837
f 529/482/838 532/453/838 533/429/838
f 528/483/839 529/482/839 526/484/839
f 529/482/840 530/420/840 527/422/840
f 522/486/841 525/485/841 526/484/841
f 523/487/842 526/484/842 527/422/842
f 522/486/843 523/487/843 520/488/843
f 523/487/844 524/425/844 521/426/844
f 516/490/845 519/489/845 520/488/845
f 520/488/846 521/426/846 518/412/846
f 516/490/847 517/491/847 514/464/847
f 514/464/848 517/491/848 518/412/848
f 510/492/849 513/465/849 514/464/849
f 511/467/850 514/464/850 515/414/850
f 510/492/851 511/467/851 508/468/851
f 508/468/852 511/467/852 512/419/852
f 504/493/853 507/469/853 508/468/853
f 508/468/854 509/416/854 506/432/854
f 504/493/855 505/470/855 502/494/855
f 502/494/856 505/470/856 506/432/856
f 498/474/857 501/472/857 502/494/857
f 499/495/858 502/494/858 503/398/858
f 495/496/859 498/474/859 499/495/859
f 499/495/860 500/397/860 497/498/860
f 93/132/861 457/114/861 446/133/861
f 480/111/862 435/131/862 424/112/862
f 435/131/863 480/111/863 93/132/863
f 481/113/864 424/112/864 413/152/864
f 482/163/865 92/153/865 413/152/865
f 402/164/866 391/187/866 91/174/866
f 483/184/867 369/197/867 358/185/867
f 369/197/868 483/184/868 90/198/868
f 484/186/869 358/185/869 347/218/869
f 486/229/870 325/241/870 314/230/870
f 325/241/871 486/229/871 89/242/871
f 281/114/872 270/296/872 488/132/872
f 87/272/873 303/285/873 292/273/873
f 487/262/295 86/274/295 292/273/295
f 488/132/874 270/296/874 259/294/874
f 489/111/875 259/294/875 248/302/875
f 490/303/876 248/302/876 237/312/876
f 237/312/877 226/333/877 85/321/877
f 493/219/878 492/363/878 182/331/878
f 84/343/879 215/345/879 204/344/879
f 83/198/880 204/344/880 193/352/880
f 492/363/295 82/353/295 193/352/295
f 493/219/881 171/332/881 160/243/881
f 80/231/882 138/390/882 127/275/882
f 494/229/883 80/231/883 500/397/883
f 91/174/884 391/187/884 380/199/884
f 89/242/885 485/219/885 347/218/885
f 87/388/886 88/231/886 314/230/886
f 84/343/229 85/321/229 226/333/229
f 149/241/887 494/229/887 81/242/887
f 494/229/888 149/241/888 138/390/888
f 518/412/889 83/424/889 82/413/889
f 81/415/890 506/432/890 509/416/890
f 515/414/891 82/413/891 492/418/891
f 530/420/892 490/113/892 491/421/892
f 518/412/893 521/426/893 84/423/893
f 524/425/894 85/500/894 84/423/894
f 491/421/714 85/500/714 524/425/714
f 87/272/895 86/274/895 542/427/895
f 533/429/896 489/111/896 490/113/896
f 533/429/897 536/430/897 488/132/897
f 536/430/898 539/431/898 487/262/898
f 542/427/899 86/274/899 487/262/899
f 554/432/900 89/415/900 486/433/900
f 88/435/901 87/388/901 545/436/901
f 486/433/902 88/435/902 548/437/902
f 485/417/903 89/415/903 554/432/903
f 557/416/904 560/419/904 484/418/904
f 566/438/905 569/444/905 91/439/905
f 563/414/906 483/413/906 484/418/906
f 90/198/907 483/413/907 563/414/907
f 92/440/908 482/443/908 572/441/908
f 482/443/909 91/439/909 569/444/909
f 587/431/910 479/262/910 93/132/910
f 481/445/911 92/440/911 575/442/911
f 93/132/912 480/111/912 581/429/912
f 479/262/913 94/274/913 468/273/913
f 590/427/914 94/274/914 479/262/914
f 81/415/915 494/229/915 503/398/915
f 492/418/916 493/417/916 509/416/916
f 480/111/917 481/445/917 578/446/917
f 93/132/918 479/262/918 457/114/918
f 500/397/919 79/501/919 497/498/919
f 500/397/920 80/231/920 79/501/920
o COUPLER_ENGAGED_REAR_1_TOGGLE_TL_-1_Y_LABEL_left^ckick
v 0.531250 1.187500 -0.750000
v 0.531250 1.187500 0.750000
v 0.593750 1.187500 -0.750000
v 0.531250 1.687500 -0.750000
v 0.531250 1.187500 0.250000
v 0.593750 1.187500 0.750000
v 0.593750 1.187500 0.250000
v 0.593750 1.687500 0.250000
v 0.593750 1.687500 -0.750000
v 0.531250 1.687500 0.250000
v 0.593750 1.687500 0.750000
v 0.531250 1.687500 0.750000
vn -1.0000 -0.0000 -0.0000
vn -0.0000 -1.0000 -0.0000
vn 1.0000 -0.0000 -0.0000
vn -0.0000 -0.0000 1.0000
vn -0.0000 -0.0000 -1.0000
vt 1.000000 0.500000
vt 0.000000 1.000000
vt 0.000000 0.500000
vt 1.000000 0.000000
vt 0.000000 0.062500
vt 0.000000 0.000000
vt 0.500000 0.000000
vt 0.500000 0.500000
vt 0.500000 1.000000
vt 0.062500 1.000000
vt 0.000000 0.500000
vt 1.000000 1.000000
vt 0.937500 0.500000
vt 0.937500 1.000000
vt 1.000000 0.062500
vt 0.500000 0.062500
vt 0.062500 0.500000
s 0
usemtl Wood
f 595/502/921 594/503/921 591/504/921
f 597/505/922 591/506/922 593/507/922
f 596/508/922 595/506/922 597/507/922
f 592/509/921 600/503/921 595/504/921
f 598/505/922 594/506/922 599/507/922
f 601/508/922 600/506/922 598/507/922
f 601/510/923 597/504/923 598/503/923
f 602/511/924 596/512/924 601/503/924
f 599/513/925 591/514/925 594/515/925
f 598/513/923 593/504/923 599/503/923
f 595/502/921 600/513/921 594/503/921
f 597/505/922 595/516/922 591/506/922
f 596/508/922 592/517/922 595/506/922
f 592/509/921 602/510/921 600/503/921
f 598/505/922 600/516/922 594/506/922
f 601/508/922 602/517/922 600/506/922
f 601/510/923 596/509/923 597/504/923
f 602/511/924 592/518/924 596/512/924
f 599/513/925 593/502/925 591/514/925
f 598/513/923 597/502/923 593/504/923
o FRAME
v 0.062500 0.000000 0.499999
v 0.062500 0.062500 0.499999
v -0.062500 0.000000 0.499999
v -0.062500 0.062500 0.499999
v 0.062500 0.000000 -0.499999
v 0.062500 0.062500 -0.499999
v -0.062500 0.000000 -0.499999
v -0.062500 0.062500 -0.499999
v 0.062500 0.125000 0.499999
v -0.062500 0.125000 0.499999
v 0.062500 0.125000 -0.499999
v -0.062500 0.125000 -0.499999
vn -1.0000 -0.0000 -0.0000
vn -0.0000 -0.0000 -1.0000
vn 1.0000 -0.0000 -0.0000
vn -0.0000 -1.0000 -0.0000
vn -0.0000 -0.0000 1.0000
vn -0.0000 1.0000 -0.0000
vt 0.125000 0.625000
vt 0.125000 0.875000
s 0
usemtl rail
f 610/519/926 605/519/926 606/519/926
f 608/519/927 609/519/927 610/519/927
f 604/519/928 607/519/928 608/519/928
f 607/519/929 605/519/929 609/519/929
f 612/520/930 604/520/930 611/520/930
f 614/520/926 606/520/926 612/520/926
f 614/520/927 608/520/927 610/520/927
f 611/520/928 608/520/928 613/520/928
f 611/520/931 614/520/931 612/520/931
f 606/519/930 603/519/930 604/519/930
f 610/519/926 609/519/926 605/519/926
f 608/519/927 607/519/927 609/519/927
f 604/519/928 603/519/928 607/519/928
f 607/519/929 603/519/929 605/519/929
f 612/520/930 606/520/930 604/520/930
f 614/520/926 610/520/926 606/520/926
f 614/520/927 613/520/927 608/520/927
f 611/520/928 604/520/928 608/520/928
f 611/520/931 613/520/931 614/520/931
f 606/519/930 605/519/930 603/519/930
