# Blender 3.6.5
# www.blender.org
mtllib buffer.mtl
o IND_BRAKE_1_TL_-1_Y_LABEL_left^click^drag^down
v 0.468750 0.500000 1.031250
v 0.531250 1.500000 1.031250
v 0.531250 0.500000 0.031250
v 0.531250 0.500000 1.031250
v 0.468750 0.500000 0.031250
v 0.531250 1.500000 0.031250
v 0.468750 0.500000 -0.968750
v 0.468750 0.500000 -1.031250
v 0.531250 1.500000 -0.968750
v 0.531250 0.500000 -0.968750
v 0.531250 0.500000 -1.031250
v 0.531250 1.500000 -1.031250
v -0.531250 0.500000 -0.031250
v -0.531250 1.500000 -0.031250
v -0.531250 0.500000 -1.031250
v -0.531250 1.500000 -1.031250
v -0.468750 0.500000 -1.031250
v -0.468750 0.500000 -0.031250
v -0.531250 0.500000 0.968750
v -0.531250 0.500000 1.031250
v -0.468750 0.500000 1.031250
v -0.468750 0.500000 -0.968750
v 0.468750 1.500000 -0.968750
v -0.468750 0.500000 0.968750
v 0.468750 0.500000 0.968750
v 0.468750 1.500000 1.031250
v 0.531250 2.000000 1.031250
v 0.468750 1.500000 0.031250
v 0.468750 2.000000 0.031250
v 0.468750 2.000000 -0.968750
v 0.531250 2.000000 0.031250
v 0.468750 1.500000 -1.031250
v 0.531250 2.000000 -0.968750
v 0.531250 2.000000 -1.031250
v 0.031250 1.750000 1.031250
v -0.468750 1.500000 -1.031250
v 0.468750 2.000000 -1.031250
v -0.468750 1.500000 -0.031250
v -0.531250 1.500000 0.968750
v -0.531250 1.500000 1.031250
v 0.468750 2.000000 1.031250
v 0.468750 2.000000 0.968750
v -0.468750 1.500000 -0.968750
v -0.468750 1.500000 0.968750
v -0.468750 1.500000 1.031250
v 0.468750 1.500000 0.968750
v 0.281250 2.000000 0.968750
v 0.281250 2.000000 1.031250
v 0.281250 2.000000 -0.968750
v -0.531250 1.625000 -0.031250
v 0.281250 2.000000 -1.031250
v 0.031250 1.750000 0.968750
v -0.468750 1.625000 1.031250
v -0.468750 1.625000 -1.031250
v -0.531250 1.625000 0.968750
v -0.218750 1.625000 1.031250
v -0.468750 1.625000 -0.968750
v 0.031250 1.875000 0.968750
v -0.468750 1.625000 0.968750
v 0.281250 1.875000 -0.968750
v 0.281250 1.875000 1.031250
v -0.218750 1.625000 0.968750
v -0.531250 1.625000 -1.031250
v 0.281250 1.875000 -1.031250
v 0.281250 1.875000 0.968750
v 0.031250 1.875000 -0.968750
v 0.031250 1.750000 -0.968750
v 0.031250 1.875000 1.031250
v -0.218750 1.750000 -1.031250
v 0.031250 1.750000 -1.031250
v -0.218750 1.750000 0.968750
v -0.218750 1.750000 1.031250
v -0.468750 1.625000 -0.031250
v -0.531250 1.625000 1.031250
v 0.031250 1.875000 -1.031250
v -0.218750 1.625000 -1.031250
v -0.218750 1.625000 -0.968750
v -0.218750 1.750000 -0.968750
v 0.531250 1.187500 -0.750000
v 0.531250 1.187500 0.750000
v 0.593750 1.187500 -0.750000
v 0.531250 1.687500 -0.750000
v 0.531250 1.187500 0.250000
v 0.593750 1.187500 0.750000
v 0.593750 1.187500 0.250000
v 0.593750 1.687500 0.250000
v 0.593750 1.687500 -0.750000
v 0.531250 1.687500 0.250000
v 0.593750 1.687500 0.750000
v 0.531250 1.687500 0.750000
vn -1.0000 -0.0000 -0.0000
vn 1.0000 -0.0000 -0.0000
vn -0.0000 -0.0000 1.0000
vn -0.0000 -1.0000 -0.0000
vn -0.0000 -0.0000 -1.0000
vn -0.0000 1.0000 -0.0000
vt 1.000000 0.000000
vt 0.000000 1.000000
vt 0.000000 0.000000
vt 1.000000 1.000000
vt 0.000000 0.062500
vt 0.250000 0.062500
vt 0.125000 0.000000
vt 0.125000 0.062500
vt 0.937500 0.000000
vt 0.937500 1.000000
vt 1.000000 0.062500
vt 0.000000 0.062500
vt 0.937500 0.062500
vt 0.937500 1.000000
vt 0.937500 0.000000
vt 0.937500 0.062500
vt 1.000000 1.000000
vt 1.000000 0.062500
vt 0.062500 1.000000
vt 0.000000 0.000000
vt 0.062500 0.062500
vt 0.000000 0.062500
vt 0.375000 0.062500
vt 0.250000 0.000000
vt 0.250000 0.062500
vt 0.250000 0.500000
vt 0.375000 0.250000
vt 0.062500 0.062500
vt 0.000000 0.250000
vt 0.000000 0.062500
vt 0.062500 0.500000
vt 0.000000 0.750000
vt 0.000000 0.500000
vt 0.062500 0.500000
vt 0.062500 0.000000
vt 0.000000 1.000000
vt 0.000000 0.000000
vt 0.125000 0.750000
vt 0.500000 0.062500
vt 0.375000 0.000000
vt 0.375000 0.062500
vt 0.125000 0.062500
vt 0.375000 0.250000
vt 0.125000 1.000000
vt 0.125000 0.000000
vt 0.062500 0.750000
vt 0.500000 0.000000
vt 0.062500 0.250000
vt 0.062500 0.250000
vt 0.500000 1.000000
vt 0.500000 0.062500
vt 1.000000 0.500000
vt 0.000000 0.500000
vt 0.500000 0.500000
vt 0.000000 0.500000
vt 0.937500 0.500000
vt 1.000000 0.000000
vt 0.062500 0.000000
vt 0.250000 0.750000
vt 0.500000 0.250000
vt 0.375000 0.500000
vt 0.062500 1.000000
vt 0.500000 0.250000
vt 0.125000 1.000000
vt 0.125000 0.062500
vt 0.125000 0.062500
vt 0.062500 0.500000
s 0
usemtl Wood
f 26/1/1 5/2/1 1/3/1
f 6/4/2 4/3/2 3/2/2
f 2/1/3 1/5/3 4/3/3
f 78/6/1 76/7/1 77/8/1
f 3/4/4 1/9/4 5/10/4
f 28/1/1 7/2/1 5/3/1
f 9/4/2 3/3/2 10/2/2
f 10/4/4 5/9/4 7/10/4
f 12/11/2 10/3/2 11/12/2
f 11/11/4 7/9/4 8/13/4
f 32/1/5 11/12/5 8/3/5
f 23/1/1 8/12/1 7/3/1
f 14/4/1 15/3/1 13/2/1
f 36/1/2 18/2/2 17/3/2
f 17/1/4 13/14/4 15/15/4
f 16/1/5 17/12/5 15/3/5
f 39/4/1 13/3/1 19/2/1
f 38/1/2 24/2/2 18/3/2
f 45/1/3 20/5/3 21/3/3
f 18/1/4 19/14/4 13/15/4
f 40/11/1 19/3/1 20/5/1
f 24/1/4 20/16/4 19/15/4
f 44/1/2 21/5/2 24/3/2
f 8/5/5 36/4/5 32/11/5
f 22/17/4 8/16/4 7/18/4
f 25/5/5 44/4/5 46/11/5
f 43/4/3 7/5/3 23/18/3
f 29/19/6 27/20/6 31/2/6
f 30/19/6 31/20/6 33/2/6
f 37/21/6 33/20/6 34/22/6
f 68/23/1 52/24/1 35/25/1
f 46/5/5 52/26/5 65/27/5
f 37/28/6 49/29/6 30/30/6
f 42/28/6 48/29/6 41/30/6
f 52/31/6 72/32/6 35/33/6
f 70/34/6 78/32/6 67/33/6
f 45/4/3 1/5/3 26/18/3
f 21/17/4 25/16/4 1/18/4
f 50/35/6 59/36/6 73/37/6
f 63/35/6 73/36/6 54/37/6
f 26/5/3 35/26/3 56/38/3
f 49/39/1 64/40/1 60/41/1
f 66/41/1 70/24/1 67/6/1
f 74/42/1 39/3/1 40/5/1
f 53/7/3 40/5/3 45/3/3
f 32/5/5 70/26/5 64/43/5
f 55/44/1 14/3/1 39/2/1
f 54/7/2 38/2/2 36/3/2
f 63/7/5 36/12/5 16/3/5
f 72/25/1 62/45/1 56/42/1
f 50/44/1 16/3/1 14/2/1
f 62/46/6 53/36/6 56/32/6
f 59/45/2 45/5/2 44/3/2
f 76/46/6 57/36/6 77/32/6
f 55/35/6 53/30/6 59/37/6
f 67/26/3 77/38/3 23/5/3
f 30/47/1 32/12/1 23/3/1
f 37/47/5 12/12/5 32/3/5
f 65/48/6 68/33/6 61/29/6
f 64/49/6 66/33/6 60/29/6
f 34/39/2 9/3/2 12/12/2
f 33/50/2 6/3/2 9/2/2
f 29/47/1 23/2/1 28/3/1
f 27/47/3 26/5/3 2/3/3
f 31/50/2 2/3/2 6/2/2
f 41/47/1 28/2/1 26/3/1
f 47/47/1 61/23/1 48/51/1
f 73/7/2 44/2/2 38/3/2
f 26/1/1 28/4/1 5/2/1
f 6/4/2 2/1/2 4/3/2
f 2/1/3 26/18/3 1/5/3
f 78/6/1 69/24/1 76/7/1
f 3/4/4 4/57/4 1/9/4
f 28/1/1 23/4/1 7/2/1
f 9/4/2 6/1/2 3/3/2
f 10/4/4 3/57/4 5/9/4
f 12/11/2 9/1/2 10/3/2
f 11/11/4 10/57/4 7/9/4
f 32/1/5 12/18/5 11/12/5
f 23/1/1 32/18/1 8/12/1
f 14/4/1 16/1/1 15/3/1
f 36/1/2 38/4/2 18/2/2
f 17/1/4 18/17/4 13/14/4
f 16/1/5 36/18/5 17/12/5
f 39/4/1 14/1/1 13/3/1
f 38/1/2 44/4/2 24/2/2
f 45/1/3 40/18/3 20/5/3
f 18/1/4 24/17/4 19/14/4
f 40/11/1 39/1/1 19/3/1
f 24/1/4 21/18/4 20/16/4
f 44/1/2 45/18/2 21/5/2
f 8/5/5 17/2/5 36/4/5
f 22/17/4 17/14/4 8/16/4
f 25/5/5 24/2/5 44/4/5
f 43/4/3 22/2/3 7/5/3
f 29/19/6 41/58/6 27/20/6
f 30/19/6 29/58/6 31/20/6
f 37/21/6 30/58/6 33/20/6
f 68/23/1 58/40/1 52/24/1
f 46/5/5 44/2/5 59/44/5
f 62/38/5 71/59/5 52/26/5
f 46/5/5 59/44/5 62/38/5
f 47/60/5 42/51/5 46/5/5
f 52/26/5 58/61/5 65/27/5
f 65/27/5 47/60/5 46/5/5
f 46/5/5 62/38/5 52/26/5
f 37/28/6 51/49/6 49/29/6
f 42/28/6 47/48/6 48/29/6
f 52/31/6 71/46/6 72/32/6
f 70/34/6 69/46/6 78/32/6
f 45/4/3 21/2/3 1/5/3
f 21/17/4 24/14/4 25/16/4
f 50/35/6 55/62/6 59/36/6
f 63/35/6 50/62/6 73/36/6
f 26/5/3 41/51/3 48/63/3
f 61/43/3 68/61/3 35/26/3
f 26/5/3 48/63/3 61/43/3
f 53/64/3 45/2/3 26/5/3
f 35/26/3 72/59/3 56/38/3
f 56/38/3 53/64/3 26/5/3
f 26/5/3 61/43/3 35/26/3
f 49/39/1 51/47/1 64/40/1
f 66/41/1 75/40/1 70/24/1
f 74/42/1 55/45/1 39/3/1
f 53/7/3 74/42/3 40/5/3
f 32/5/5 36/2/5 54/64/5
f 76/38/5 69/59/5 70/26/5
f 32/5/5 54/64/5 76/38/5
f 51/63/5 37/51/5 32/5/5
f 70/26/5 75/61/5 64/43/5
f 64/43/5 51/63/5 32/5/5
f 32/5/5 76/38/5 70/26/5
f 55/44/1 50/45/1 14/3/1
f 54/7/2 73/64/2 38/2/2
f 63/7/5 54/65/5 36/12/5
f 72/25/1 71/24/1 62/45/1
f 50/44/1 63/7/1 16/3/1
f 62/46/6 59/62/6 53/36/6
f 59/45/2 53/66/2 45/5/2
f 76/46/6 54/62/6 57/36/6
f 55/35/6 74/28/6 53/30/6
f 67/26/3 78/59/3 77/38/3
f 77/38/3 57/44/3 43/2/3
f 23/5/3 30/51/3 49/63/3
f 60/43/3 66/61/3 67/26/3
f 23/5/3 49/63/3 60/43/3
f 77/38/3 43/2/3 23/5/3
f 23/5/3 60/43/3 67/26/3
f 30/47/1 37/51/1 32/12/1
f 37/47/5 34/51/5 12/12/5
f 65/48/6 58/31/6 68/33/6
f 64/49/6 75/34/6 66/33/6
f 34/39/2 33/47/2 9/3/2
f 33/50/2 31/47/2 6/3/2
f 29/47/1 30/50/1 23/2/1
f 27/47/3 41/51/3 26/5/3
f 31/50/2 27/47/2 2/3/2
f 41/47/1 29/50/1 28/2/1
f 47/47/1 65/40/1 61/23/1
f 73/7/2 59/44/2 44/2/2
usemtl Red_Wood
f 83/52/1 82/2/1 79/53/1
f 85/1/4 79/5/4 81/3/4
f 84/47/4 83/5/4 85/3/4
f 80/54/1 88/2/1 83/53/1
f 86/1/4 82/5/4 87/3/4
f 89/47/4 88/5/4 86/3/4
f 89/50/2 85/53/2 86/2/2
f 90/19/3 84/55/3 89/2/3
f 87/4/5 79/56/5 82/10/5
f 87/2/2 85/52/2 81/53/2
f 83/52/1 88/4/1 82/2/1
f 85/1/4 83/18/4 79/5/4
f 84/47/4 80/51/4 83/5/4
f 80/54/1 90/50/1 88/2/1
f 86/1/4 88/18/4 82/5/4
f 89/47/4 90/51/4 88/5/4
f 89/50/2 84/54/2 85/53/2
f 90/19/3 80/67/3 84/55/3
f 87/4/5 81/52/5 79/56/5
f 87/2/2 86/4/2 85/52/2
o SHELL_WOOD
v -0.281250 0.634193 -0.968750
v -0.281250 0.609375 -0.906250
v -0.281250 0.590215 -0.781250
v -0.281250 0.609375 -0.593750
v -0.281250 0.590625 -0.531250
v -0.281250 0.596875 -0.468750
v -0.281250 0.590625 -0.406250
v -0.281250 0.609375 -0.031250
v -0.281250 0.628125 0.031250
v -0.281250 0.609364 0.093750
v -0.281250 0.590625 0.218750
v -0.281250 0.609364 0.468750
v -0.281250 0.614488 0.531250
v -0.281250 0.634375 0.656250
v -0.281250 0.552203 0.843750
v -0.281250 0.608453 0.968750
v 0.468750 0.881250 0.968750
v 0.468750 0.962500 0.906250
v 0.468750 0.937500 0.843750
v 0.468750 0.925000 0.781250
v 0.468750 0.962500 0.718750
v 0.468750 0.962500 0.656250
v 0.468750 0.918750 0.593750
v 0.468750 0.881250 0.531250
v 0.468750 0.943750 0.468750
v 0.468750 0.962500 0.406250
v 0.468750 0.962500 0.343750
v 0.468750 0.937500 0.281250
v 0.468750 0.918750 0.218750
v 0.468750 0.962500 0.156250
v 0.468750 0.943750 0.093750
v 0.468750 0.956250 0.031250
v 0.468750 0.937500 -0.031250
v 0.468750 0.937500 -0.093750
v 0.468750 0.943750 -0.156250
v 0.468750 0.937500 -0.218750
v 0.468750 0.943750 -0.281250
v 0.468750 0.918750 -0.343750
v 0.468750 0.918750 -0.406250
v 0.468750 0.925000 -0.468750
v 0.468750 0.918750 -0.531250
v 0.468750 0.937500 -0.593750
v 0.468750 0.937500 -0.656250
v 0.468750 0.962500 -0.718750
v 0.468750 0.956250 -0.781250
v 0.468750 0.918750 -0.843750
v 0.468750 0.937500 -0.906250
v 0.468750 0.937500 -0.968750
v -0.218750 0.579464 -0.968750
v -0.156250 0.688844 -0.968750
v -0.093750 0.697641 -0.968750
v -0.031250 0.718750 -0.968750
v 0.031250 0.770782 -0.968750
v 0.093750 0.754483 -0.968750
v 0.156250 0.807004 -0.968750
v 0.218750 0.796024 -0.968750
v 0.281250 0.861673 -0.968750
v 0.343750 0.906729 -0.968750
v 0.406250 0.933050 -0.968750
v -0.218750 0.642956 -0.906250
v -0.156250 0.664062 -0.906250
v -0.093750 0.691406 -0.906250
v -0.031250 0.731182 -0.906250
v 0.031250 0.727168 -0.906250
v 0.093750 0.791983 -0.906250
v 0.156250 0.800781 -0.906250
v 0.218750 0.809068 -0.906250
v 0.281250 0.879743 -0.906250
v 0.343750 0.863451 -0.906250
v 0.406250 0.927702 -0.906250
v -0.218750 0.661110 -0.843750
v -0.156250 0.670094 -0.843750
v -0.093750 0.660095 -0.843750
v -0.031250 0.700000 -0.843750
v 0.031250 0.745918 -0.843750
v 0.093750 0.773233 -0.843750
v 0.156250 0.824448 -0.843750
v 0.218750 0.833829 -0.843750
v 0.281250 0.836719 -0.843750
v 0.343750 0.864062 -0.843750
v 0.406250 0.929123 -0.843750
v -0.218750 0.604674 -0.781250
v -0.156250 0.663939 -0.781250
v -0.093750 0.697595 -0.781250
v -0.031250 0.699386 -0.781250
v 0.031250 0.752266 -0.781250
v 0.093750 0.779596 -0.781250
v 0.156250 0.806922 -0.781250
v 0.218750 0.808151 -0.781250
v 0.281250 0.898493 -0.781250
v 0.343750 0.907744 -0.781250
v 0.406250 0.915865 -0.781250
v -0.218750 0.642857 -0.718750
v -0.156250 0.644643 -0.718750
v -0.093750 0.691163 -0.718750
v -0.031250 0.718477 -0.718750
v 0.031250 0.745782 -0.718750
v 0.093750 0.740352 -0.718750
v 0.156250 0.767334 -0.718750
v 0.218750 0.853125 -0.718750
v 0.281250 0.861310 -0.718750
v 0.343750 0.816025 -0.718750
v 0.406250 0.915202 -0.718750
v -0.218750 0.661520 -0.656250
v -0.156250 0.688844 -0.656250
v -0.093750 0.659777 -0.656250
v -0.031250 0.718750 -0.656250
v 0.031250 0.746094 -0.656250
v 0.093750 0.773438 -0.656250
v 0.156250 0.800781 -0.656250
v 0.218750 0.834341 -0.656250
v 0.281250 0.855469 -0.656250
v 0.343750 0.888994 -0.656250
v 0.406250 0.916270 -0.656250
v -0.218750 0.661520 -0.593750
v -0.156250 0.670299 -0.593750
v -0.093750 0.691406 -0.593750
v -0.031250 0.718750 -0.593750
v 0.031250 0.752324 -0.593750
v 0.093750 0.798073 -0.593750
v 0.156250 0.831349 -0.593750
v 0.218750 0.840488 -0.593750
v 0.281250 0.861673 -0.593750
v 0.343750 0.906729 -0.593750
v 0.406250 0.890202 -0.593750
v -0.218750 0.648908 -0.531250
v -0.156250 0.663939 -0.531250
v -0.093750 0.715663 -0.531250
v -0.031250 0.760798 -0.531250
v 0.031250 0.752032 -0.531250
v 0.093750 0.754687 -0.531250
v 0.156250 0.824448 -0.531250
v 0.218750 0.839774 -0.531250
v 0.281250 0.836719 -0.531250
v 0.343750 0.904560 -0.531250
v 0.406250 0.849362 -0.531250
v -0.218750 0.617956 -0.468750
v -0.156250 0.645299 -0.468750
v -0.093750 0.634413 -0.468750
v -0.031250 0.718682 -0.468750
v 0.031250 0.727324 -0.468750
v 0.093750 0.754665 -0.468750
v 0.156250 0.806785 -0.468750
v 0.218750 0.809341 -0.468750
v 0.281250 0.878844 -0.468750
v 0.343750 0.888451 -0.468750
v 0.406250 0.891270 -0.468750
v -0.218750 0.580022 -0.406250
v -0.156250 0.694439 -0.406250
v -0.093750 0.672656 -0.406250
v -0.031250 0.718596 -0.406250
v 0.031250 0.727344 -0.406250
v 0.093750 0.742096 -0.406250
v 0.156250 0.806594 -0.406250
v 0.218750 0.833829 -0.406250
v 0.281250 0.894781 -0.406250
v 0.343750 0.887980 -0.406250
v 0.406250 0.929123 -0.406250
v -0.218750 0.661110 -0.343750
v -0.156250 0.670094 -0.343750
v -0.093750 0.715663 -0.343750
v -0.031250 0.718596 -0.343750
v 0.031250 0.752032 -0.343750
v 0.093750 0.779323 -0.343750
v 0.156250 0.806594 -0.343750
v 0.218750 0.851463 -0.343750
v 0.281250 0.855060 -0.343750
v 0.343750 0.904560 -0.343750
v 0.406250 0.929123 -0.343750
v -0.218750 0.605022 -0.281250
v -0.156250 0.645094 -0.281250
v -0.093750 0.734610 -0.281250
v -0.031250 0.699727 -0.281250
v 0.031250 0.770918 -0.281250
v 0.093750 0.773415 -0.281250
v 0.156250 0.800754 -0.281250
v 0.218750 0.808829 -0.281250
v 0.281250 0.835993 -0.281250
v 0.343750 0.889063 -0.281250
v 0.406250 0.933952 -0.281250
v -0.218750 0.636719 -0.218750
v -0.156250 0.707143 -0.218750
v -0.093750 0.697641 -0.218750
v -0.031250 0.699846 -0.218750
v 0.031250 0.770782 -0.218750
v 0.093750 0.816075 -0.218750
v 0.156250 0.807004 -0.218750
v 0.218750 0.828125 -0.218750
v 0.281250 0.855469 -0.218750
v 0.343750 0.870040 -0.218750
v 0.406250 0.844463 -0.218750
v -0.218750 0.642969 -0.156250
v -0.156250 0.688939 -0.156250
v -0.093750 0.691391 -0.156250
v -0.031250 0.718733 -0.156250
v 0.031250 0.746074 -0.156250
v 0.093750 0.798233 -0.156250
v 0.156250 0.837599 -0.156250
v 0.218750 0.808829 -0.156250
v 0.281250 0.835993 -0.156250
v 0.343750 0.882744 -0.156250
v 0.406250 0.933952 -0.156250
v -0.218750 0.636719 -0.093750
v -0.156250 0.664062 -0.093750
v -0.093750 0.691406 -0.093750
v -0.031250 0.699846 -0.093750
v 0.031250 0.752324 -0.093750
v 0.093750 0.804119 -0.093750
v 0.156250 0.800781 -0.093750
v 0.218750 0.828125 -0.093750
v 0.281250 0.861673 -0.093750
v 0.343750 0.849879 -0.093750
v 0.406250 0.910156 -0.093750
v -0.218750 0.661520 -0.031250
v -0.156250 0.645190 -0.031250
v -0.093750 0.659777 -0.031250
v -0.031250 0.743477 -0.031250
v 0.031250 0.788889 -0.031250
v 0.093750 0.773438 -0.031250
v 0.156250 0.781785 -0.031250
v 0.218750 0.840488 -0.031250
v 0.281250 0.836310 -0.031250
v 0.343750 0.906729 -0.031250
v 0.406250 0.933050 -0.031250
v -0.218750 0.636607 0.031250
v -0.156250 0.670258 0.031250
v -0.093750 0.703891 0.031250
v -0.031250 0.743733 0.031250
v 0.031250 0.752266 0.031250
v 0.093750 0.798415 0.031250
v 0.156250 0.831922 0.031250
v 0.218750 0.808151 0.031250
v 0.281250 0.880423 0.031250
v 0.343750 0.888790 0.031250
v 0.406250 0.915865 0.031250
v -0.218750 0.642969 0.093750
v -0.156250 0.676549 0.093750
v -0.093750 0.691391 0.093750
v -0.031250 0.743596 0.093750
v 0.031250 0.770918 0.093750
v 0.093750 0.754323 0.093750
v 0.156250 0.825535 0.093750
v 0.218750 0.808829 0.093750
v 0.281250 0.897594 0.093750
v 0.343750 0.907201 0.093750
v 0.406250 0.933952 0.093750
v -0.218750 0.649169 0.156250
v -0.156250 0.689062 0.156250
v -0.093750 0.703846 0.156250
v -0.031250 0.731182 0.156250
v 0.031250 0.726389 0.156250
v 0.093750 0.785846 0.156250
v 0.156250 0.825781 0.156250
v 0.218750 0.834068 0.156250
v 0.281250 0.880469 0.156250
v 0.343750 0.860810 0.156250
v 0.406250 0.885373 0.156250
v -0.218750 0.617969 0.218750
v -0.156250 0.688393 0.218750
v -0.093750 0.691270 0.218750
v -0.031250 0.700000 0.218750
v 0.031250 0.727344 0.218750
v 0.093750 0.797325 0.218750
v 0.156250 0.806594 0.218750
v 0.218750 0.851463 0.218750
v 0.281250 0.878265 0.218750
v 0.343750 0.824155 0.218750
v 0.406250 0.929123 0.218750
v -0.218750 0.579464 0.281250
v -0.156250 0.670299 0.281250
v -0.093750 0.672520 0.281250
v -0.031250 0.718750 0.281250
v 0.031250 0.688268 0.281250
v 0.093750 0.754483 0.281250
v 0.156250 0.807004 0.281250
v 0.218750 0.809068 0.281250
v 0.281250 0.823087 0.281250
v 0.343750 0.882812 0.281250
v 0.406250 0.916270 0.281250
v -0.218750 0.661719 0.343750
v -0.156250 0.644643 0.343750
v -0.093750 0.747277 0.343750
v -0.031250 0.724846 0.343750
v 0.031250 0.745782 0.343750
v 0.093750 0.779482 0.343750
v 0.156250 0.767334 0.343750
v 0.218750 0.807713 0.343750
v 0.281250 0.834515 0.343750
v 0.343750 0.860810 0.343750
v 0.406250 0.908050 0.343750
v -0.218750 0.661719 0.406250
v -0.156250 0.670189 0.406250
v -0.093750 0.691163 0.406250
v -0.031250 0.699164 0.406250
v 0.031250 0.726389 0.406250
v 0.093750 0.753575 0.406250
v 0.156250 0.767334 0.406250
v 0.218750 0.827579 0.406250
v 0.281250 0.854743 0.406250
v 0.343750 0.937379 0.406250
v 0.406250 0.915202 0.406250
v -0.218750 0.605022 0.468750
v -0.156250 0.688939 0.468750
v -0.093750 0.697656 0.468750
v -0.031250 0.699727 0.468750
v 0.031250 0.770918 0.468750
v 0.093750 0.828236 0.468750
v 0.156250 0.781594 0.468750
v 0.218750 0.858829 0.468750
v 0.281250 0.835993 0.468750
v 0.343750 0.907201 0.468750
v 0.406250 0.889300 0.468750
v -0.218750 0.635714 0.531250
v -0.156250 0.668949 0.531250
v -0.093750 0.696142 0.531250
v -0.031250 0.723298 0.531250
v 0.031250 0.768977 0.531250
v 0.093750 0.771602 0.531250
v 0.156250 0.804324 0.531250
v 0.218750 0.849461 0.531250
v 0.281250 0.857281 0.531250
v 0.343750 0.877530 0.531250
v 0.406250 0.905080 0.531250
v -0.218750 0.642770 0.593750
v -0.156250 0.676221 0.593750
v -0.093750 0.697413 0.593750
v -0.031250 0.742914 0.593750
v 0.031250 0.799918 0.593750
v 0.093750 0.797325 0.593750
v 0.156250 0.782031 0.593750
v 0.218750 0.833829 0.593750
v 0.281250 0.836719 0.593750
v 0.343750 0.864062 0.593750
v 0.406250 0.914300 0.593750
v -0.218750 0.578783 0.656250
v -0.156250 0.644643 0.656250
v -0.093750 0.671913 0.656250
v -0.031250 0.724846 0.656250
v 0.031250 0.745782 0.656250
v 0.093750 0.753575 0.656250
v 0.156250 0.806785 0.656250
v 0.218750 0.840488 0.656250
v 0.281250 0.834515 0.656250
v 0.343750 0.846280 0.656250
v 0.406250 0.915202 0.656250
v -0.218750 0.661719 0.718750
v -0.156250 0.644643 0.718750
v -0.093750 0.697520 0.718750
v -0.031250 0.718477 0.718750
v 0.031250 0.771094 0.718750
v 0.093750 0.773073 0.718750
v 0.156250 0.806785 0.718750
v 0.218750 0.840488 0.718750
v 0.281250 0.854743 0.718750
v 0.343750 0.907812 0.718750
v 0.406250 0.935156 0.718750
v -0.218750 0.661272 0.781250
v -0.156250 0.645299 0.781250
v -0.093750 0.715860 0.781250
v -0.031250 0.661664 0.781250
v 0.031250 0.770392 0.781250
v 0.093750 0.785573 0.781250
v 0.156250 0.812844 0.781250
v 0.218750 0.809341 0.781250
v 0.281250 0.878844 0.781250
v 0.343750 0.863994 0.781250
v 0.406250 0.891270 0.781250
v -0.218750 0.661520 0.843750
v -0.156250 0.707143 0.843750
v -0.093750 0.697641 0.843750
v -0.031250 0.724983 0.843750
v 0.031250 0.752324 0.843750
v 0.093750 0.754483 0.843750
v 0.156250 0.781785 0.843750
v 0.218750 0.828125 0.843750
v 0.281250 0.836310 0.843750
v 0.343750 0.863451 0.843750
v 0.406250 0.933050 0.843750
v -0.218750 0.636520 0.906250
v -0.156250 0.670189 0.906250
v -0.093750 0.697520 0.906250
v -0.031250 0.699164 0.906250
v 0.031250 0.752168 0.906250
v 0.093750 0.785846 0.906250
v 0.156250 0.780698 0.906250
v 0.218750 0.827579 0.906250
v 0.281250 0.898810 0.906250
v 0.343750 0.860810 0.906250
v 0.406250 0.915202 0.906250
v -0.218750 0.641728 0.968750
v -0.156250 0.687699 0.968750
v -0.093750 0.702331 0.968750
v -0.031250 0.742048 0.968750
v 0.031250 0.750400 0.968750
v 0.093750 0.796174 0.968750
v 0.156250 0.804324 0.968750
v 0.218750 0.808151 0.968750
v 0.281250 0.857281 0.968750
v 0.343750 0.861655 0.968750
v 0.406250 0.900713 0.968750
v -0.281250 0.634375 0.906250
v -0.281250 0.609329 0.781250
v -0.281250 0.609193 0.718750
v -0.281250 0.609272 0.593750
v -0.281250 0.590067 0.406250
v -0.281250 0.634375 0.343750
v -0.281250 0.609375 0.281250
v -0.281250 0.590067 0.156250
v -0.281250 0.609375 -0.093750
v -0.281250 0.590443 -0.156250
v -0.281250 0.609375 -0.218750
v -0.281250 0.615625 -0.281250
v -0.281250 0.590625 -0.343750
v -0.281250 0.609375 -0.656250
v -0.281250 0.609193 -0.718750
v -0.281250 0.590625 -0.843750
v -0.468750 0.533585 -0.968750
v -0.406250 0.579531 -0.968750
v -0.343750 0.606863 -0.968750
v -0.468750 0.552198 -0.906250
v -0.406250 0.535850 -0.906250
v -0.343750 0.600687 -0.906250
v -0.468750 0.508594 -0.843750
v -0.406250 0.535937 -0.843750
v -0.343750 0.606516 -0.843750
v -0.468750 0.570948 -0.781250
v -0.406250 0.579678 -0.781250
v -0.343750 0.588239 -0.781250
v -0.468750 0.533512 -0.718750
v -0.406250 0.496791 -0.718750
v -0.343750 0.588187 -0.718750
v -0.468750 0.527344 -0.656250
v -0.406250 0.560928 -0.656250
v -0.343750 0.588271 -0.656250
v -0.468750 0.533585 -0.593750
v -0.406250 0.579531 -0.593750
v -0.343750 0.563187 -0.593750
v -0.468750 0.508594 -0.531250
v -0.406250 0.579209 -0.531250
v -0.343750 0.525403 -0.531250
v -0.468750 0.552016 -0.468750
v -0.406250 0.560850 -0.468750
v -0.343750 0.563271 -0.468750
v -0.468750 0.570183 -0.406250
v -0.406250 0.560781 -0.406250
v -0.343750 0.606516 -0.406250
v -0.468750 0.527262 -0.343750
v -0.406250 0.579209 -0.343750
v -0.343750 0.606516 -0.343750
v -0.468750 0.508448 -0.281250
v -0.406250 0.560938 -0.281250
v -0.343750 0.606937 -0.281250
v -0.468750 0.527344 -0.218750
v -0.406250 0.542148 -0.218750
v -0.343750 0.524930 -0.218750
v -0.468750 0.508448 -0.156250
v -0.406250 0.554678 -0.156250
v -0.343750 0.606937 -0.156250
v -0.468750 0.533585 -0.093750
v -0.406250 0.523193 -0.093750
v -0.343750 0.582031 -0.093750
v -0.468750 0.508512 -0.031250
v -0.406250 0.579531 -0.031250
v -0.343750 0.606863 -0.031250
v -0.468750 0.552335 0.031250
v -0.406250 0.560898 0.031250
v -0.343750 0.588239 0.031250
v -0.468750 0.570766 0.093750
v -0.406250 0.579600 0.093750
v -0.343750 0.606937 0.093750
v -0.468750 0.552344 0.156250
v -0.406250 0.535459 0.156250
v -0.343750 0.562766 0.156250
v -0.468750 0.551897 0.218750
v -0.406250 0.498086 0.218750
v -0.343750 0.606516 0.218750
v -0.468750 0.495866 0.281250
v -0.406250 0.554688 0.281250
v -0.343750 0.588271 0.281250
v -0.468750 0.508147 0.343750
v -0.406250 0.535459 0.343750
v -0.343750 0.581863 0.343750
v -0.468750 0.527198 0.406250
v -0.406250 0.610693 0.406250
v -0.343750 0.588187 0.406250
v -0.468750 0.508448 0.468750
v -0.406250 0.579600 0.468750
v -0.343750 0.563113 0.468750
v -0.468750 0.532683 0.531250
v -0.406250 0.553897 0.531250
v -0.343750 0.587231 0.531250
v -0.468750 0.508594 0.593750
v -0.406250 0.535937 0.593750
v -0.343750 0.588113 0.593750
v -0.468750 0.508147 0.656250
v -0.406250 0.522647 0.656250
v -0.343750 0.588187 0.656250
v -0.468750 0.527198 0.718750
v -0.406250 0.579687 0.718750
v -0.343750 0.607031 0.718750
v -0.468750 0.552016 0.781250
v -0.406250 0.535928 0.781250
v -0.343750 0.563271 0.781250
v -0.468750 0.508512 0.843750
v -0.406250 0.535850 0.843750
v -0.343750 0.606863 0.843750
v -0.468750 0.571012 0.906250
v -0.406250 0.535459 0.906250
v -0.343750 0.588187 0.906250
v -0.468750 0.532683 0.968750
v -0.406250 0.535586 0.968750
v -0.343750 0.581180 0.968750
v -0.250000 2.000000 0.250000
v -0.250000 2.500000 0.250000
v -0.250000 2.000000 -0.250000
v -0.250000 2.500000 -0.250000
v 0.250000 2.000000 0.250000
v 0.250000 2.500000 0.250000
v 0.250000 2.000000 -0.250000
v 0.250000 2.500000 -0.250000
vn -0.0710 0.9975 -0.0000
vn -0.1485 0.9472 0.2842
vn 0.1603 0.9656 0.2048
vn -0.5408 0.8370 -0.0837
vn -0.6034 0.7973 -0.0136
vn -0.2991 0.8807 0.3673
vn -0.5352 0.7072 0.4621
vn -0.7414 0.6678 -0.0668
vn -0.4191 0.7766 -0.4703
vn 0.1637 0.9865 -0.0000
vn 0.1633 0.9837 -0.0760
vn -0.0894 0.5703 0.8166
vn -0.8288 0.5568 -0.0557
vn -0.1541 0.9831 0.0983
vn -0.3800 0.8686 -0.3182
vn -0.0685 0.9620 0.2645
vn -0.5274 0.8161 -0.2362
vn -0.1228 0.7836 0.6090
vn -0.7110 0.5761 -0.4033
vn 0.1605 0.9668 0.1988
vn -0.3008 0.8855 -0.3542
vn -0.6569 0.7540 -0.0000
vn -0.5730 0.7571 0.3138
vn -0.5245 0.6020 0.6020
vn 0.3529 0.9256 -0.1365
vn -0.0710 0.9974 -0.0144
vn -0.6034 0.7974 -0.0000
vn -0.3371 0.7705 0.5410
vn -0.4094 0.7585 -0.5070
vn -0.0683 0.9593 0.2739
vn -0.4190 0.5536 0.7197
vn -0.6434 0.7655 -0.0017
vn -0.4605 0.8548 -0.2395
vn -0.3881 0.8875 -0.2486
vn -0.0262 0.9967 -0.0767
vn -0.6466 0.7625 0.0216
vn -0.4694 0.8712 -0.1440
vn 0.0810 0.9834 -0.1625
vn -0.5744 0.7657 -0.2895
vn -0.7364 0.6461 0.2008
vn 0.5195 0.8544 -0.0116
vn -0.6565 0.7543 -0.0102
vn -0.8681 0.4963 -0.0020
vn -0.5610 0.7686 0.3074
vn 0.1503 0.9886 0.0019
vn -0.3748 0.8569 0.3540
vn -0.0345 0.9994 0.0025
vn -0.3637 0.8326 -0.4178
vn -0.5955 0.8032 0.0140
vn -0.0922 0.7041 -0.7041
vn -0.2935 0.6760 -0.6760
vn -0.7437 0.6679 0.0282
vn 0.2476 0.9689 -0.0038
vn -0.7350 0.6510 0.1898
vn 0.6398 0.7378 0.2151
vn -0.8581 0.4933 0.1426
vn -0.2125 0.8749 0.4352
vn -0.3639 0.8340 0.4149
vn 0.0536 0.9563 -0.2874
vn -0.7290 0.6555 -0.1970
vn 0.2312 0.9729 0.0085
vn -0.3411 0.7815 -0.5224
vn 0.6364 0.7155 0.2883
vn 0.2635 0.9646 0.0069
vn -0.6303 0.7450 -0.2186
vn -0.2408 0.7182 0.6528
vn -0.5288 0.6281 0.5709
vn -0.0317 0.9994 0.0112
vn -0.4730 0.8769 -0.0850
vn -0.4347 0.8060 0.4017
vn -0.2000 0.8769 0.4370
vn -0.5709 0.6723 0.4713
vn -0.3372 0.7708 0.5404
vn -0.3507 0.6544 0.6699
vn -0.5356 0.5082 -0.6744
vn -0.3744 0.8581 -0.3515
vn -0.6443 0.7608 0.0775
vn -0.2965 0.8852 -0.3585
vn -0.1148 0.9207 -0.3729
vn -0.6483 0.7614 -0.0000
vn -0.4746 0.8802 -0.0000
vn 0.0951 0.9955 -0.0000
vn -0.1330 0.7063 -0.6953
vn -0.7243 0.6568 -0.2097
vn -0.4711 0.8790 0.0733
vn -0.3503 0.6545 0.6700
vn -0.2995 0.8834 0.3604
vn -0.5589 0.7678 0.3133
vn -0.6590 0.7226 0.2089
vn 0.0340 0.8188 0.5731
vn 0.2218 0.9066 -0.3591
vn -0.6360 0.7674 -0.0818
vn -0.0459 0.9933 -0.1058
vn -0.3879 0.8865 0.2522
vn -0.6116 0.7609 0.2165
vn -0.3361 0.7683 0.5447
vn -0.4670 0.8783 -0.1022
vn -0.3967 0.9118 -0.1061
vn -0.3830 0.8814 -0.2766
vn -0.5479 0.7497 -0.3711
vn -0.0376 0.8956 -0.4434
vn -0.4358 0.8323 -0.3426
vn -0.5624 0.7788 0.2778
vn -0.1180 0.9433 0.3103
vn -0.3019 0.9319 0.2008
vn -0.3957 0.8978 0.1935
vn 0.0514 0.7397 0.6710
vn -0.7878 0.5867 0.1877
vn -0.1381 0.9901 0.0240
vn -0.0331 0.9992 0.0242
vn -0.7513 0.6596 0.0205
vn -0.6757 0.7368 0.0229
vn 0.5742 0.7694 -0.2798
vn -0.7739 0.6263 0.0939
vn 0.3398 0.9301 0.1394
vn -0.7333 0.6436 -0.2192
vn 0.2505 0.8746 0.4152
vn -0.0999 0.7369 0.6685
vn -0.3060 0.9119 -0.2736
vn -0.1263 0.9867 -0.1025
vn -0.3343 0.7676 -0.5469
vn -0.2689 0.6182 -0.7385
vn -0.1399 0.6356 -0.7592
vn -0.6530 0.6774 -0.3387
vn -0.3623 0.8337 -0.4168
vn -0.7848 0.5936 0.1781
vn 0.3115 0.8778 0.3638
vn 0.4061 0.8485 -0.3394
vn 0.2635 0.9646 -0.0000
vn -0.8354 0.5087 -0.2079
vn 0.3150 0.8779 0.3607
vn -0.3047 0.9097 0.2822
vn -0.4578 0.8491 0.2635
vn 0.1908 0.9816 -0.0000
vn -0.5243 0.8115 -0.2580
vn -0.3783 0.8822 -0.2804
vn -0.2571 0.6111 -0.7487
vn -0.4312 0.5705 -0.6990
vn -0.4570 0.8499 0.2624
vn -0.8024 0.5521 0.2266
vn -0.0228 0.6412 -0.7670
vn -0.4286 0.5795 -0.6931
vn 0.4367 0.8954 -0.0873
vn -0.7013 0.6619 -0.2648
vn -0.5786 0.6886 0.4371
vn -0.0330 0.9992 0.0217
vn -0.2188 0.9755 0.0211
vn -0.6849 0.7167 -0.1311
vn -0.4507 0.8420 0.2964
vn -0.3645 0.8332 0.4159
vn -0.6923 0.6144 0.3785
vn -0.0440 0.9569 0.2871
vn -0.1326 0.9494 0.2848
vn -0.3478 0.7950 0.4970
vn -0.6885 0.6149 0.3845
vn -0.1214 0.8187 0.5612
vn -0.5108 0.7115 0.4826
vn -0.3061 0.7137 0.6301
vn 0.5444 0.6288 0.5552
vn -0.8545 0.5088 0.1046
vn -0.4959 0.7769 0.3879
vn -0.2259 0.9550 0.1922
vn -0.3645 0.8333 0.4157
vn 0.0764 0.9970 -0.0152
vn -0.6832 0.7182 -0.1319
vn -0.5213 0.8158 0.2504
vn -0.1257 0.9484 0.2911
vn -0.5959 0.8026 0.0283
vn 0.2619 0.8325 0.4882
vn -0.3065 0.7798 -0.5459
vn -0.3862 0.8828 -0.2674
vn -0.4661 0.8675 -0.1737
vn -0.2268 0.9550 -0.1912
vn -0.6337 0.7587 -0.1512
vn -0.3354 0.7673 0.5466
vn 0.2307 0.8688 -0.4382
vn -0.7516 0.6596 -0.0026
vn 0.2582 0.9661 -0.0038
vn -0.8077 0.5687 0.1558
vn -0.1225 0.7969 0.5915
vn -0.3250 0.7594 0.5637
vn -0.6243 0.7483 -0.2245
vn -0.4722 0.8771 -0.0883
vn -0.4667 0.8672 0.1734
vn -0.5301 0.8315 0.1663
vn -0.1353 0.9908 0.0022
vn -0.5166 0.6996 0.4936
vn -0.4013 0.7485 0.5280
vn 0.3555 0.9346 -0.0101
vn -0.7445 0.6438 -0.1769
vn -0.1280 0.9563 -0.2627
vn -0.3837 0.8858 -0.2609
vn -0.3767 0.8610 -0.3417
vn 0.2359 0.9027 0.3598
vn -0.2117 0.9071 -0.3638
vn -0.8013 0.5983 -0.0025
vn -0.5878 0.8090 -0.0033
vn 0.2238 0.9050 -0.3617
vn -0.1231 0.9215 -0.3683
vn -0.5910 0.6292 -0.5048
vn 0.0545 0.8158 -0.5758
vn -0.7347 0.6521 0.1872
vn -0.3752 0.8910 0.2557
vn -0.3636 0.8312 0.4206
vn -0.1101 0.8150 -0.5689
vn -0.5868 0.6989 -0.4089
vn -0.5818 0.7020 -0.4107
vn 0.0510 0.9555 0.2904
vn -0.3861 0.8826 0.2682
vn -0.4453 0.8297 0.3367
vn 0.1383 0.7326 -0.6664
vn -0.6713 0.6960 -0.2549
vn -0.3862 0.8828 0.2674
vn -0.5906 0.8030 0.0803
vn -0.0392 0.9992 -0.0002
vn -0.3863 0.8830 0.2668
vn -0.6391 0.7658 -0.0721
vn -0.4770 0.7573 0.4461
vn 0.4026 0.8746 -0.2700
vn -0.3730 0.8582 -0.3526
vn -0.5520 0.7380 0.3881
vn -0.5871 0.7165 0.3768
vn 0.1665 0.9812 0.0981
vn -0.7463 0.6623 -0.0662
vn 0.1496 0.9838 0.0984
vn -0.0351 0.9944 0.0994
vn -0.7358 0.6483 -0.1959
vn -0.5589 0.7712 0.3049
vn 0.1382 0.9524 0.2719
vn -0.2904 0.8594 -0.4207
vn -0.3857 0.8816 0.2722
vn -0.2173 0.9319 0.2904
vn 0.3722 0.9095 -0.1849
vn -0.7232 0.6413 -0.2565
vn -0.4141 0.6459 -0.6413
vn -0.7766 0.5422 0.3207
vn 0.4874 0.8732 -0.0017
vn -0.7515 0.6597 -0.0013
vn -0.0399 0.9992 0.0022
vn -0.3398 0.7768 -0.5302
vn -0.1275 0.9869 -0.0987
vn -0.3835 0.8824 -0.2724
vn -0.6297 0.7416 -0.2311
vn -0.3803 0.5296 0.7582
vn -0.7482 0.6635 -0.0000
vn -0.1323 0.9203 0.3681
vn -0.5606 0.7689 0.3075
vn -0.0449 0.9560 -0.2898
vn -0.4558 0.8521 0.2573
vn -0.3857 0.8832 -0.2669
vn -0.3984 0.9131 0.0863
vn -0.5815 0.8100 0.0757
vn -0.0550 0.9550 0.2914
vn -0.6038 0.7624 0.2326
vn -0.3564 0.9069 0.2249
vn -0.4586 0.8515 -0.2543
vn -0.8627 0.4712 0.1836
vn 0.3089 0.8862 0.3452
vn -0.5180 0.7047 -0.4849
vn -0.1386 0.9903 -0.0000
vn -0.2144 0.9084 -0.3588
vn -0.7181 0.6959 -0.0000
vn -0.3868 0.8875 -0.2504
vn -0.6844 0.7017 -0.1980
vn 0.1046 0.9613 -0.2550
vn -0.5498 0.8353 -0.0000
vn -0.6802 0.7294 -0.0729
vn -0.3252 0.7434 -0.5845
vn 0.1357 0.7789 -0.6124
vn -0.8032 0.5957 0.0008
vn -0.1370 0.9906 0.0014
vn -0.3941 0.9010 0.1812
vn -0.6330 0.7590 0.1526
vn -0.0409 0.9992 0.0031
vn -0.7330 0.6591 -0.1681
vn -0.1473 0.9584 -0.2444
vn -0.0451 0.9990 0.0075
vn -0.6243 0.7483 0.2245
vn -0.2246 0.9338 0.2785
vn -0.4505 0.5443 0.7076
vn -0.4030 0.5580 0.7254
vn 0.1293 0.9222 0.3645
vn -0.0425 0.9991 0.0004
vn -0.7448 0.6673 0.0002
vn -0.2153 0.8780 0.4275
vn 0.0405 0.8285 -0.5584
vn -0.7245 0.6675 0.1720
vn 0.6499 0.7359 0.1897
vn -0.6406 0.7678 -0.0000
vn -0.1384 0.9853 0.1003
vn -0.3003 0.8892 -0.3451
vn -0.3412 0.7799 -0.5247
vn -0.4071 0.7578 -0.5098
vn -0.5153 0.7040 0.4887
vn -0.4007 0.7526 0.5225
vn -0.1447 0.9894 0.0113
vn -0.3003 0.8859 0.3537
vn -0.5563 0.7717 0.3081
vn 0.2161 0.8173 0.5341
vn -0.3865 0.8842 0.2624
vn 0.4072 0.8756 0.2598
vn -0.6863 0.7273 -0.0000
vn -0.3992 0.9124 -0.0910
vn -0.3770 0.8617 -0.3397
vn -0.3658 0.8361 -0.4089
vn -0.4345 0.8091 -0.3957
vn -0.3189 0.9432 -0.0928
vn -0.4586 0.8549 -0.2426
vn -0.3736 0.8561 0.3571
vn -0.2161 0.9342 -0.2837
vn -0.0274 0.9578 -0.2860
vn -0.5193 0.6977 -0.4934
vn -0.3638 0.8324 0.4180
vn -0.4003 0.9164 -0.0040
vn 0.0865 0.9962 -0.0050
vn -0.3565 0.8257 -0.4371
vn -0.7959 0.5798 0.1743
vn -0.1293 0.9873 0.0923
vn 0.5851 0.8075 0.0755
vn -0.8460 0.5331 -0.0091
vn -0.6714 0.7081 0.2186
vn -0.4575 0.8496 0.2623
vn -0.0285 0.9943 0.1023
vn -0.6439 0.7610 0.0790
vn -0.3473 0.7942 0.4987
vn -0.3472 0.7942 0.4987
vn -0.0160 0.8116 -0.5840
vn -0.7790 0.5389 0.3206
vn -0.0831 0.5612 0.8235
vn -0.0730 0.5616 0.8242
vn -0.1061 0.7380 0.6664
vn 0.1572 0.9828 0.0968
vn -0.4802 0.7521 -0.4513
vn -0.5901 0.8032 -0.0816
vn -0.3987 0.9124 -0.0927
vn -0.6319 0.7711 -0.0785
vn -0.1375 0.9162 0.3764
vn -0.0329 0.7108 -0.7026
vn -0.2971 0.6791 -0.6712
vn -0.7135 0.6854 0.1454
vn 0.6312 0.7209 0.2862
vn -0.3085 0.9135 -0.2653
vn -0.3643 0.8326 0.4171
vn -0.4945 0.7771 0.3893
vn 0.0614 0.9560 -0.2868
vn -0.7047 0.6796 -0.2039
vn -0.1305 0.9272 -0.3511
vn -0.1231 0.9281 -0.3514
vn -0.7246 0.6408 -0.2539
vn 0.2522 0.9676 -0.0095
vn -0.7167 0.6972 -0.0158
vn 0.2454 0.9652 -0.0900
vn -0.8519 0.4868 0.1930
vn -0.1387 0.9854 0.0983
vn -0.3145 0.9310 -0.1852
vn -0.5638 0.6773 0.4726
vn 0.2182 0.8368 -0.5021
vn -0.6415 0.7634 0.0760
vn 0.1722 0.9802 0.0976
vn -0.7103 0.6762 -0.1955
vn -0.5099 0.7072 0.4897
vn -0.3272 0.7769 0.5380
vn -0.1543 0.9844 0.0842
vn 0.1637 0.9863 -0.0224
vn -0.4847 0.7501 -0.4500
vn -0.6034 0.7974 0.0085
vn -0.3008 0.8855 0.3542
vn -0.7285 0.6562 0.1969
vn -0.4090 0.7579 -0.5082
vn 0.1629 0.9817 0.0982
vn -0.1440 0.9188 -0.3675
vn -0.8288 0.5568 0.0557
vn -0.0894 0.5703 -0.8166
vn -0.3785 0.8650 0.3294
vn -0.5263 0.8145 -0.2443
vn -0.1519 0.9692 0.1938
vn -0.7634 0.6186 -0.1856
vn 0.1347 0.8118 0.5682
vn -0.3094 0.9108 -0.2732
vn -0.6537 0.7503 0.0987
vn -0.6009 0.7941 -0.0909
vn -0.6407 0.7354 0.2206
vn 0.3467 0.9094 -0.2296
vn -0.0609 0.8559 -0.5135
vn -0.5269 0.6963 -0.4874
vn -0.3847 0.8793 -0.2807
vn -0.4200 0.7782 0.4669
vn -0.0696 0.9782 -0.1956
vn -0.5749 0.7597 -0.3039
vn 0.2903 0.9322 0.2161
vn -0.5912 0.8038 -0.0670
vn -0.2273 0.9709 -0.0748
vn -0.4641 0.7304 -0.5011
vn -0.1095 0.8196 -0.5624
vn -0.5907 0.8066 0.0228
vn -0.1211 0.9285 -0.3510
vn -0.0584 0.9533 0.2963
vn -0.5478 0.6968 0.4630
vn -0.0582 0.8315 0.5525
vn -0.5200 0.8321 0.1929
vn -0.4207 0.7809 0.4617
vn -0.3523 0.8056 0.4763
vn -0.0263 0.9997 0.0019
vn -0.6468 0.7627 0.0019
vn -0.4339 0.8053 -0.4041
vn 0.0821 0.9965 0.0173
vn -0.6000 0.7999 0.0070
vn -0.7517 0.6595 0.0058
vn 0.5192 0.8539 0.0361
vn -0.6418 0.7374 0.2106
vn 0.0691 0.9943 -0.0815
vn -0.4606 0.6309 -0.6243
vn 0.1074 0.7067 -0.6993
vn -0.2938 0.6715 -0.6803
vn -0.0332 0.9601 0.2776
vn -0.3643 0.8340 0.4144
vn -0.5531 0.7460 0.3707
vn -0.1076 0.8219 0.5594
vn -0.3379 0.7781 0.5295
vn -0.7440 0.6681 0.0058
vn 0.2476 0.9688 -0.0102
vn -0.7486 0.6630 -0.0070
vn 0.6396 0.7376 -0.2164
vn -0.8670 0.4984 0.0056
vn -0.2317 0.9539 -0.1908
vn -0.3934 0.9015 -0.1803
vn 0.0557 0.9938 -0.0963
vn -0.7200 0.6475 -0.2497
vn 0.2164 0.9109 -0.3513
vn -0.3363 0.7707 0.5412
vn -0.6459 0.7634 -0.0000
vn -0.2963 0.8838 -0.3621
vn -0.6421 0.7627 0.0777
vn -0.0302 0.9542 -0.2977
vn -0.4578 0.8487 -0.2648
vn -0.2121 0.9298 -0.3009
vn -0.6284 0.7401 -0.2395
vn -0.2976 0.6803 -0.6698
vn -0.6851 0.6502 0.3285
vn -0.3629 0.8317 0.4202
vn -0.6311 0.7452 0.2154
vn -0.2454 0.7327 0.6347
vn -0.0938 0.7525 0.6518
vn -0.5721 0.6719 0.4704
vn -0.4482 0.8311 -0.3292
vn 0.0951 0.9949 0.0351
vn -0.1849 0.9822 0.0346
vn -0.7407 0.6717 -0.0097
vn -0.4696 0.8773 -0.0991
vn -0.3211 0.9469 -0.0193
vn -0.5885 0.8083 -0.0164
vn -0.6565 0.7197 -0.2259
vn 0.0383 0.9241 -0.3803
vn 0.2246 0.9178 0.3274
vn -0.6266 0.7561 0.1891
vn -0.0448 0.9691 0.2424
vn -0.3838 0.8772 0.2886
vn -0.6224 0.7743 -0.1142
vn -0.4308 0.8101 -0.3978
vn -0.3828 0.8799 0.2814
vn -0.3766 0.8668 -0.3269
vn -0.5645 0.7723 -0.2913
vn -0.0311 0.7407 0.6711
vn -0.3617 0.6909 0.6260
vn -0.5616 0.7776 -0.2828
vn -0.1176 0.9400 -0.3202
vn -0.2809 0.8670 0.4116
vn -0.3930 0.8916 -0.2251
vn -0.3491 0.7978 0.4915
vn -0.7894 0.5880 -0.1764
vn -0.1374 0.9852 -0.1024
vn -0.0331 0.9994 -0.0090
vn -0.7515 0.6597 -0.0059
vn -0.5984 0.6525 -0.4649
vn 0.5883 0.7884 -0.1799
vn -0.7695 0.6227 -0.1421
vn 0.3303 0.9041 0.2712
vn -0.7161 0.6285 0.3035
vn 0.2497 0.8720 0.4210
vn -0.1245 0.9185 -0.3754
vn -0.2423 0.7219 0.6482
vn -0.0948 0.7407 0.6651
vn -0.3737 0.8579 0.3525
vn -0.3728 0.8572 0.3553
vn -0.1993 0.9052 0.3752
vn -0.6940 0.7200 -0.0000
vn -0.3821 0.8792 -0.2845
vn -0.7828 0.5920 -0.1916
vn 0.3325 0.9370 -0.1072
vn 0.1631 0.5969 -0.7856
vn -0.8353 0.5087 0.2088
vn 0.3364 0.9373 -0.0914
vn -0.2393 0.7145 -0.6575
vn -0.3688 0.6840 -0.6294
vn 0.1776 0.9137 -0.3655
vn -0.4789 0.7412 0.4705
vn -0.3887 0.9063 -0.1657
vn -0.3689 0.8767 0.3087
vn -0.5997 0.7934 0.1043
vn -0.8130 0.5594 0.1619
vn -0.0341 0.9600 0.2779
vn -0.5781 0.7816 -0.2345
vn 0.4232 0.8678 -0.2603
vn -0.6580 0.6211 0.4257
vn -0.6433 0.7656 -0.0050
vn -0.0330 0.9994 -0.0065
vn -0.1825 0.8137 0.5519
vn -0.5717 0.5983 -0.5615
vn -0.3636 0.6793 -0.6375
vn -0.1338 0.9859 -0.1004
vn -0.7479 0.6638 0.0071
vn -0.0460 0.9989 0.0107
vn -0.1357 0.9713 0.1954
vn -0.3645 0.8332 0.4157
vn -0.7458 0.6661 -0.0102
vn -0.1443 0.9732 -0.1787
vn -0.5688 0.7923 -0.2205
vn -0.3818 0.8904 -0.2478
vn 0.6543 0.7558 0.0266
vn -0.8230 0.4900 0.2874
vn -0.5362 0.8400 -0.0833
vn -0.2260 0.9554 -0.1904
vn -0.3942 0.9014 0.1790
vn 0.0750 0.9781 0.1943
vn -0.6125 0.6438 0.4587
vn -0.4955 0.7755 -0.3912
vn -0.1220 0.9203 -0.3716
vn -0.5670 0.7638 -0.3084
vn 0.2903 0.9229 0.2529
vn -0.2964 0.7541 0.5861
vn -0.4714 0.8774 -0.0893
vn -0.2299 0.9683 -0.0975
vn -0.6411 0.7675 0.0017
vn -0.3864 0.8838 -0.2638
vn 0.2466 0.9287 -0.2771
vn -0.7499 0.6581 0.0673
vn 0.2570 0.9614 0.0982
vn -0.8176 0.5757 -0.0062
vn -0.1459 0.9490 -0.2795
vn -0.3803 0.8884 -0.2571
vn -0.4470 0.8302 -0.3330
vn -0.4025 0.7479 -0.5279
vn -0.4619 0.7246 -0.5114
vn -0.1170 0.8569 0.5021
vn -0.5373 0.7277 0.4264
vn -0.3858 0.7196 -0.5773
vn 0.3200 0.8415 0.4354
vn -0.7165 0.6196 0.3206
vn -0.1087 0.8121 -0.5732
vn -0.3854 0.8897 0.2446
vn -0.2771 0.8214 0.4985
vn 0.2427 0.9287 0.2804
vn -0.2181 0.9343 0.2821
vn -0.7669 0.5726 0.2898
vn -0.5118 0.7044 -0.4917
vn 0.2167 0.8763 0.4302
vn -0.1190 0.8913 0.4375
vn -0.6776 0.7214 -0.1427
vn 0.0654 0.9789 -0.1936
vn -0.7222 0.6409 0.2601
vn -0.2974 0.7063 -0.6424
vn -0.3766 0.8607 0.3426
vn -0.1338 0.9910 -0.0002
vn -0.6412 0.7636 -0.0764
vn -0.6362 0.7677 -0.0768
vn 0.0531 0.9942 -0.0936
vn -0.3527 0.8062 0.4749
vn -0.4564 0.8502 -0.2625
vn 0.1719 0.9112 -0.3744
vn -0.6695 0.6942 0.2643
vn -0.5768 0.7843 0.2284
vn -0.0376 0.9594 0.2794
vn -0.3863 0.8830 -0.2668
vn -0.3768 0.8614 0.3405
vn -0.6259 0.7500 0.2141
vn -0.4924 0.7817 -0.3827
vn 0.4026 0.8746 0.2700
vn -0.3833 0.8818 0.2748
vn -0.5912 0.7904 -0.1607
vn -0.4247 0.5184 -0.7422
vn -0.7088 0.6291 -0.3190
vn 0.1073 0.7056 -0.7005
vn -0.0304 0.8603 0.5089
vn -0.7503 0.6611 0.0014
vn -0.5136 0.7087 -0.4837
vn 0.1429 0.9848 -0.0985
vn -0.3073 0.9093 -0.2807
vn -0.3854 0.8810 -0.2745
vn -0.2177 0.9337 0.2842
vn 0.3646 0.8908 0.2711
vn -0.4307 0.6717 0.6028
vn -0.8079 0.5640 -0.1710
vn 0.4713 0.8444 0.2549
vn -0.7370 0.6470 -0.1955
vn -0.0397 0.9948 0.0940
vn -0.3993 0.9128 0.0853
vn -0.1061 0.8214 0.5603
vn -0.3379 0.7775 0.5304
vn -0.6360 0.7490 0.1857
vn -0.5822 0.8106 -0.0626
vn -0.0874 0.6081 -0.7890
vn -0.5149 0.7062 -0.4859
vn -0.0469 0.9989 -0.0000
vn -0.4455 0.8327 -0.3289
vn -0.3513 0.8044 -0.4791
vn -0.3510 0.8045 -0.4792
vn -0.5832 0.8123 -0.0000
vn -0.0485 0.8430 0.5358
vn -0.5557 0.7017 0.4459
vn -0.3551 0.9036 -0.2397
vn -0.8427 0.4603 0.2794
vn 0.2850 0.8176 -0.5003
vn -0.5312 0.7227 -0.4422
vn -0.1386 0.9903 -0.0003
vn -0.2297 0.9733 -0.0003
vn -0.7181 0.6959 0.0021
vn -0.3760 0.8628 -0.3380
vn -0.6722 0.6893 -0.2701
vn 0.1082 0.9941 0.0075
vn -0.4906 0.7453 -0.4514
vn -0.3650 0.8343 0.4132
vn 0.1646 0.9452 0.2819
vn -0.7454 0.5528 0.3725
vn -0.1139 0.8239 0.5552
vn -0.6259 0.7505 0.2121
vn -0.0393 0.9616 0.2717
vn -0.7070 0.6358 0.3096
vn -0.1264 0.8226 -0.5544
vn -0.0374 0.8300 -0.5565
vn -0.2295 0.9541 0.1925
vn -0.6356 0.7680 0.0781
vn -0.5585 0.7733 -0.3001
vn 0.1389 0.9903 0.0046
vn -0.0425 0.9991 0.0047
vn -0.7428 0.6655 0.0735
vn -0.2368 0.9657 0.1066
vn 0.0488 0.9987 0.0114
vn -0.7353 0.6774 0.0235
vn 0.6617 0.7493 0.0260
vn -0.1692 0.7315 0.6605
vn -0.1391 0.9903 -0.0000
vn -0.2885 0.8543 -0.4323
vn -0.3636 0.8312 -0.4206
vn -0.4732 0.8809 -0.0000
vn -0.5888 0.8043 -0.0802
vn -0.4439 0.8337 -0.3286
vn -0.1440 0.9848 -0.0969
vn -0.3196 0.9429 -0.0936
vn -0.5829 0.8086 -0.0803
vn 0.2465 0.9323 -0.2646
vn -0.3362 0.7689 -0.5438
vn 0.3838 0.8252 0.4144
vn -0.6863 0.7273 -0.0032
vn -0.4008 0.9161 -0.0046
vn -0.3606 0.8243 -0.4364
vn -0.3599 0.8226 -0.4402
vn -0.4279 0.7969 -0.4265
vn -0.3080 0.9111 0.2738
vn -0.3295 0.6142 -0.7171
vn -0.2731 0.6258 -0.7306
vn -0.0244 0.8531 -0.5212
vn -0.5951 0.7995 0.0823
vn -0.3856 0.8824 -0.2695
vn -0.3855 0.8824 -0.2696
vn 0.0861 0.9910 0.1028
vn -0.3426 0.7937 0.5027
vn -0.7573 0.5517 0.3495
vn -0.1057 0.8071 -0.5808
vn 0.5286 0.7295 0.4340
vn -0.8460 0.5331 0.0057
vn -0.4576 0.8517 0.2555
vn -0.6863 0.7238 0.0713
vn -0.4192 0.7785 -0.4671
vn -0.0286 0.9995 0.0098
vn -0.6459 0.7634 0.0075
vn -0.3989 0.9123 -0.0929
vn -0.3880 0.8874 0.2488
vn -0.0189 0.9627 0.2700
vn -0.8008 0.5540 0.2276
vn -0.1204 0.8137 -0.5687
vn -0.1059 0.8150 -0.5696
vn -0.1416 0.9853 -0.0951
vn 0.1573 0.9830 -0.0949
vn -0.4961 0.7770 0.3876
vn -0.5493 0.7477 0.3730
vn -0.3861 0.8835 0.2651
vn -0.6174 0.7535 0.2260
vn -0.1382 0.9208 -0.3648
vn -0.0381 0.8231 0.5666
vn -0.3390 0.7749 0.5334
vn -0.7211 0.6928 -0.0068
vn -0.2305 0.6826 -0.6935
vn -0.3767 0.8611 0.3414
vn -0.5350 0.8407 0.0839
vn 0.0629 0.9788 -0.1947
vn -0.6478 0.6247 0.4359
vn -0.1198 0.8513 -0.5108
vn -0.1287 0.9708 -0.2026
vn -0.7420 0.6562 -0.1370
vn 0.2429 0.9319 -0.2694
vn -0.7155 0.6960 0.0596
vn -0.5345 0.7233 0.4372
vn -0.3062 0.9109 -0.2766
vn -0.2990 0.8856 0.3554
vn 0.2464 0.9691 -0.0065
vn -0.7203 0.6902 -0.0690
vn -0.4044 0.7521 -0.5204
vn 0.2464 0.9692 -0.0000
vn -0.5218 0.8176 0.2436
vn -0.0840 0.6040 0.7925
vn -0.7910 0.5855 0.1774
vn 0.2449 0.9279 -0.2811
vn -0.3766 0.8609 -0.3420
vn -0.3369 0.7713 -0.5399
vn -0.0372 0.9574 -0.2864
vn -0.3360 0.7692 0.5436
vn -0.3083 0.9132 0.2666
vn -0.2992 0.8860 -0.3544
vn -0.5936 0.8021 -0.0658
vn -0.6414 0.7633 -0.0772
vn -0.5661 0.7650 0.3069
vn -0.5943 0.8042 -0.0009
vn -0.3206 0.9471 -0.0134
vn 0.6423 0.7344 0.2195
vn -0.0331 0.9569 -0.2885
vn 0.5829 0.6665 -0.4648
vn -0.0342 0.9960 -0.0830
vn -0.5919 0.8010 0.0898
vn 0.4944 0.8692 -0.0018
vn -0.6448 0.7643 -0.0016
vn -0.2955 0.6755 -0.6755
vn -0.7507 0.6607 0.0041
vn 0.2493 0.9684 0.0012
vn -0.3377 0.7720 -0.5385
vn -0.5668 0.6749 0.4725
vn -0.3374 0.7711 0.5399
vn -0.1689 0.7280 -0.6644
vn -0.7085 0.6757 -0.2037
vn -0.3934 0.8993 0.1912
vn -0.6325 0.7576 0.1611
vn -0.3101 0.9137 0.2626
vn -0.4562 0.8553 0.2458
vn -0.7279 0.6393 -0.2479
vn 0.2370 0.8985 0.3695
vn -0.7879 0.5898 0.1769
vn 0.3170 0.8802 0.3531
vn -0.2690 0.6155 -0.7409
vn -0.4286 0.5773 -0.6950
vn -0.6784 0.7209 -0.1417
vn -0.4568 0.8502 0.2616
vn 0.5397 0.6268 0.5620
vn -0.8573 0.4942 0.1443
vn 0.2259 0.8361 0.5000
vn -0.3370 0.7713 -0.5399
vn -0.1147 0.8114 0.5731
vn -0.3364 0.7692 0.5433
vn -0.1303 0.9510 -0.2804
vn -0.3865 0.8836 -0.2644
vn -0.7365 0.6482 0.1932
vn -0.3865 0.8838 0.2635
vn 0.1226 0.7372 -0.6645
vn -0.6585 0.6994 -0.2779
vn -0.5512 0.7452 0.3754
vn -0.5983 0.7156 0.3605
vn -0.2211 0.9335 0.2822
vn 0.2608 0.9466 -0.1898
vn -0.6265 0.7460 -0.2256
vn -0.4074 0.5536 0.7263
vn -0.6227 0.7492 0.2255
vn -0.3867 0.8851 0.2588
vn 0.1428 0.9493 -0.2799
vn -0.5905 0.8070 -0.0000
vn -0.1345 0.9515 -0.2766
vn -0.0387 0.9992 0.0011
vn -0.7350 0.6506 0.1911
vn 0.6368 0.7397 0.2173
vn -0.5638 0.7669 0.3066
vn 0.2184 0.8351 0.5049
vn -0.4579 0.8521 -0.2536
vn -0.3762 0.8599 0.3451
vn 0.5047 0.8591 0.0848
vn -0.8255 0.5645 -0.0008
vn -0.0838 0.5999 0.7956
vn -0.0822 0.6000 0.7957
vn -0.2959 0.6762 -0.6747
vn -0.7350 0.6508 0.1903
vn 0.2531 0.9674 -0.0014
vn -0.7185 0.6926 -0.0646
vn -0.5161 0.7021 0.4907
vn -0.3374 0.7716 0.5393
vn -0.0303 0.9594 0.2805
vn -0.3199 0.9474 -0.0013
vn -0.5168 0.7013 0.4910
vn -0.0396 0.8518 0.5224
vn -0.5870 0.8046 0.0902
vn 0.4944 0.8692 0.0054
vn -0.6286 0.7451 0.2227
vn -0.3379 0.7725 0.5377
vn -0.7507 0.6607 0.0008
vn 0.2327 0.9039 -0.3589
vn -0.6263 0.7457 -0.2273
vn -0.3075 0.7028 -0.6414
vn -0.2260 0.9741 0.0070
vn -0.7237 0.6901 -0.0008
vn -0.3779 0.8639 0.3330
vn -0.6408 0.7676 -0.0108
vn -0.2995 0.8824 0.3629
vn -0.4455 0.8353 -0.3223
vn -0.7138 0.6270 0.3119
vn 0.2298 0.8713 0.4335
vn -0.7875 0.5895 -0.1797
vn 0.3373 0.9366 -0.0948
vn -0.3854 0.8820 0.2713
vn -0.5941 0.8002 0.0820
vn -0.5721 0.6079 -0.5505
vn -0.3700 0.6886 -0.6236
vn 0.6525 0.7578 0.0054
vn -0.8302 0.4785 0.2861
vn 0.2508 0.9285 0.2737
vn -0.3361 0.7692 0.5436
vn -0.1342 0.9494 -0.2841
vn -0.3865 0.8836 -0.2643
vn -0.1115 0.8137 -0.5705
vn -0.3866 0.8838 0.2634
vn -0.7256 0.6386 0.2562
vn -0.3089 0.7064 -0.6368
vn 0.1524 0.9169 -0.3688
vn -0.6583 0.6993 0.2787
vn -0.5871 0.7937 -0.1591
vn -0.4521 0.5407 -0.7094
vn -0.2212 0.9339 0.2808
vn 0.2551 0.9260 0.2784
vn -0.6276 0.7473 0.2185
vn -0.5927 0.8054 -0.0054
vn -0.5652 0.6800 0.4670
vn -0.3865 0.8846 -0.2608
vn 0.1488 0.9889 0.0011
vn -0.5156 0.7046 -0.4875
vn -0.1153 0.8158 -0.5668
vn -0.0331 0.8548 -0.5179
vn -0.7488 0.6628 0.0034
vn 0.6524 0.7578 0.0039
vn -0.5904 0.8031 -0.0802
vn 0.2431 0.9297 -0.2767
vn -0.3511 0.6535 -0.6706
vn -0.2920 0.6675 -0.6850
vn 0.4501 0.7661 0.4589
vn -0.8255 0.5645 0.0005
vn -0.1137 0.8140 -0.5697
vn -0.1115 0.8142 -0.5698
vn -0.3377 0.7719 0.5386
vn -0.7487 0.6630 -0.0009
vn 0.2432 0.9296 -0.2769
vn -0.7183 0.6924 0.0684
vn -0.8515 0.4868 0.1947
vn -0.6391 0.7691 0.0055
vn -0.5229 0.6292 0.5751
vn -0.4513 0.5370 -0.7126
vn 0.6366 0.7157 -0.2874
vn -0.3198 0.9415 -0.1063
vn -0.7536 0.6573 -0.0000
vn -0.7385 0.6442 -0.1989
vn -0.2559 0.5849 -0.7697
vn -0.6853 0.7247 -0.0719
vn -0.6871 0.7266 -0.0065
vn -0.6415 0.7633 0.0763
vn -0.1251 0.9216 0.3674
vn -0.6415 0.7633 -0.0763
vn -0.3635 0.8309 -0.4214
vn 0.1253 0.7384 0.6626
vn 0.1030 0.6072 -0.7878
vn -0.6406 0.7678 -0.0022
vn -0.2893 0.8578 0.4248
vn -0.6747 0.7235 0.1460
vn -0.4176 0.7754 -0.4737
vn -0.3527 0.6564 -0.6669
vn -0.1320 0.9494 0.2848
vn -0.2916 0.8586 -0.4216
vn 0.4167 0.8707 -0.2612
vn -0.4578 0.8515 0.2556
vn -0.7482 0.6634 0.0044
vn -0.7347 0.6515 -0.1892
vn -0.7069 0.6774 0.2032
vn -0.0316 0.9995 0.0008
vn -0.5943 0.8042 -0.0000
vn -0.1280 0.9208 -0.3683
vn -0.4178 0.7770 -0.4708
vn 0.2453 0.9646 0.0965
vn -0.0385 0.9571 -0.2871
vn -0.8024 0.5939 0.0594
vn 0.1580 0.5986 -0.7854
vn -0.3765 0.8606 0.3429
vn -0.0402 0.9992 -0.0000
vn 0.2464 0.9691 -0.0086
vn -0.5215 0.8172 0.2453
vn -0.0371 0.9548 0.2948
vn 0.2366 0.9306 -0.2792
vn -0.6413 0.7633 0.0783
vn -0.3769 0.8642 -0.3335
vn -0.0245 0.8156 0.5782
vn -0.0287 0.9551 -0.2949
vn -0.2997 0.8853 -0.3556
vn -0.3986 0.9140 0.0763
vn -0.4084 0.5526 -0.7265
vn -0.5654 0.7651 0.3083
vn -0.4778 0.6484 0.5927
vn -0.4413 0.8289 0.3438
vn -0.3738 0.8567 0.3553
vn 0.2464 0.9691 0.0064
vn -0.3186 0.9479 -0.0028
vn -0.0346 0.9994 -0.0022
vn -0.0208 0.6053 -0.7958
vn -0.3990 0.9125 0.0902
vn -0.1281 0.9217 0.3660
vn -1.0000 -0.0000 -0.0000
vn -0.0000 -0.0000 -1.0000
vn 1.0000 -0.0000 -0.0000
vn -0.0000 -0.0000 1.0000
vn -0.0000 -1.0000 -0.0000
vn -0.0000 1.0000 -0.0000
vt -0.000000 0.937500
vt 0.062500 1.000000
vt -0.000000 1.000000
vt 0.062500 0.937500
vt 0.125000 1.000000
vt 0.187500 0.937500
vt 0.125000 0.937500
vt 0.250000 1.000000
vt 0.187500 1.000000
vt 0.312500 0.937500
vt 0.250000 0.937500
vt 0.375000 0.937500
vt 0.312500 1.000000
vt 0.437500 0.937500
vt 0.375000 1.000000
vt 0.500000 1.000000
vt 0.437500 1.000000
vt 0.562500 0.937500
vt 0.500000 0.937500
vt 0.625000 0.937500
vt 0.562500 1.000000
vt 0.687500 0.937500
vt 0.625000 1.000000
vt 0.750000 0.937500
vt 0.687500 1.000000
vt 0.812500 1.000000
vt 0.750000 1.000000
vt 0.812500 0.937500
vt 0.875000 1.000000
vt 0.937500 0.937500
vt 0.875000 0.937500
vt 1.000000 0.937500
vt 0.937500 1.000000
vt 0.062500 0.937500
vt 0.000000 1.000000
vt 0.000000 0.937500
vt 0.125000 0.937500
vt 0.062500 1.000000
vt 0.125000 1.000000
vt 0.437500 0.937500
vt 0.500000 1.000000
vt 0.437500 1.000000
vt 0.562500 0.937500
vt 0.500000 0.937500
vt 0.625000 0.937500
vt 0.562500 1.000000
vt 0.687500 1.000000
vt 0.625000 1.000000
vt 0.687500 0.937500
vt 0.750000 0.250000
vt 0.687500 0.312500
vt 0.687500 0.250000
vt 0.875000 0.312500
vt 0.937500 0.375000
vt 0.875000 0.375000
vt 0.875000 0.437500
vt 0.937500 0.437500
vt 0.875000 0.500000
vt 0.937500 0.562500
vt 0.875000 0.562500
vt 0.937500 0.625000
vt 0.875000 0.625000
vt 0.875000 0.687500
vt 0.937500 0.687500
vt 0.875000 0.750000
vt 0.937500 0.750000
vt 0.875000 0.812500
vt 0.937500 0.875000
vt 0.875000 0.875000
vt 0.750000 0.312500
vt 0.812500 0.250000
vt 0.812500 0.312500
vt 0.812500 0.375000
vt 0.812500 0.437500
vt 0.812500 0.500000
vt 0.812500 0.562500
vt 0.812500 0.625000
vt 0.812500 0.687500
vt 0.812500 0.750000
vt 0.812500 0.812500
vt 0.812500 0.875000
vt 0.750000 0.375000
vt 0.750000 0.437500
vt 0.750000 0.500000
vt 0.750000 0.562500
vt 0.750000 0.625000
vt 0.750000 0.687500
vt 0.750000 0.750000
vt 0.750000 0.812500
vt 0.750000 0.875000
vt 0.625000 0.312500
vt 0.625000 0.250000
vt 0.687500 0.375000
vt 0.687500 0.437500
vt 0.687500 0.500000
vt 0.687500 0.562500
vt 0.687500 0.625000
vt 0.687500 0.687500
vt 0.687500 0.750000
vt 0.687500 0.812500
vt 0.687500 0.875000
vt 0.562500 0.250000
vt 0.562500 0.312500
vt 0.625000 0.375000
vt 0.625000 0.437500
vt 0.625000 0.500000
vt 0.625000 0.562500
vt 0.625000 0.625000
vt 0.625000 0.687500
vt 0.625000 0.750000
vt 0.625000 0.812500
vt 0.625000 0.875000
vt 0.500000 0.250000
vt 0.562500 0.375000
vt 0.562500 0.437500
vt 0.562500 0.500000
vt 0.562500 0.562500
vt 0.562500 0.625000
vt 0.562500 0.687500
vt 0.562500 0.750000
vt 0.562500 0.812500
vt 0.562500 0.875000
vt 0.375000 0.250000
vt 0.312500 0.312500
vt 0.312500 0.250000
vt 0.500000 0.312500
vt 0.500000 0.375000
vt 0.500000 0.437500
vt 0.500000 0.500000
vt 0.500000 0.562500
vt 0.500000 0.625000
vt 0.500000 0.687500
vt 0.500000 0.750000
vt 0.500000 0.812500
vt 0.500000 0.875000
vt 0.375000 0.312500
vt 0.437500 0.250000
vt 0.437500 0.312500
vt 0.437500 0.375000
vt 0.437500 0.437500
vt 0.437500 0.500000
vt 0.437500 0.562500
vt 0.437500 0.625000
vt 0.437500 0.687500
vt 0.437500 0.750000
vt 0.437500 0.812500
vt 0.437500 0.875000
vt 0.375000 0.375000
vt 0.375000 0.437500
vt 0.375000 0.500000
vt 0.375000 0.562500
vt 0.375000 0.625000
vt 0.375000 0.687500
vt 0.375000 0.750000
vt 0.375000 0.812500
vt 0.375000 0.875000
vt 0.250000 0.312500
vt 0.250000 0.250000
vt 0.312500 0.375000
vt 0.312500 0.437500
vt 0.312500 0.500000
vt 0.312500 0.562500
vt 0.312500 0.625000
vt 0.312500 0.687500
vt 0.312500 0.750000
vt 0.312500 0.812500
vt 0.312500 0.875000
vt 0.125000 0.250000
vt 0.062500 0.312500
vt 0.062500 0.250000
vt 0.250000 0.375000
vt 0.250000 0.437500
vt 0.250000 0.500000
vt 0.250000 0.562500
vt 0.250000 0.625000
vt 0.250000 0.687500
vt 0.250000 0.750000
vt 0.250000 0.812500
vt 0.250000 0.875000
vt 0.125000 0.312500
vt 0.187500 0.250000
vt 0.187500 0.312500
vt 0.187500 0.375000
vt 0.187500 0.437500
vt 0.187500 0.500000
vt 0.187500 0.562500
vt 0.187500 0.625000
vt 0.187500 0.687500
vt 0.187500 0.750000
vt 0.187500 0.812500
vt 0.187500 0.875000
vt 0.125000 0.375000
vt 0.125000 0.437500
vt 0.125000 0.500000
vt 0.125000 0.562500
vt 0.125000 0.625000
vt 0.125000 0.687500
vt 0.125000 0.750000
vt 0.125000 0.812500
vt 0.125000 0.875000
vt 0.875000 0.250000
vt 0.062500 0.375000
vt 0.062500 0.437500
vt 0.062500 0.500000
vt 0.062500 0.562500
vt 0.062500 0.625000
vt 0.062500 0.687500
vt 0.062500 0.750000
vt 0.062500 0.812500
vt 0.062500 0.875000
vt 1.000000 0.250000
vt 0.937500 0.312500
vt 0.937500 0.250000
vt 0.000000 0.312500
vt 0.000000 0.375000
vt -0.000000 0.437500
vt -0.000000 0.500000
vt -0.000000 0.562500
vt -0.000000 0.625000
vt -0.000000 0.687500
vt -0.000000 0.750000
vt -0.000000 0.812500
vt -0.000000 0.875000
vt 1.000000 0.312500
vt 1.000000 0.375000
vt 1.000000 0.500000
vt 0.937500 0.500000
vt 1.000000 0.625000
vt 1.000000 0.687500
vt 1.000000 0.812500
vt 0.937500 0.812500
vt 1.000000 0.875000
vt 0.750000 0.312500
vt 0.812500 0.375000
vt 0.812500 0.312500
vt 0.812500 0.437500
vt 0.812500 0.625000
vt 0.812500 0.687500
vt 0.812500 0.750000
vt 0.812500 0.812500
vt 0.687500 0.312500
vt 0.687500 0.250000
vt 0.750000 0.375000
vt 0.750000 0.437500
vt 0.750000 0.500000
vt 0.750000 0.562500
vt 0.750000 0.625000
vt 0.750000 0.687500
vt 0.750000 0.750000
vt 0.750000 0.812500
vt 0.625000 0.312500
vt 0.625000 0.250000
vt 0.687500 0.375000
vt 0.687500 0.437500
vt 0.687500 0.500000
vt 0.687500 0.562500
vt 0.687500 0.750000
vt 0.687500 0.812500
vt 0.687500 0.875000
vt 0.562500 0.250000
vt 0.625000 0.375000
vt 0.625000 0.437500
vt 0.625000 0.500000
vt 0.625000 0.562500
vt 0.625000 0.625000
vt 0.625000 0.687500
vt 0.625000 0.750000
vt 0.625000 0.812500
vt 0.625000 0.875000
vt 0.312500 0.312500
vt 0.250000 0.312500
vt 0.562500 0.312500
vt 0.562500 0.375000
vt 0.562500 0.437500
vt 0.562500 0.500000
vt 0.562500 0.562500
vt 0.562500 0.625000
vt 0.562500 0.687500
vt 0.562500 0.750000
vt 0.562500 0.812500
vt 0.562500 0.875000
vt 0.500000 0.250000
vt 0.437500 0.312500
vt 0.500000 0.312500
vt 0.500000 0.375000
vt 0.500000 0.437500
vt 0.500000 0.500000
vt 0.500000 0.750000
vt 0.500000 0.812500
vt 0.500000 0.875000
vt 0.375000 0.312500
vt 0.375000 0.250000
vt 0.437500 0.375000
vt 0.437500 0.437500
vt 0.437500 0.500000
vt 0.437500 0.562500
vt 0.437500 0.625000
vt 0.437500 0.687500
vt 0.437500 0.750000
vt 0.437500 0.812500
vt 0.437500 0.875000
vt 0.312500 0.250000
vt 0.375000 0.437500
vt 0.375000 0.500000
vt 0.375000 0.562500
vt 0.375000 0.625000
vt 0.375000 0.687500
vt 0.312500 0.375000
vt 0.312500 0.437500
vt 0.312500 0.500000
vt 0.312500 0.562500
vt 0.312500 0.625000
vt 0.312500 0.687500
vt 0.312500 0.750000
vt 0.312500 0.812500
vt 0.250000 0.375000
vt 0.250000 0.437500
vt 0.250000 0.500000
vt 0.250000 0.562500
vt 0.250000 0.625000
vt 0.250000 0.687500
vt 0.187500 0.750000
vt 0.187500 0.812500
vt 0.125000 0.437500
vt 0.125000 0.500000
vt 0.125000 0.875000
vt 0.000000 0.250000
vt 0.062500 0.375000
vt 0.062500 0.312500
vt 0.062500 0.437500
vt 0.062500 0.500000
vt 0.062500 0.562500
vt 0.062500 0.625000
vt 0.062500 0.687500
vt 0.062500 0.875000
vt 0.062500 0.187500
vt 0.125000 0.187500
vt -0.000000 0.375000
vt -0.000000 0.437500
vt -0.000000 0.500000
vt -0.000000 0.562500
vt -0.000000 0.625000
vt -0.000000 0.687500
vt -0.000000 0.750000
vt -0.000000 0.812500
vt -0.000000 0.875000
vt 1.000000 1.000000
vt 1.000000 0.437500
vt 1.000000 0.562500
vt 1.000000 0.750000
vt 0.437500 0.187500
vt 0.375000 0.250000
vt 0.375000 0.187500
vt 0.187500 0.250000
vt 0.250000 0.187500
vt 0.250000 0.250000
vt 0.312500 0.250000
vt 0.312500 0.187500
vt 0.687500 0.187500
vt 0.625000 0.250000
vt 0.625000 0.187500
vt 0.500000 0.250000
vt 0.437500 0.250000
vt 0.562500 0.187500
vt 0.500000 0.187500
vt 0.937500 0.187500
vt 1.000000 0.187500
vt 0.750000 0.187500
vt 0.812500 0.187500
vt 0.875000 0.187500
vt 0.187500 0.187500
vt 0.125000 0.250000
vt 0.125000 0.187500
vt 0.062500 0.250000
vt 0.000000 0.187500
vt 0.062500 0.187500
vt 0.437500 0.187500
vt 0.500000 0.250000
vt 0.625000 0.250000
vt 0.562500 0.187500
vt 0.625000 0.187500
vt 0.562500 0.250000
vt 0.500000 0.187500
vt 0.687500 0.250000
vt 0.687500 0.187500
vt 0.875000 0.062500
vt 0.937500 0.125000
vt 0.875000 0.125000
vt 0.812500 0.125000
vt 0.812500 0.062500
vt 0.750000 0.062500
vt 0.750000 0.125000
vt 0.687500 0.062500
vt 0.687500 0.125000
vt 0.625000 0.062500
vt 0.625000 0.125000
vt 0.562500 0.062500
vt 0.562500 0.125000
vt 0.500000 0.062500
vt 0.500000 0.125000
vt 0.437500 0.125000
vt 0.437500 0.062500
vt 0.375000 0.125000
vt 0.375000 0.062500
vt 0.312500 0.062500
vt 0.312500 0.125000
vt 0.250000 0.125000
vt 0.250000 0.062500
vt 0.187500 0.125000
vt 0.187500 0.062500
vt 0.125000 0.062500
vt 0.125000 0.125000
vt 0.062500 0.062500
vt 0.062500 0.125000
vt -0.000000 0.125000
vt -0.000000 0.062500
vt 0.937500 0.062500
vt 1.000000 0.125000
vt 0.812500 0.062500
vt 0.750000 0.062500
vt 0.687500 0.125000
vt 0.687500 0.062500
vt 0.625000 0.125000
vt 0.625000 0.062500
vt 0.562500 0.062500
vt 0.562500 0.125000
vt 0.500000 0.125000
vt 0.500000 0.062500
vt 0.437500 0.062500
vt 0.437500 0.125000
vt 0.312500 0.062500
vt 0.187500 0.062500
vt 0.125000 0.125000
vt 0.062500 0.125000
vt -0.000000 0.062500
vt -0.000000 0.125000
vt -0.000000 0.187500
vt 1.000000 0.062500
vt 0.562500 0.250000
vt -0.000000 0.250000
s 0
usemtl Gravel
f 149/68/7 137/69/7 138/70/7
f 160/71/8 136/72/8 137/69/8
f 182/73/9 136/72/9 171/74/9
f 182/73/10 134/75/10 135/76/10
f 204/77/11 134/75/11 193/78/11
f 215/79/12 133/80/12 204/77/12
f 226/81/13 132/82/13 215/79/13
f 226/81/14 130/83/14 131/84/14
f 248/85/15 130/83/15 237/86/15
f 259/87/16 129/88/16 248/85/16
f 270/89/17 128/90/17 259/87/17
f 281/91/18 127/92/18 270/89/18
f 281/91/19 125/93/19 126/94/19
f 292/95/20 124/96/20 125/93/20
f 314/97/21 124/96/21 303/98/21
f 325/99/22 123/100/22 314/97/22
f 336/101/23 122/102/23 325/103/23
f 347/104/24 121/105/24 336/101/24
f 358/73/25 120/106/25 347/104/25
f 369/78/26 119/76/26 358/73/26
f 369/78/27 117/80/27 118/75/27
f 380/77/28 116/82/28 117/80/28
f 402/107/29 116/82/29 391/79/29
f 402/107/30 114/108/30 115/109/30
f 424/110/31 114/108/31 413/111/31
f 435/112/32 113/113/32 424/110/32
f 435/112/33 111/114/33 112/115/33
f 457/91/34 111/114/34 446/116/34
f 468/95/35 110/94/35 457/91/35
f 479/98/36 109/93/36 468/95/36
f 479/98/37 107/100/37 108/96/37
f 492/117/38 436/118/38 493/119/38
f 469/120/39 481/121/39 470/122/39
f 481/121/40 471/123/40 470/122/40
f 482/124/41 472/125/41 471/123/41
f 472/125/42 484/126/42 473/127/42
f 473/127/43 485/128/43 474/129/43
f 485/128/44 475/130/44 474/129/44
f 486/131/45 476/132/45 475/130/45
f 487/133/46 477/134/46 476/132/46
f 477/134/47 489/135/47 478/136/47
f 489/135/48 479/98/48 478/136/48
f 447/137/49 105/138/49 458/139/49
f 469/120/50 459/140/50 458/139/50
f 459/140/51 471/123/51 460/141/51
f 460/141/52 472/125/52 461/142/52
f 472/125/52 462/143/52 461/142/52
f 473/127/53 463/144/53 462/143/53
f 474/129/54 464/145/54 463/144/54
f 475/130/55 465/146/55 464/145/55
f 465/146/56 477/134/56 466/147/56
f 477/134/57 467/148/57 466/147/57
f 478/136/58 468/95/58 467/148/58
f 458/139/59 448/149/59 447/137/59
f 448/149/60 460/141/60 449/150/60
f 460/141/61 450/151/61 449/150/61
f 450/151/62 462/143/62 451/152/62
f 451/152/63 463/144/63 452/153/63
f 463/144/64 453/154/64 452/153/64
f 453/154/65 465/146/65 454/155/65
f 465/146/66 455/156/66 454/155/66
f 455/156/67 467/148/67 456/157/67
f 456/157/68 468/95/68 457/91/68
f 493/119/69 425/158/69 104/159/69
f 447/137/70 437/160/70 436/118/70
f 437/160/71 449/150/71 438/161/71
f 438/161/72 450/151/72 439/162/72
f 450/151/73 440/163/73 439/162/73
f 451/152/74 441/164/74 440/163/74
f 441/164/75 453/154/75 442/165/75
f 442/165/76 454/155/76 443/166/76
f 454/155/77 444/167/77 443/166/77
f 444/167/78 456/157/78 445/168/78
f 456/157/79 446/116/79 445/168/79
f 494/169/80 425/158/80 414/170/80
f 436/118/81 426/171/81 425/158/81
f 426/171/82 438/161/82 427/172/82
f 427/172/83 439/162/83 428/173/83
f 428/173/84 440/163/84 429/174/84
f 440/163/85 430/175/85 429/174/85
f 430/175/86 442/165/86 431/176/86
f 442/165/87 432/177/87 431/176/87
f 443/166/88 433/178/88 432/177/88
f 433/178/89 445/168/89 434/179/89
f 434/179/90 446/116/90 435/112/90
f 414/170/91 103/180/91 494/169/91
f 425/158/92 415/181/92 414/170/92
f 415/181/93 427/172/93 416/182/93
f 427/172/94 417/183/94 416/182/94
f 428/173/95 418/184/95 417/183/95
f 418/184/96 430/175/96 419/185/96
f 419/185/97 431/176/97 420/186/97
f 420/186/98 432/177/98 421/187/98
f 432/177/99 422/188/99 421/187/99
f 422/188/100 434/179/100 423/189/100
f 434/179/101 424/110/101 423/189/101
f 495/190/102 370/191/102 496/192/102
f 403/193/103 415/181/103 404/194/103
f 415/181/104 405/195/104 404/194/104
f 405/195/105 417/183/105 406/196/105
f 406/196/106 418/184/106 407/197/106
f 418/184/107 408/198/107 407/197/107
f 419/185/108 409/199/108 408/198/108
f 420/186/109 410/200/109 409/199/109
f 410/200/110 422/188/110 411/201/110
f 411/201/111 423/189/111 412/202/111
f 423/189/112 413/111/112 412/202/112
f 381/203/113 102/204/113 392/205/113
f 392/205/114 404/194/114 393/206/114
f 393/206/115 405/195/115 394/207/115
f 405/195/116 395/208/116 394/207/116
f 395/208/117 407/197/117 396/209/117
f 407/197/118 397/210/118 396/209/118
f 397/210/119 409/199/119 398/211/119
f 398/211/120 410/200/120 399/212/120
f 410/200/121 400/213/121 399/212/121
f 411/201/122 401/214/122 400/213/122
f 412/202/123 402/107/123 401/214/123
f 392/205/124 382/215/124 381/203/124
f 393/206/125 383/216/125 382/215/125
f 394/207/126 384/217/126 383/216/126
f 384/217/127 396/209/127 385/218/127
f 385/218/128 397/210/128 386/219/128
f 397/210/129 387/220/129 386/219/129
f 387/220/130 399/212/130 388/221/130
f 399/212/131 389/222/131 388/221/131
f 400/213/132 390/223/132 389/222/132
f 390/223/133 402/107/133 391/79/133
f 496/192/134 359/224/134 497/225/134
f 381/203/135 371/226/135 370/191/135
f 382/215/136 372/227/136 371/226/136
f 372/227/137 384/217/137 373/228/137
f 373/228/138 385/218/138 374/229/138
f 385/218/139 375/230/139 374/229/139
f 375/230/140 387/220/140 376/231/140
f 376/231/141 388/221/141 377/232/141
f 388/221/142 378/233/142 377/232/142
f 378/233/143 390/223/143 379/234/143
f 390/223/144 380/77/144 379/234/144
f 498/235/145 326/236/145 100/237/145
f 359/224/146 371/226/146 360/238/146
f 360/238/147 372/227/147 361/239/147
f 372/227/148 362/240/148 361/239/148
f 373/228/149 363/241/149 362/240/149
f 363/241/150 375/230/150 364/242/150
f 364/242/151 376/231/151 365/243/151
f 365/243/152 377/232/152 366/244/152
f 377/232/153 367/245/153 366/244/153
f 378/233/154 368/246/154 367/245/154
f 379/234/155 369/78/155 368/246/155
f 337/247/156 101/248/156 348/249/156
f 359/224/157 349/250/157 348/249/157
f 349/250/158 361/239/158 350/251/158
f 361/239/159 351/252/159 350/251/159
f 351/252/160 363/241/160 352/253/160
f 363/241/161 353/254/161 352/253/161
f 364/242/162 354/255/162 353/254/162
f 354/255/163 366/244/163 355/256/163
f 355/256/164 367/245/164 356/257/164
f 367/245/165 357/258/165 356/257/165
f 357/258/166 369/78/166 358/73/166
f 348/249/167 338/259/167 337/247/167
f 338/259/168 350/251/168 339/260/168
f 339/260/169 351/252/169 340/261/169
f 340/261/170 352/253/170 341/262/170
f 341/262/171 353/254/171 342/263/171
f 342/263/172 354/255/172 343/264/172
f 354/255/173 344/265/173 343/264/173
f 344/265/174 356/257/174 345/266/174
f 345/266/175 357/258/175 346/267/175
f 346/267/176 358/73/176 347/104/176
f 293/120/177 500/138/177 499/268/177
f 326/236/178 338/259/178 327/269/178
f 338/259/179 328/270/179 327/269/179
f 339/260/180 329/271/180 328/270/180
f 329/271/181 341/262/181 330/272/181
f 330/272/182 342/263/182 331/273/182
f 331/273/183 343/264/183 332/274/183
f 343/264/184 333/275/184 332/274/184
f 333/275/185 345/266/185 334/276/185
f 334/276/186 346/267/186 335/277/186
f 346/267/187 336/101/187 335/277/187
f 99/278/188 304/279/188 98/280/188
f 315/281/189 327/269/189 316/282/189
f 316/282/190 328/270/190 317/283/190
f 328/270/191 318/284/191 317/283/191
f 329/271/192 319/285/192 318/284/192
f 319/285/193 331/273/193 320/286/193
f 331/273/194 321/287/194 320/286/194
f 321/287/195 333/275/195 322/288/195
f 322/288/196 334/276/196 323/289/196
f 334/276/197 324/290/197 323/289/197
f 335/277/198 325/103/198 324/290/198
f 499/268/199 304/279/199 293/120/199
f 315/291/200 305/121/200 304/279/200
f 316/292/201 306/124/201 305/121/201
f 306/124/202 318/293/202 307/294/202
f 318/293/203 308/126/203 307/294/203
f 308/126/204 320/295/204 309/128/204
f 320/295/205 310/131/205 309/128/205
f 321/296/206 311/133/206 310/131/206
f 311/133/207 323/297/207 312/298/207
f 312/298/208 324/299/208 313/135/208
f 324/299/209 314/97/209 313/135/209
f 304/279/199 294/122/199 293/120/199
f 294/122/210 306/124/210 295/123/210
f 295/123/211 307/294/211 296/125/211
f 296/125/212 308/126/212 297/127/212
f 308/126/213 298/129/213 297/127/213
f 298/129/214 310/131/214 299/130/214
f 310/131/215 300/132/215 299/130/215
f 300/132/216 312/298/216 301/134/216
f 301/134/217 313/135/217 302/136/217
f 302/136/218 314/97/218 303/98/218
f 500/138/219 271/300/219 501/117/219
f 293/120/220 283/301/220 282/302/220
f 283/301/221 295/123/221 284/303/221
f 284/303/222 296/125/222 285/142/222
f 296/125/222 286/143/222 285/142/222
f 286/143/223 298/129/223 287/304/223
f 287/304/224 299/130/224 288/305/224
f 288/305/225 300/132/225 289/306/225
f 289/306/226 301/134/226 290/307/226
f 290/307/227 302/136/227 291/148/227
f 302/136/228 292/95/228 291/148/228
f 501/117/229 260/308/229 502/309/229
f 282/302/230 272/310/230 271/300/230
f 272/310/231 284/303/231 273/311/231
f 284/303/232 274/312/232 273/311/232
f 285/142/233 275/313/233 274/312/233
f 286/143/234 276/314/234 275/313/234
f 287/304/235 277/315/235 276/314/235
f 288/305/236 278/316/236 277/315/236
f 289/306/237 279/317/237 278/316/237
f 290/307/238 280/157/238 279/317/238
f 291/148/239 281/91/239 280/157/239
f 502/309/240 249/318/240 503/319/240
f 260/308/241 272/310/241 261/320/241
f 261/320/242 273/311/242 262/321/242
f 262/321/243 274/312/243 263/322/243
f 274/312/244 264/323/244 263/322/244
f 275/313/245 265/164/245 264/323/245
f 276/314/246 266/165/246 265/164/246
f 277/315/247 267/324/247 266/165/247
f 278/316/248 268/325/248 267/324/248
f 279/317/249 269/326/249 268/325/249
f 269/326/250 281/91/250 270/89/250
f 249/318/251 97/327/251 503/319/251
f 249/318/252 261/320/252 250/328/252
f 261/320/253 251/329/253 250/328/253
f 262/321/254 252/330/254 251/329/254
f 263/322/255 253/331/255 252/330/255
f 264/323/256 254/332/256 253/331/256
f 265/164/257 255/333/257 254/332/257
f 266/165/258 256/334/258 255/333/258
f 256/334/259 268/325/259 257/335/259
f 268/325/260 258/336/260 257/335/260
f 269/326/261 259/87/261 258/336/261
f 505/225/262 194/337/262 183/338/262
f 238/339/263 250/328/263 239/340/263
f 250/328/264 240/341/264 239/340/264
f 251/329/265 241/342/265 240/341/265
f 252/330/266 242/343/266 241/342/266
f 253/331/267 243/344/267 242/343/267
f 243/344/268 255/333/268 244/345/268
f 244/345/269 256/334/269 245/346/269
f 256/334/270 246/347/270 245/346/270
f 246/347/271 258/336/271 247/348/271
f 247/348/272 259/87/272 248/85/272
f 96/349/273 216/350/273 95/204/273
f 227/351/274 239/340/274 228/352/274
f 239/340/275 229/353/275 228/352/275
f 229/353/276 241/342/276 230/354/276
f 241/342/277 231/197/277 230/354/277
f 231/197/278 243/344/278 232/198/278
f 243/344/279 233/199/279 232/198/279
f 244/345/280 234/355/280 233/199/280
f 234/355/281 246/347/281 235/356/281
f 246/347/282 236/357/282 235/356/282
f 247/348/283 237/86/283 236/357/283
f 95/204/284 205/358/284 94/359/284
f 216/350/285 228/352/285 217/360/285
f 217/360/286 229/353/286 218/361/286
f 229/353/287 219/362/287 218/361/287
f 219/362/288 231/197/288 220/363/288
f 220/363/289 232/198/289 221/364/289
f 232/198/290 222/365/290 221/364/290
f 222/365/291 234/355/291 223/366/291
f 223/366/292 235/356/292 224/367/292
f 224/367/293 236/357/293 225/368/293
f 236/357/294 226/81/294 225/368/294
f 504/369/295 205/358/295 194/337/295
f 205/358/296 217/360/296 206/215/296
f 206/215/297 218/361/297 207/370/297
f 207/370/298 219/362/298 208/371/298
f 219/362/299 209/372/299 208/371/299
f 209/372/300 221/364/300 210/373/300
f 221/364/301 211/374/301 210/373/301
f 211/374/302 223/366/302 212/221/302
f 212/221/303 224/367/303 213/222/303
f 224/367/304 214/223/304 213/222/304
f 214/223/305 226/81/305 215/79/305
f 194/337/306 206/215/306 195/375/306
f 206/215/307 196/376/307 195/375/307
f 196/376/308 208/371/308 197/377/308
f 197/377/309 209/372/309 198/378/309
f 198/378/310 210/373/310 199/379/310
f 199/379/311 211/374/311 200/380/311
f 211/374/312 201/381/312 200/380/312
f 212/221/313 202/382/313 201/381/313
f 202/382/314 214/223/314 203/234/314
f 203/234/315 215/79/315 204/77/315
f 505/225/316 172/249/316 93/248/316
f 194/337/317 184/383/317 183/338/317
f 195/375/318 185/384/318 184/383/318
f 196/376/319 186/385/319 185/384/319
f 197/377/320 187/386/320 186/385/320
f 198/378/321 188/387/321 187/386/321
f 199/379/322 189/388/322 188/387/322
f 189/388/323 201/381/323 190/244/323
f 190/244/324 202/382/324 191/245/324
f 202/382/325 192/246/325 191/245/325
f 192/246/326 204/77/326 193/78/326
f 172/249/327 184/383/327 173/250/327
f 184/383/328 174/251/328 173/250/328
f 185/384/329 175/252/329 174/251/329
f 175/252/330 187/386/330 176/253/330
f 176/253/331 188/387/331 177/254/331
f 188/387/332 178/255/332 177/254/332
f 178/255/333 190/244/333 179/389/333
f 179/389/334 191/245/334 180/390/334
f 180/390/335 192/246/335 181/258/335
f 192/246/336 182/73/336 181/258/336
f 172/249/337 162/259/337 161/247/337
f 173/250/338 163/391/338 162/259/338
f 174/251/339 164/392/339 163/391/339
f 164/392/340 176/253/340 165/262/340
f 176/253/341 166/263/341 165/262/341
f 177/254/342 167/264/342 166/263/342
f 167/264/343 179/389/343 168/265/343
f 168/265/344 180/390/344 169/266/344
f 180/390/345 170/393/345 169/266/345
f 170/393/346 182/73/346 171/74/346
f 92/237/347 139/281/347 91/394/347
f 161/247/348 151/395/348 150/396/348
f 151/395/349 163/391/349 152/397/349
f 163/391/350 153/398/350 152/397/350
f 153/398/351 165/262/351 154/399/351
f 165/262/352 155/400/352 154/399/352
f 155/400/353 167/264/353 156/401/353
f 167/264/354 157/275/354 156/401/354
f 168/265/355 158/276/355 157/275/355
f 158/276/356 170/393/356 159/402/356
f 159/402/357 171/74/357 160/71/357
f 506/235/358 512/403/358 515/404/358
f 139/281/359 151/395/359 140/405/359
f 140/405/360 152/397/360 141/406/360
f 141/406/361 153/398/361 142/407/361
f 142/407/362 154/399/362 143/408/362
f 143/408/363 155/400/363 144/409/363
f 144/409/364 156/401/364 145/410/364
f 156/401/365 146/411/365 145/410/365
f 146/411/366 158/276/366 147/412/366
f 147/412/367 159/402/367 148/413/367
f 159/402/368 149/68/368 148/413/368
f 149/68/369 160/71/369 137/69/369
f 160/71/370 171/74/370 136/72/370
f 182/73/371 135/76/371 136/72/371
f 182/73/372 193/78/372 134/75/372
f 204/77/373 133/80/373 134/75/373
f 215/79/33 132/82/33 133/80/33
f 226/81/374 131/84/374 132/82/374
f 226/81/375 237/86/375 130/83/375
f 248/85/376 129/88/376 130/83/376
f 259/87/16 128/90/16 129/88/16
f 270/89/377 127/92/377 128/90/377
f 281/91/378 126/94/378 127/92/378
f 281/91/379 292/95/379 125/93/379
f 292/95/380 303/98/380 124/96/380
f 314/97/7 123/100/7 124/96/7
f 325/99/381 122/414/381 123/100/381
f 336/101/382 121/105/382 122/102/382
f 347/104/383 120/106/383 121/105/383
f 358/73/384 119/76/384 120/106/384
f 369/78/385 118/75/385 119/76/385
f 369/78/386 380/77/386 117/80/386
f 380/77/387 391/79/387 116/82/387
f 402/107/388 115/109/388 116/82/388
f 402/107/389 413/111/389 114/108/389
f 424/110/390 113/113/390 114/108/390
f 435/112/391 112/115/391 113/113/391
f 435/112/392 446/116/392 111/114/392
f 457/91/393 110/94/393 111/114/393
f 468/95/394 109/93/394 110/94/394
f 479/98/395 108/96/395 109/93/395
f 479/98/396 490/97/396 107/100/396
f 469/120/397 480/279/397 481/121/397
f 481/121/398 482/124/398 471/123/398
f 482/124/399 483/294/399 472/125/399
f 472/125/400 483/294/400 484/126/400
f 473/127/401 484/126/401 485/128/401
f 485/128/402 486/131/402 475/130/402
f 486/131/403 487/133/403 476/132/403
f 487/133/404 488/298/404 477/134/404
f 477/134/405 488/298/405 489/135/405
f 489/135/406 490/97/406 479/98/406
f 469/120/407 470/122/407 459/140/407
f 459/140/408 470/122/408 471/123/408
f 460/141/409 471/123/409 472/125/409
f 472/125/410 473/127/410 462/143/410
f 473/127/411 474/129/411 463/144/411
f 474/129/412 475/130/412 464/145/412
f 475/130/413 476/132/413 465/146/413
f 465/146/414 476/132/414 477/134/414
f 477/134/415 478/136/415 467/148/415
f 478/136/416 479/98/416 468/95/416
f 103/180/417 392/205/417 102/204/417
f 458/139/418 459/140/418 448/149/418
f 448/149/419 459/140/419 460/141/419
f 460/141/420 461/142/420 450/151/420
f 450/151/420 461/142/420 462/143/420
f 451/152/421 462/143/421 463/144/421
f 463/144/422 464/145/422 453/154/422
f 453/154/423 464/145/423 465/146/423
f 465/146/424 466/147/424 455/156/424
f 455/156/425 466/147/425 467/148/425
f 456/157/426 467/148/426 468/95/426
f 447/137/427 448/149/427 437/160/427
f 437/160/428 448/149/428 449/150/428
f 438/161/429 449/150/429 450/151/429
f 450/151/430 451/152/430 440/163/430
f 451/152/431 452/153/431 441/164/431
f 441/164/432 452/153/432 453/154/432
f 442/165/433 453/154/433 454/155/433
f 454/155/434 455/156/434 444/167/434
f 444/167/435 455/156/435 456/157/435
f 456/157/436 457/91/436 446/116/436
f 436/118/135 437/160/135 426/171/135
f 426/171/437 437/160/437 438/161/437
f 427/172/438 438/161/438 439/162/438
f 428/173/439 439/162/439 440/163/439
f 440/163/440 441/164/440 430/175/440
f 430/175/441 441/164/441 442/165/441
f 442/165/87 443/166/87 432/177/87
f 443/166/442 444/167/442 433/178/442
f 433/178/443 444/167/443 445/168/443
f 434/179/444 445/168/444 446/116/444
f 425/158/445 426/171/445 415/181/445
f 415/181/446 426/171/446 427/172/446
f 427/172/447 428/173/447 417/183/447
f 428/173/448 429/174/448 418/184/448
f 418/184/449 429/174/449 430/175/449
f 419/185/450 430/175/450 431/176/450
f 420/186/451 431/176/451 432/177/451
f 432/177/452 433/178/452 422/188/452
f 422/188/453 433/178/453 434/179/453
f 434/179/454 435/112/454 424/110/454
f 403/193/455 414/170/455 415/181/455
f 415/181/456 416/182/456 405/195/456
f 405/195/457 416/182/457 417/183/457
f 406/196/458 417/183/458 418/184/458
f 418/184/459 419/185/459 408/198/459
f 419/185/460 420/186/460 409/199/460
f 420/186/461 421/187/461 410/200/461
f 410/200/462 421/187/462 422/188/462
f 411/201/463 422/188/463 423/189/463
f 423/189/464 424/110/464 413/111/464
f 392/205/465 403/193/465 404/194/465
f 393/206/466 404/194/466 405/195/466
f 405/195/467 406/196/467 395/208/467
f 395/208/468 406/196/468 407/197/468
f 407/197/469 408/198/469 397/210/469
f 397/210/470 408/198/470 409/199/470
f 398/211/471 409/199/471 410/200/471
f 410/200/472 411/201/472 400/213/472
f 411/201/473 412/202/473 401/214/473
f 412/202/474 413/111/474 402/107/474
f 101/248/475 359/224/475 348/249/475
f 392/205/476 393/206/476 382/215/476
f 393/206/477 394/207/477 383/216/477
f 394/207/478 395/208/478 384/217/478
f 384/217/479 395/208/479 396/209/479
f 385/218/480 396/209/480 397/210/480
f 397/210/481 398/211/481 387/220/481
f 387/220/482 398/211/482 399/212/482
f 399/212/483 400/213/483 389/222/483
f 400/213/484 401/214/484 390/223/484
f 390/223/485 401/214/485 402/107/485
f 381/203/486 382/215/486 371/226/486
f 382/215/487 383/216/487 372/227/487
f 372/227/488 383/216/488 384/217/488
f 373/228/489 384/217/489 385/218/489
f 385/218/490 386/219/490 375/230/490
f 375/230/491 386/219/491 387/220/491
f 376/231/492 387/220/492 388/221/492
f 388/221/493 389/222/493 378/233/493
f 378/233/494 389/222/494 390/223/494
f 390/223/495 391/79/495 380/77/495
f 359/224/496 370/191/496 371/226/496
f 360/238/497 371/226/497 372/227/497
f 372/227/498 373/228/498 362/240/498
f 373/228/499 374/229/499 363/241/499
f 363/241/500 374/229/500 375/230/500
f 364/242/501 375/230/501 376/231/501
f 365/243/502 376/231/502 377/232/502
f 377/232/503 378/233/503 367/245/503
f 378/233/504 379/234/504 368/246/504
f 379/234/505 380/77/505 369/78/505
f 359/224/506 360/238/506 349/250/506
f 349/250/507 360/238/507 361/239/507
f 361/239/508 362/240/508 351/252/508
f 351/252/509 362/240/509 363/241/509
f 363/241/510 364/242/510 353/254/510
f 364/242/511 365/243/511 354/255/511
f 354/255/512 365/243/512 366/244/512
f 355/256/513 366/244/513 367/245/513
f 367/245/514 368/246/514 357/258/514
f 357/258/515 368/246/515 369/78/515
f 99/394/516 326/236/516 315/281/516
f 348/249/517 349/250/517 338/259/517
f 338/259/518 349/250/518 350/251/518
f 339/260/519 350/251/519 351/252/519
f 340/261/520 351/252/520 352/253/520
f 341/262/521 352/253/521 353/254/521
f 342/263/522 353/254/522 354/255/522
f 354/255/523 355/256/523 344/265/523
f 344/265/524 355/256/524 356/257/524
f 345/266/525 356/257/525 357/258/525
f 346/267/526 357/258/526 358/73/526
f 326/236/527 337/247/527 338/259/527
f 338/259/528 339/260/528 328/270/528
f 339/260/529 340/261/529 329/271/529
f 329/271/530 340/261/530 341/262/530
f 330/272/531 341/262/531 342/263/531
f 331/273/532 342/263/532 343/264/532
f 343/264/533 344/265/533 333/275/533
f 333/275/534 344/265/534 345/266/534
f 334/276/535 345/266/535 346/267/535
f 346/267/536 347/104/536 336/101/536
f 315/281/537 326/236/537 327/269/537
f 316/282/538 327/269/538 328/270/538
f 328/270/539 329/271/539 318/284/539
f 329/271/540 330/272/540 319/285/540
f 319/285/541 330/272/541 331/273/541
f 331/273/542 332/274/542 321/287/542
f 321/287/543 332/274/543 333/275/543
f 322/288/544 333/275/544 334/276/544
f 334/276/545 335/277/545 324/290/545
f 335/277/546 336/101/546 325/103/546
f 315/291/547 316/292/547 305/121/547
f 316/292/548 317/415/548 306/124/548
f 306/124/549 317/415/549 318/293/549
f 318/293/550 319/416/550 308/126/550
f 308/126/551 319/416/551 320/295/551
f 320/295/552 321/296/552 310/131/552
f 321/296/553 322/417/553 311/133/553
f 311/133/554 322/417/554 323/297/554
f 312/298/555 323/297/555 324/299/555
f 324/299/556 325/99/556 314/97/556
f 96/349/557 238/339/557 227/351/557
f 304/279/558 305/121/558 294/122/558
f 294/122/559 305/121/559 306/124/559
f 295/123/560 306/124/560 307/294/560
f 296/125/561 307/294/561 308/126/561
f 308/126/562 309/128/562 298/129/562
f 298/129/563 309/128/563 310/131/563
f 310/131/564 311/133/564 300/132/564
f 300/132/565 311/133/565 312/298/565
f 301/134/566 312/298/566 313/135/566
f 302/136/567 313/135/567 314/97/567
f 293/120/568 294/122/568 283/301/568
f 283/301/568 294/122/568 295/123/568
f 284/303/569 295/123/569 296/125/569
f 296/125/570 297/127/570 286/143/570
f 286/143/571 297/127/571 298/129/571
f 287/304/572 298/129/572 299/130/572
f 288/305/573 299/130/573 300/132/573
f 289/306/574 300/132/574 301/134/574
f 290/307/575 301/134/575 302/136/575
f 302/136/576 303/98/576 292/95/576
f 282/302/577 283/301/577 272/310/577
f 272/310/578 283/301/578 284/303/578
f 284/303/579 285/142/579 274/312/579
f 285/142/580 286/143/580 275/313/580
f 286/143/581 287/304/581 276/314/581
f 287/304/582 288/305/582 277/315/582
f 288/305/583 289/306/583 278/316/583
f 289/306/584 290/307/584 279/317/584
f 290/307/585 291/148/585 280/157/585
f 291/148/586 292/95/586 281/91/586
f 260/308/587 271/300/587 272/310/587
f 261/320/588 272/310/588 273/311/588
f 262/321/589 273/311/589 274/312/589
f 274/312/590 275/313/590 264/323/590
f 275/313/591 276/314/591 265/164/591
f 276/314/592 277/315/592 266/165/592
f 277/315/593 278/316/593 267/324/593
f 278/316/594 279/317/594 268/325/594
f 279/317/595 280/157/595 269/326/595
f 269/326/596 280/157/596 281/91/596
f 249/318/597 260/308/597 261/320/597
f 261/320/598 262/321/598 251/329/598
f 262/321/599 263/322/599 252/330/599
f 263/322/600 264/323/600 253/331/600
f 264/323/601 265/164/601 254/332/601
f 265/164/602 266/165/602 255/333/602
f 266/165/603 267/324/603 256/334/603
f 256/334/604 267/324/604 268/325/604
f 268/325/605 269/326/605 258/336/605
f 269/326/606 270/89/606 259/87/606
f 238/339/607 249/318/607 250/328/607
f 250/328/608 251/329/608 240/341/608
f 251/329/609 252/330/609 241/342/609
f 252/330/610 253/331/610 242/343/610
f 253/331/611 254/332/611 243/344/611
f 243/344/612 254/332/612 255/333/612
f 244/345/613 255/333/613 256/334/613
f 256/334/614 257/335/614 246/347/614
f 246/347/615 257/335/615 258/336/615
f 247/348/616 258/336/616 259/87/616
f 227/351/617 238/339/617 239/340/617
f 239/340/618 240/341/618 229/353/618
f 229/353/619 240/341/619 241/342/619
f 241/342/620 242/343/620 231/197/620
f 231/197/621 242/343/621 243/344/621
f 243/344/622 244/345/622 233/199/622
f 244/345/623 245/346/623 234/355/623
f 234/355/624 245/346/624 246/347/624
f 246/347/625 247/348/625 236/357/625
f 247/348/626 248/85/626 237/86/626
f 216/350/627 227/351/627 228/352/627
f 217/360/628 228/352/628 229/353/628
f 229/353/629 230/354/629 219/362/629
f 219/362/630 230/354/630 231/197/630
f 220/363/580 231/197/580 232/198/580
f 232/198/631 233/199/631 222/365/631
f 222/365/632 233/199/632 234/355/632
f 223/366/633 234/355/633 235/356/633
f 224/367/634 235/356/634 236/357/634
f 236/357/635 237/86/635 226/81/635
f 205/358/636 216/350/636 217/360/636
f 206/215/637 217/360/637 218/361/637
f 207/370/638 218/361/638 219/362/638
f 219/362/639 220/363/639 209/372/639
f 209/372/640 220/363/640 221/364/640
f 221/364/641 222/365/641 211/374/641
f 211/374/642 222/365/642 223/366/642
f 212/221/643 223/366/643 224/367/643
f 224/367/644 225/368/644 214/223/644
f 214/223/645 225/368/645 226/81/645
f 161/247/646 93/248/646 172/249/646
f 194/337/647 205/358/647 206/215/647
f 206/215/648 207/370/648 196/376/648
f 196/376/649 207/370/649 208/371/649
f 197/377/650 208/371/650 209/372/650
f 198/378/651 209/372/651 210/373/651
f 199/379/652 210/373/652 211/374/652
f 211/374/653 212/221/653 201/381/653
f 212/221/654 213/222/654 202/382/654
f 202/382/655 213/222/655 214/223/655
f 203/234/656 214/223/656 215/79/656
f 194/337/657 195/375/657 184/383/657
f 195/375/658 196/376/658 185/384/658
f 196/376/659 197/377/659 186/385/659
f 197/377/660 198/378/660 187/386/660
f 198/378/661 199/379/661 188/387/661
f 199/379/662 200/380/662 189/388/662
f 189/388/663 200/380/663 201/381/663
f 190/244/664 201/381/664 202/382/664
f 202/382/665 203/234/665 192/246/665
f 192/246/666 203/234/666 204/77/666
f 172/249/667 183/338/667 184/383/667
f 184/383/668 185/384/668 174/251/668
f 185/384/669 186/385/669 175/252/669
f 175/252/670 186/385/670 187/386/670
f 176/253/671 187/386/671 188/387/671
f 188/387/672 189/388/672 178/255/672
f 178/255/673 189/388/673 190/244/673
f 179/389/674 190/244/674 191/245/674
f 180/390/675 191/245/675 192/246/675
f 192/246/676 193/78/676 182/73/676
f 506/235/677 150/396/677 92/237/677
f 172/249/678 173/250/678 162/259/678
f 173/250/679 174/251/679 163/391/679
f 174/251/680 175/252/680 164/392/680
f 164/392/681 175/252/681 176/253/681
f 176/253/682 177/254/682 166/263/682
f 177/254/683 178/255/683 167/264/683
f 167/264/684 178/255/684 179/389/684
f 168/265/685 179/389/685 180/390/685
f 180/390/686 181/258/686 170/393/686
f 170/393/687 181/258/687 182/73/687
f 161/247/688 162/259/688 151/395/688
f 151/395/689 162/259/689 163/391/689
f 163/391/690 164/392/690 153/398/690
f 153/398/691 164/392/691 165/262/691
f 165/262/692 166/263/692 155/400/692
f 155/400/693 166/263/693 167/264/693
f 167/264/694 168/265/694 157/275/694
f 168/265/695 169/266/695 158/276/695
f 158/276/696 169/266/696 170/393/696
f 159/402/697 170/393/697 171/74/697
f 139/281/698 150/396/698 151/395/698
f 140/405/699 151/395/699 152/397/699
f 141/406/700 152/397/700 153/398/700
f 142/407/701 153/398/701 154/399/701
f 143/408/702 154/399/702 155/400/702
f 144/409/703 155/400/703 156/401/703
f 156/401/704 157/275/704 146/411/704
f 146/411/705 157/275/705 158/276/705
f 147/412/706 158/276/706 159/402/706
f 159/402/707 160/71/707 149/68/707
f 530/418/708 94/419/708 527/420/708
f 93/421/709 521/422/709 505/423/709
f 527/420/710 504/424/710 524/425/710
f 542/426/711 503/427/711 539/428/711
f 530/418/712 96/429/712 95/430/712
f 536/431/713 96/429/713 533/432/713
f 503/427/714 536/431/714 539/428/714
f 99/278/715 554/433/715 557/434/715
f 545/435/716 502/119/716 542/426/716
f 545/435/717 500/138/717 501/117/717
f 548/436/718 499/268/718 500/138/718
f 554/433/719 499/268/719 551/437/719
f 566/438/720 498/439/720 563/440/720
f 100/441/721 557/442/721 560/443/721
f 498/439/722 560/443/722 563/440/722
f 497/423/723 566/438/723 569/422/723
f 569/422/724 496/424/724 497/423/724
f 578/444/725 103/445/725 102/204/725
f 575/420/726 496/424/726 572/425/726
f 102/204/727 575/420/727 578/444/727
f 104/446/728 584/447/728 587/448/728
f 494/449/729 581/450/729 584/447/729
f 599/437/730 105/138/730 596/436/730
f 493/451/731 587/448/731 590/452/731
f 105/138/732 593/435/732 596/436/732
f 491/268/733 480/279/733 469/120/733
f 602/433/734 491/268/734 599/437/734
f 597/453/735 601/454/735 598/455/735
f 601/454/736 599/437/736 598/455/736
f 597/453/737 595/456/737 594/457/737
f 598/455/738 596/436/738 595/456/738
f 591/458/739 595/456/739 592/459/739
f 592/459/740 596/436/740 593/435/740
f 588/460/741 592/459/741 589/461/741
f 592/459/742 590/452/742 589/461/742
f 585/462/743 589/461/743 586/463/743
f 586/463/744 590/452/744 587/448/744
f 582/464/745 586/463/745 583/465/745
f 586/463/746 584/447/746 583/465/746
f 579/466/747 583/465/747 580/467/747
f 583/465/748 581/450/748 580/467/748
f 579/466/749 577/468/749 576/469/749
f 580/467/750 578/444/750 577/468/750
f 576/469/751 574/470/751 573/471/751
f 574/470/752 578/444/752 575/420/752
f 570/472/753 574/470/753 571/473/753
f 574/470/754 572/425/754 571/473/754
f 570/472/755 568/474/755 567/475/755
f 571/473/756 569/422/756 568/474/756
f 567/475/757 565/476/757 564/477/757
f 565/476/758 569/422/758 566/438/758
f 561/478/759 565/476/759 562/479/759
f 562/479/760 566/438/760 563/440/760
f 558/480/761 562/479/761 559/481/761
f 562/479/762 560/443/762 559/481/762
f 558/480/763 556/482/763 555/483/763
f 559/481/764 557/442/764 556/482/764
f 552/484/765 556/485/765 553/454/765
f 556/485/766 554/433/766 553/454/766
f 549/453/767 553/454/767 550/455/767
f 550/455/768 554/433/768 551/437/768
f 546/486/769 550/455/769 547/456/769
f 550/455/770 548/436/770 547/456/770
f 546/486/771 544/459/771 543/487/771
f 547/456/772 545/435/772 544/459/772
f 543/487/773 541/488/773 540/489/773
f 541/488/774 545/435/774 542/426/774
f 540/489/775 538/490/775 537/491/775
f 541/488/776 539/428/776 538/490/776
f 534/492/777 538/490/777 535/493/777
f 535/493/778 539/428/778 536/431/778
f 534/492/779 532/494/779 531/495/779
f 535/493/780 533/432/780 532/494/780
f 528/496/781 532/494/781 529/497/781
f 532/494/782 530/418/782 529/497/782
f 528/496/783 526/470/783 525/471/783
f 526/470/784 530/418/784 527/420/784
f 522/498/785 526/470/785 523/473/785
f 523/473/786 527/420/786 524/425/786
f 522/498/787 520/474/787 519/475/787
f 520/474/788 524/425/788 521/422/788
f 516/499/789 520/474/789 517/476/789
f 520/474/790 518/438/790 517/476/790
f 516/499/791 514/500/791 513/478/791
f 514/500/792 518/438/792 515/404/792
f 510/480/793 514/500/793 511/501/793
f 511/501/794 515/404/794 512/403/794
f 507/502/795 511/501/795 508/503/795
f 511/501/796 509/504/796 508/503/796
f 93/421/797 515/404/797 518/438/797
f 504/424/798 521/422/798 524/425/798
f 492/117/799 590/452/799 593/435/799
f 597/453/800 600/484/800 601/454/800
f 601/454/801 602/433/801 599/437/801
f 597/453/802 598/455/802 595/456/802
f 598/455/803 599/437/803 596/436/803
f 591/458/804 594/457/804 595/456/804
f 592/459/805 595/456/805 596/436/805
f 588/460/806 591/458/806 592/459/806
f 592/459/742 593/435/742 590/452/742
f 585/462/807 588/460/807 589/461/807
f 586/463/808 589/461/808 590/452/808
f 582/464/809 585/462/809 586/463/809
f 586/463/810 587/448/810 584/447/810
f 579/466/811 582/464/811 583/465/811
f 583/465/812 584/447/812 581/450/812
f 579/466/813 580/467/813 577/468/813
f 580/467/814 581/450/814 578/444/814
f 576/469/815 577/468/815 574/470/815
f 574/470/816 577/468/816 578/444/816
f 570/472/817 573/471/817 574/470/817
f 574/470/818 575/420/818 572/425/818
f 570/472/819 571/473/819 568/474/819
f 571/473/820 572/425/820 569/422/820
f 567/475/821 568/474/821 565/476/821
f 565/476/822 568/474/822 569/422/822
f 561/478/823 564/477/823 565/476/823
f 562/479/824 565/476/824 566/438/824
f 558/480/825 561/478/825 562/479/825
f 562/479/826 563/440/826 560/443/826
f 558/480/827 559/481/827 556/482/827
f 559/481/828 560/443/828 557/442/828
f 552/484/829 555/505/829 556/485/829
f 556/485/830 557/434/830 554/433/830
f 549/453/831 552/484/831 553/454/831
f 550/455/832 553/454/832 554/433/832
f 546/486/833 549/453/833 550/455/833
f 550/455/834 551/437/834 548/436/834
f 546/486/835 547/456/835 544/459/835
f 547/456/836 548/436/836 545/435/836
f 543/487/837 544/459/837 541/488/837
f 541/488/838 544/459/838 545/435/838
f 540/489/839 541/488/839 538/490/839
f 541/488/840 542/426/840 539/428/840
f 534/492/841 537/491/841 538/490/841
f 535/493/842 538/490/842 539/428/842
f 534/492/843 535/493/843 532/494/843
f 535/493/844 536/431/844 533/432/844
f 528/496/845 531/495/845 532/494/845
f 532/494/846 533/432/846 530/418/846
f 528/496/847 529/497/847 526/470/847
f 526/470/848 529/497/848 530/418/848
f 522/498/849 525/471/849 526/470/849
f 523/473/850 526/470/850 527/420/850
f 522/498/851 523/473/851 520/474/851
f 520/474/852 523/473/852 524/425/852
f 516/499/853 519/475/853 520/474/853
f 520/474/854 521/422/854 518/438/854
f 516/499/855 517/476/855 514/500/855
f 514/500/856 517/476/856 518/438/856
f 510/480/857 513/478/857 514/500/857
f 511/501/858 514/500/858 515/404/858
f 507/502/859 510/480/859 511/501/859
f 511/501/860 512/403/860 509/504/860
f 105/138/861 469/120/861 458/139/861
f 492/117/862 447/137/862 436/118/862
f 447/137/863 492/117/863 105/138/863
f 493/119/864 436/118/864 425/158/864
f 494/169/865 104/159/865 425/158/865
f 414/170/866 403/193/866 103/180/866
f 495/190/867 381/203/867 370/191/867
f 381/203/868 495/190/868 102/204/868
f 496/192/869 370/191/869 359/224/869
f 498/235/870 337/247/870 326/236/870
f 337/247/871 498/235/871 101/248/871
f 293/120/872 282/302/872 500/138/872
f 99/278/873 315/291/873 304/279/873
f 499/268/295 98/280/295 304/279/295
f 500/138/874 282/302/874 271/300/874
f 501/117/875 271/300/875 260/308/875
f 502/309/876 260/308/876 249/318/876
f 249/318/877 238/339/877 97/327/877
f 505/225/878 504/369/878 194/337/878
f 96/349/879 227/351/879 216/350/879
f 95/204/880 216/350/880 205/358/880
f 504/369/295 94/359/295 205/358/295
f 505/225/881 183/338/881 172/249/881
f 92/237/882 150/396/882 139/281/882
f 506/235/883 92/237/883 512/403/883
f 103/180/884 403/193/884 392/205/884
f 101/248/885 497/225/885 359/224/885
f 99/394/886 100/237/886 326/236/886
f 96/349/229 97/327/229 238/339/229
f 161/247/887 506/235/887 93/248/887
f 506/235/888 161/247/888 150/396/888
f 530/418/889 95/430/889 94/419/889
f 93/421/890 518/438/890 521/422/890
f 527/420/891 94/419/891 504/424/891
f 542/426/892 502/119/892 503/427/892
f 530/418/893 533/432/893 96/429/893
f 536/431/894 97/506/894 96/429/894
f 503/427/714 97/506/714 536/431/714
f 99/278/895 98/280/895 554/433/895
f 545/435/896 501/117/896 502/119/896
f 545/435/897 548/436/897 500/138/897
f 548/436/898 551/437/898 499/268/898
f 554/433/899 98/280/899 499/268/899
f 566/438/900 101/421/900 498/439/900
f 100/441/901 99/394/901 557/442/901
f 498/439/902 100/441/902 560/443/902
f 497/423/903 101/421/903 566/438/903
f 569/422/904 572/425/904 496/424/904
f 578/444/905 581/450/905 103/445/905
f 575/420/906 495/419/906 496/424/906
f 102/204/907 495/419/907 575/420/907
f 104/446/908 494/449/908 584/447/908
f 494/449/909 103/445/909 581/450/909
f 599/437/910 491/268/910 105/138/910
f 493/451/911 104/446/911 587/448/911
f 105/138/912 492/117/912 593/435/912
f 491/268/913 106/280/913 480/279/913
f 602/433/914 106/280/914 491/268/914
f 93/421/915 506/235/915 515/404/915
f 504/424/916 505/423/916 521/422/916
f 492/117/917 493/451/917 590/452/917
f 105/138/918 491/268/918 469/120/918
f 512/403/919 91/507/919 509/504/919
f 512/403/920 92/237/920 91/507/920
usemtl Transparent
f 604/196/921 605/196/921 603/196/921
f 606/196/922 609/196/922 605/196/922
f 610/196/923 607/196/923 609/196/923
f 608/196/924 603/196/924 607/196/924
f 609/196/925 603/196/925 605/196/925
f 606/196/926 608/196/926 610/196/926
f 604/196/921 606/196/921 605/196/921
f 606/196/922 610/196/922 609/196/922
f 610/196/923 608/196/923 607/196/923
f 608/196/924 604/196/924 603/196/924
f 609/196/925 607/196/925 603/196/925
f 606/196/926 604/196/926 608/196/926
o FRAME
v 0.062500 0.000000 0.499999
v 0.062500 0.062500 0.499999
v -0.062500 0.000000 0.499999
v -0.062500 0.062500 0.499999
v 0.062500 0.000000 -0.499999
v 0.062500 0.062500 -0.499999
v -0.062500 0.000000 -0.499999
v -0.062500 0.062500 -0.499999
v 0.062500 0.125000 0.499999
v -0.062500 0.125000 0.499999
v 0.062500 0.125000 -0.499999
v -0.062500 0.125000 -0.499999
vn -1.0000 -0.0000 -0.0000
vn -0.0000 -0.0000 -1.0000
vn 1.0000 -0.0000 -0.0000
vn -0.0000 -1.0000 -0.0000
vn -0.0000 -0.0000 1.0000
vn -0.0000 1.0000 -0.0000
vt 0.125000 0.625000
vt 0.125000 0.875000
s 0
usemtl rail
f 618/508/927 613/508/927 614/508/927
f 616/508/928 617/508/928 618/508/928
f 612/508/929 615/508/929 616/508/929
f 615/508/930 613/508/930 617/508/930
f 620/509/931 612/509/931 619/509/931
f 622/509/927 614/509/927 620/509/927
f 622/509/928 616/509/928 618/509/928
f 619/509/929 616/509/929 621/509/929
f 619/509/932 622/509/932 620/509/932
f 614/508/931 611/508/931 612/508/931
f 618/508/927 617/508/927 613/508/927
f 616/508/928 615/508/928 617/508/928
f 612/508/929 611/508/929 615/508/929
f 615/508/930 611/508/930 613/508/930
f 620/509/931 614/509/931 612/509/931
f 622/509/927 618/509/927 614/509/927
f 622/509/928 621/509/928 616/509/928
f 619/509/929 612/509/929 616/509/929
f 619/509/932 621/509/932 622/509/932
f 614/508/931 613/508/931 611/508/931
